<svg width="559" height="466" viewBox="0 0 559 466" fill="none" xmlns="http://www.w3.org/2000/svg">
<path d="M268.405 210.407H261.625M268.405 210.407V376.395M268.405 210.407H275.184M268.405 210.407L268.186 130.629M261.625 210.407V282.179C261.157 283.193 259.988 284.611 259.053 282.179V280.309M261.625 210.407H259.053V213.914M259.053 213.914V219.057M259.053 213.914H249.468M223.985 224.201V228.409M223.985 224.201H259.053M223.985 224.201V219.057M223.985 228.409H0.499878M223.985 228.409H259.053M259.053 228.409V224.201M259.053 228.409V280.309M259.053 224.201V219.057M223.985 219.057V213.914H228.194M223.985 219.057H259.053M249.468 213.914H228.194M249.468 213.914L252.879 177.911M249.468 213.914L240.527 195.836M266.768 31.3273H245.779M266.768 31.3273L263.866 61.9532M266.768 31.3273L254.798 46.6417M266.768 31.3273H270.041M245.779 31.3273H245.727M245.779 31.3273L245.785 31.2648M245.779 31.3273L245.772 31.4024M245.727 31.3273L245.772 31.4024M245.727 31.3273L245.785 31.2648M245.727 31.3273L246.429 24.3137M228.194 213.914L228.214 213.702M252.879 177.911H231.661M252.879 177.911L240.527 195.836M252.879 177.911L255.936 145.649M252.879 177.911L243.813 161.761M231.661 177.911L228.214 213.702M231.661 177.911L240.527 195.836M231.661 177.911L234.768 145.649M231.661 177.911L243.813 161.761M228.214 213.702L240.527 195.836M234.768 145.649H255.936M234.768 145.649L243.813 161.761M234.768 145.649L238.011 111.983M234.768 145.649L246.962 128.795M255.936 145.649L243.813 161.761M255.936 145.649L246.962 128.795M255.936 145.649L259.126 111.983M238.011 111.983H234.038V94.917H239.655M238.011 111.983L246.962 128.795M238.011 111.983H259.126M238.011 111.983L239.655 94.917M246.962 128.795L259.126 111.983M259.126 111.983L239.655 94.917M259.126 111.983L260.743 94.917M259.126 111.983H277.683M239.655 94.917L242.829 61.9532M239.655 94.917L251.775 78.415M239.655 94.917H260.743M247.13 17.3002L246.455 24.3137M247.13 17.3002H258.686M247.13 17.3002L246.429 24.3137M246.455 24.3137L245.785 31.2648M246.455 24.3137H246.429M246.455 24.3137H252.207M245.785 31.2648L252.207 24.3137M245.772 31.4024L242.829 61.9532M245.772 31.4024L254.798 46.6417M242.829 61.9532H263.866M242.829 61.9532L251.775 78.415M242.829 61.9532L254.798 46.6417M263.866 61.9532L251.775 78.415M263.866 61.9532L260.743 94.917M263.866 61.9532L254.798 46.6417M251.775 78.415L260.743 94.917M260.743 94.917H276.066M258.686 17.3002H268.405M258.686 17.3002L252.207 24.3137M258.686 17.3002L268.405 6.77979M268.405 17.3002V6.77979M268.405 17.3002H278.123M252.207 24.3137H284.603M268.405 6.77979V0M268.405 6.77979L278.123 17.3002M259.053 280.309L251.806 280.075C253.053 281.4 256.482 284.517 256.482 285.452C256.482 286.621 260.222 286.855 259.988 288.024C259.755 289.193 260.222 290.83 262.794 292.7V465H274.016V292.7C276.587 290.83 277.055 289.193 276.821 288.024C276.587 286.855 280.328 286.621 280.328 285.452C280.328 284.517 283.99 281.166 285.237 279.842L277.756 280.309M268.405 376.395C267.625 376.473 266.067 377.05 266.067 378.733V414.363C266.067 415.532 267.282 416.234 268.405 416.234C269.527 416.234 270.743 415.532 270.743 414.363V378.733C270.743 377.05 269.184 376.473 268.405 376.395ZM275.184 210.407V282.179C275.652 283.193 276.821 284.611 277.756 282.179V280.309M275.184 210.407H277.756V213.914M277.756 213.914V219.057M277.756 213.914H287.341M312.824 224.201V228.409M312.824 224.201H277.756M312.824 224.201V219.057M312.824 228.409H559M312.824 228.409H277.756M277.756 228.409V224.201M277.756 228.409V280.309M277.756 224.201V219.057M312.824 219.057V213.914H308.616M312.824 219.057H277.756M287.341 213.914H308.616M287.341 213.914L283.93 177.911M287.341 213.914L296.283 195.836M270.041 31.3273H291.03M270.041 31.3273L272.943 61.9532M270.041 31.3273L282.012 46.6417M291.03 31.3273H291.082M291.03 31.3273L291.024 31.2648M291.03 31.3273L291.037 31.4024M291.082 31.3273L291.037 31.4024M291.082 31.3273L291.024 31.2648M291.082 31.3273L290.381 24.3137M308.616 213.914L308.595 213.702M283.93 177.911H305.148M283.93 177.911L296.283 195.836M283.93 177.911L280.873 145.649M283.93 177.911L292.996 161.761M305.148 177.911L308.595 213.702M305.148 177.911L296.283 195.836M305.148 177.911L302.041 145.649M305.148 177.911L292.996 161.761M308.595 213.702L296.283 195.836M302.041 145.649H280.873M302.041 145.649L292.996 161.761M302.041 145.649L298.798 111.983M302.041 145.649L289.847 128.795M280.873 145.649L292.996 161.761M280.873 145.649L289.847 128.795M280.873 145.649L277.683 111.983M298.798 111.983H302.771V94.917H297.155M298.798 111.983L289.847 128.795M298.798 111.983H277.683M298.798 111.983L297.155 94.917M289.847 128.795L277.683 111.983M277.683 111.983L297.155 94.917M277.683 111.983L276.066 94.917M297.155 94.917L293.98 61.9532M297.155 94.917L285.034 78.415M297.155 94.917H276.066M289.679 17.3002L290.355 24.3137M289.679 17.3002H278.123M289.679 17.3002L290.381 24.3137M290.355 24.3137L291.024 31.2648M290.355 24.3137H290.381M290.355 24.3137H284.603M291.024 31.2648L284.603 24.3137M291.037 31.4024L293.98 61.9532M291.037 31.4024L282.012 46.6417M293.98 61.9532H272.943M293.98 61.9532L285.034 78.415M293.98 61.9532L282.012 46.6417M272.943 61.9532L285.034 78.415M272.943 61.9532L276.066 94.917M272.943 61.9532L282.012 46.6417M285.034 78.415L276.066 94.917M278.123 17.3002L284.603 24.3137M271.037 117.657V130.651C271.349 131.041 272.206 131.586 273.141 130.651V117.657M275.884 130.651L281.73 205.498M280.094 210.407L278.224 213.914M283.601 210.407L285.471 213.914M251.105 273.776H199.672M251.105 273.776C252.525 273.776 253.676 274.928 253.676 276.348V277.283C253.676 278.703 252.525 279.855 251.105 279.855H199.672C198.251 279.855 197.1 278.703 197.1 277.283V276.348C197.1 274.928 198.251 273.776 199.672 273.776M251.105 273.776C252.525 273.776 253.676 272.625 253.676 271.205V270.737C253.676 269.317 252.525 268.165 251.105 268.165H199.672M199.672 273.776C198.251 273.776 197.1 272.625 197.1 271.205V270.737C197.1 269.317 198.251 268.165 199.672 268.165M199.672 256.944H249.702C251.122 256.944 252.273 255.792 252.273 254.372V253.904C252.273 252.484 251.122 251.333 249.702 251.333H199.672M199.672 256.944C198.251 256.944 197.1 255.792 197.1 254.372V253.904C197.1 252.484 198.251 251.333 199.672 251.333M199.672 256.944H251.105C252.525 256.944 253.676 258.095 253.676 259.515V259.983C253.676 261.403 252.525 262.555 251.105 262.555H199.672M199.672 256.944C198.251 256.944 197.1 258.095 197.1 259.515V259.983C197.1 261.403 198.251 262.555 199.672 262.555M199.672 251.333H251.105C252.525 251.333 253.676 250.181 253.676 248.761V248.294C253.676 246.873 252.525 245.722 251.105 245.722H199.672M199.672 251.333C198.251 251.333 197.1 250.181 197.1 248.761V248.294C197.1 246.873 198.251 245.722 199.672 245.722M199.672 245.722H249.702C251.122 245.722 252.273 244.571 252.273 243.15V242.683C252.273 241.263 251.122 240.111 249.702 240.111H199.672M199.672 245.722C198.251 245.722 197.1 244.571 197.1 243.15V242.683C197.1 241.262 198.251 240.111 199.672 240.111M199.672 240.111H251.105C252.525 240.111 253.676 238.96 253.676 237.539V237.072C253.676 235.652 252.525 234.5 251.105 234.5H199.672C198.251 234.5 197.1 235.652 197.1 237.072V237.539C197.1 238.96 198.251 240.111 199.672 240.111ZM199.672 268.165H249.702C251.122 268.165 252.273 267.014 252.273 265.594V265.126C252.273 263.706 251.122 262.555 249.702 262.555H199.672M199.672 268.165C198.251 268.165 197.1 267.014 197.1 265.594V265.126C197.1 263.706 198.251 262.555 199.672 262.555M285.938 273.776H337.371M285.938 273.776C284.518 273.776 283.367 274.928 283.367 276.348V277.283C283.367 278.703 284.518 279.855 285.938 279.855H337.371C338.792 279.855 339.943 278.703 339.943 277.283V276.348C339.943 274.928 338.792 273.776 337.371 273.776M285.938 273.776C284.518 273.776 283.367 272.625 283.367 271.205V270.737C283.367 269.317 284.518 268.165 285.938 268.165H337.371M337.371 273.776C338.792 273.776 339.943 272.625 339.943 271.205V270.737C339.943 269.317 338.792 268.165 337.371 268.165M337.371 256.944H287.341C285.921 256.944 284.769 255.792 284.769 254.372V253.904C284.769 252.484 285.921 251.333 287.341 251.333H337.371M337.371 256.944C338.792 256.944 339.943 255.792 339.943 254.372V253.904C339.943 252.484 338.792 251.333 337.371 251.333M337.371 256.944H285.938C284.518 256.944 283.367 258.095 283.367 259.515V259.983C283.367 261.403 284.518 262.555 285.938 262.555H337.371M337.371 256.944C338.792 256.944 339.943 258.095 339.943 259.515V259.983C339.943 261.403 338.792 262.555 337.371 262.555M337.371 251.333H285.938C284.518 251.333 283.367 250.181 283.367 248.761V248.294C283.367 246.873 284.518 245.722 285.938 245.722H337.371M337.371 251.333C338.792 251.333 339.943 250.181 339.943 248.761V248.294C339.943 246.873 338.792 245.722 337.371 245.722M337.371 245.722H287.341C285.921 245.722 284.769 244.571 284.769 243.15V242.683C284.769 241.262 285.921 240.111 287.341 240.111H337.371M337.371 245.722C338.792 245.722 339.943 244.571 339.943 243.15V242.683C339.943 241.262 338.792 240.111 337.371 240.111M337.371 240.111H285.938C284.518 240.111 283.367 238.96 283.367 237.539V237.072C283.367 235.652 284.518 234.5 285.938 234.5H337.371C338.792 234.5 339.943 235.652 339.943 237.072V237.539C339.943 238.96 338.792 240.111 337.371 240.111ZM337.371 268.165H287.341C285.921 268.165 284.769 267.014 284.769 265.594V265.126C284.769 263.706 285.921 262.555 287.341 262.555H337.371M337.371 268.165C338.792 268.165 339.943 267.014 339.943 265.594V265.126C339.943 263.706 338.792 262.555 337.371 262.555M401.872 218.501H394.649V187.029H424.832M424.832 187.029H458.11V196.316M424.832 187.029V215.147M446.243 218.501H431.023M446.243 218.501L443.921 216.437V206.376L447.533 196.316H455.272V216.437L452.95 218.501M446.243 218.501H452.95M458.11 218.501H452.95M458.11 218.501V211.02M458.11 218.501L460.432 217.211M458.11 196.316H464.043M458.11 196.316V201.475M464.043 196.316V201.475M464.043 196.316V192.704H481.327L482.875 195.8V204.313H484.423V218.501L482.875 220.307H476.168C475.978 219.566 475.653 218.669 475.179 217.727M458.11 211.02H464.043M458.11 211.02V201.475M464.043 211.02V201.475M464.043 211.02C469.992 210.538 473.509 214.408 475.179 217.727M458.11 201.475H464.043M419.414 218.501H413.481M475.179 217.727C471.498 218.759 470.177 217.813 469.976 217.211M409.349 194.78L281.73 211.109M275.075 114.789C275.075 116.467 273.714 117.828 272.036 117.828C270.357 117.828 268.997 116.467 268.997 114.789C268.997 113.11 270.357 111.983 272.036 111.983C273.714 111.983 275.075 113.11 275.075 114.789ZM284.77 208.303C284.77 209.982 283.409 211.342 281.73 211.342C280.052 211.342 278.691 209.982 278.691 208.303C278.691 206.625 280.052 205.264 281.73 205.264C283.409 205.264 284.77 206.625 284.77 208.303ZM275.886 130.452C275.886 132.579 274.162 134.303 272.036 134.303C269.909 134.303 268.186 132.579 268.186 130.452C268.186 128.326 269.909 126.602 272.036 126.602C274.162 126.602 275.886 128.326 275.886 130.452ZM259.053 232.617C259.053 234.037 257.902 235.189 256.482 235.189C255.061 235.189 253.91 234.037 253.91 232.617C253.91 231.197 255.061 230.045 256.482 230.045C257.902 230.045 259.053 231.197 259.053 232.617ZM259.053 240.098C259.053 241.518 257.902 242.67 256.482 242.67C255.061 242.67 253.91 241.518 253.91 240.098C253.91 238.678 255.061 237.526 256.482 237.526C257.902 237.526 259.053 238.678 259.053 240.098ZM259.053 247.579C259.053 248.999 257.902 250.151 256.482 250.151C255.061 250.151 253.91 248.999 253.91 247.579C253.91 246.159 255.061 245.008 256.482 245.008C257.902 245.008 259.053 246.159 259.053 247.579ZM259.053 255.06C259.053 256.481 257.902 257.632 256.482 257.632C255.061 257.632 253.91 256.481 253.91 255.06C253.91 253.64 255.061 252.489 256.482 252.489C257.902 252.489 259.053 253.64 259.053 255.06ZM259.053 262.541C259.053 263.962 257.902 265.113 256.482 265.113C255.061 265.113 253.91 263.962 253.91 262.541C253.91 261.121 255.061 259.97 256.482 259.97C257.902 259.97 259.053 261.121 259.053 262.541ZM259.053 270.023C259.053 271.443 257.902 272.594 256.482 272.594C255.061 272.594 253.91 271.443 253.91 270.023C253.91 268.602 255.061 267.451 256.482 267.451C257.902 267.451 259.053 268.602 259.053 270.023ZM259.053 277.504C259.053 278.924 257.902 280.075 256.482 280.075C255.061 280.075 253.91 278.924 253.91 277.504C253.91 276.084 255.061 274.932 256.482 274.932C257.902 274.932 259.053 276.084 259.053 277.504ZM199.905 234.5H249.936C251.356 234.5 252.507 233.349 252.507 231.929V230.993C252.507 229.573 251.356 228.422 249.936 228.422H199.905C198.485 228.422 197.334 229.573 197.334 230.993V231.929C197.334 233.349 198.485 234.5 199.905 234.5ZM277.99 232.617C277.99 234.037 279.141 235.188 280.561 235.188C281.982 235.188 283.133 234.037 283.133 232.617C283.133 231.197 281.982 230.045 280.561 230.045C279.141 230.045 277.99 231.197 277.99 232.617ZM277.99 240.098C277.99 241.518 279.141 242.67 280.561 242.67C281.982 242.67 283.133 241.518 283.133 240.098C283.133 238.678 281.982 237.526 280.561 237.526C279.141 237.526 277.99 238.678 277.99 240.098ZM277.99 247.579C277.99 248.999 279.141 250.151 280.561 250.151C281.982 250.151 283.133 248.999 283.133 247.579C283.133 246.159 281.982 245.007 280.561 245.007C279.141 245.007 277.99 246.159 277.99 247.579ZM277.99 255.06C277.99 256.481 279.141 257.632 280.561 257.632C281.982 257.632 283.133 256.481 283.133 255.06C283.133 253.64 281.982 252.489 280.561 252.489C279.141 252.489 277.99 253.64 277.99 255.06ZM277.99 262.541C277.99 263.962 279.141 265.113 280.561 265.113C281.982 265.113 283.133 263.962 283.133 262.541C283.133 261.121 281.982 259.97 280.561 259.97C279.141 259.97 277.99 261.121 277.99 262.541ZM277.99 270.023C277.99 271.443 279.141 272.594 280.561 272.594C281.982 272.594 283.133 271.443 283.133 270.023C283.133 268.602 281.982 267.451 280.561 267.451C279.141 267.451 277.99 268.602 277.99 270.023ZM277.99 277.504C277.99 278.924 279.141 280.075 280.561 280.075C281.982 280.075 283.133 278.924 283.133 277.504C283.133 276.083 281.982 274.932 280.561 274.932C279.141 274.932 277.99 276.083 277.99 277.504ZM337.137 234.5H287.107C285.687 234.5 284.536 233.349 284.536 231.929V230.993C284.536 229.573 285.687 228.422 287.107 228.422H337.137C338.558 228.422 339.709 229.573 339.709 230.993V231.929C339.709 233.349 338.558 234.5 337.137 234.5ZM469.203 195.8V204.313H480.295V198.379L478.231 195.8H469.203ZM418.64 203.539C418.64 208.383 414.713 212.31 409.869 212.31C405.025 212.31 401.098 208.383 401.098 203.539C401.098 198.695 405.025 194.768 409.869 194.768C414.713 194.768 418.64 198.695 418.64 203.539ZM414.513 221.597C414.513 225.301 411.51 228.304 407.806 228.304C404.101 228.304 401.098 225.301 401.098 221.597C401.098 217.892 404.101 214.889 407.806 214.889C411.51 214.889 414.513 217.892 414.513 221.597ZM432.055 221.597C432.055 225.301 429.052 228.304 425.348 228.304C421.643 228.304 418.641 225.301 418.641 221.597C418.641 217.892 421.643 214.889 425.348 214.889C429.052 214.889 432.055 217.892 432.055 221.597ZM471.782 221.597C471.782 225.301 468.779 228.304 465.075 228.304C461.371 228.304 458.368 225.301 458.368 221.597C458.368 217.892 461.371 214.889 465.075 214.889C468.779 214.889 471.782 217.892 471.782 221.597ZM413.997 203.539C413.997 205.818 412.149 207.666 409.87 207.666C407.59 207.666 405.742 205.818 405.742 203.539C405.742 201.259 407.59 199.411 409.87 199.411C412.149 199.411 413.997 201.259 413.997 203.539ZM410.901 221.597C410.901 223.306 409.515 224.692 407.806 224.692C406.096 224.692 404.71 223.306 404.71 221.597C404.71 219.887 406.096 218.501 407.806 218.501C409.515 218.501 410.901 219.887 410.901 221.597ZM428.443 221.597C428.443 223.306 427.057 224.692 425.347 224.692C423.638 224.692 422.252 223.306 422.252 221.597C422.252 219.887 423.638 218.501 425.347 218.501C427.057 218.501 428.443 219.887 428.443 221.597ZM468.171 221.597C468.171 223.306 466.785 224.692 465.075 224.692C463.365 224.692 461.979 223.306 461.979 221.597C461.979 219.887 463.365 218.501 465.075 218.501C466.785 218.501 468.171 219.887 468.171 221.597Z" stroke="black"/>
</svg>
