<svg width="500" height="500" viewBox="0 0 500 500" fill="none" xmlns="http://www.w3.org/2000/svg">
<rect width="500" height="500" fill="#FAFAFA"/>
<path d="M206 324L237 328.787L206 333V324Z" stroke="black"/>
<path d="M206 343L237 347.787L206 352V343Z" stroke="black"/>
<path d="M206 360L237 364.787L206 369V360Z" stroke="black"/>
<path d="M279 330L247 335.319L279 340V330Z" stroke="black"/>
<path d="M279 349L247 353.787L279 358V349Z" stroke="black"/>
<path d="M279 367L247 371.255L279 375V367Z" stroke="black"/>
<path d="M241.924 174.774H235.903M241.924 174.774V322.267M241.924 174.774H247.945M235.903 174.774V238.549C235.488 239.449 234.45 240.71 233.619 238.549V236.887M235.903 174.774H233.619V177.89M233.619 177.89V182.46M233.619 177.89H225.107H206.213M202.476 187.03V190.77M202.476 187.03H233.619M202.476 187.03V182.46M202.476 190.77H4M202.476 190.77H233.619M233.619 190.77V187.03M233.619 190.77V236.887M233.619 187.03V182.46M202.476 182.46V177.89H206.213M202.476 182.46H233.619M206.213 177.89L206.231 177.702M233.619 236.887L227.183 236.68C228.29 237.857 231.335 240.627 231.335 241.458C231.335 242.496 234.657 242.704 234.45 243.743C234.242 244.781 234.657 246.236 236.941 247.897V401H246.907V247.897C249.191 246.236 249.606 244.781 249.399 243.743C249.191 242.704 252.513 242.496 252.513 241.458C252.513 240.627 255.766 237.649 256.873 236.472L250.229 236.887M241.924 322.267C241.232 322.337 239.848 322.849 239.848 324.345V372.888C239.848 373.927 240.928 374.55 241.924 374.55C242.921 374.55 244 373.927 244 372.888V324.345C244 322.849 242.616 322.337 241.924 322.267ZM247.945 174.774V238.549C248.36 239.449 249.399 240.71 250.229 238.549V236.887M247.945 174.774H250.229V177.89M250.229 177.89V182.46M250.229 177.89H258.742H277.635M281.373 187.03V190.77M281.373 187.03H250.229M281.373 187.03V182.46M281.373 190.77H500M281.373 190.77H250.229M250.229 190.77V187.03M250.229 190.77V236.887M250.229 187.03V182.46M281.373 182.46V177.89H277.635M281.373 182.46H250.229M277.635 177.89L277.617 177.702M252.305 174.774L250.644 177.89M255.42 174.774L257.081 177.89M226.56 231.082H180.883M226.56 231.082C227.821 231.082 228.844 232.105 228.844 233.367V234.198C228.844 235.46 227.821 236.483 226.56 236.483H180.883C179.622 236.483 178.599 235.46 178.599 234.198V233.367C178.599 232.105 179.622 231.082 180.883 231.082M226.56 231.082C227.821 231.082 228.844 230.059 228.844 228.797V228.382C228.844 227.12 227.821 226.097 226.56 226.097H180.883M180.883 231.082C179.622 231.082 178.599 230.059 178.599 228.797V228.382C178.599 227.12 179.622 226.097 180.883 226.097M180.883 216.125H225.314C226.576 216.125 227.598 215.102 227.598 213.84V213.425C227.598 212.163 226.576 211.139 225.314 211.139H180.883M180.883 216.125C179.622 216.125 178.599 215.102 178.599 213.84V213.425C178.599 212.163 179.622 211.139 180.883 211.139M180.883 216.125H226.56C227.821 216.125 228.844 217.148 228.844 218.41V218.826C228.844 220.088 227.821 221.111 226.56 221.111H180.883M180.883 216.125C179.622 216.125 178.599 217.148 178.599 218.41V218.826C178.599 220.088 179.622 221.111 180.883 221.111M180.883 211.139H226.56C227.821 211.139 228.844 210.116 228.844 208.854V208.439C228.844 207.177 227.821 206.154 226.56 206.154H180.883M180.883 211.139C179.622 211.139 178.599 210.116 178.599 208.854V208.439C178.599 207.177 179.622 206.154 180.883 206.154M180.883 206.154H225.314C226.576 206.154 227.598 205.131 227.598 203.869V203.453C227.598 202.191 226.576 201.168 225.314 201.168H180.883M180.883 206.154C179.622 206.154 178.599 205.131 178.599 203.869V203.453C178.599 202.191 179.622 201.168 180.883 201.168M180.883 201.168H226.56C227.821 201.168 228.844 200.145 228.844 198.883V198.467C228.844 197.205 227.821 196.182 226.56 196.182H180.883C179.622 196.182 178.599 197.205 178.599 198.467V198.883C178.599 200.145 179.622 201.168 180.883 201.168ZM180.883 226.097H225.314C226.576 226.097 227.598 225.073 227.598 223.811V223.396C227.598 222.134 226.576 221.111 225.314 221.111H180.883M180.883 226.097C179.622 226.097 178.599 225.073 178.599 223.811V223.396C178.599 222.134 179.622 221.111 180.883 221.111M257.496 231.082H303.173M257.496 231.082C256.234 231.082 255.212 232.105 255.212 233.367V234.198C255.212 235.46 256.234 236.483 257.496 236.483H303.173C304.434 236.483 305.457 235.46 305.457 234.198V233.367C305.457 232.105 304.434 231.082 303.173 231.082M257.496 231.082C256.234 231.082 255.212 230.059 255.212 228.797V228.382C255.212 227.12 256.234 226.097 257.496 226.097H303.173M303.173 231.082C304.434 231.082 305.457 230.059 305.457 228.797V228.382C305.457 227.12 304.434 226.097 303.173 226.097M303.173 216.125H258.741C257.48 216.125 256.458 215.102 256.458 213.84V213.425C256.458 212.162 257.48 211.139 258.741 211.139H303.173M303.173 216.125C304.434 216.125 305.457 215.102 305.457 213.84V213.425C305.457 212.162 304.434 211.139 303.173 211.139M303.173 216.125H257.496C256.234 216.125 255.212 217.148 255.212 218.41V218.826C255.212 220.088 256.234 221.111 257.496 221.111H303.173M303.173 216.125C304.434 216.125 305.457 217.148 305.457 218.41V218.826C305.457 220.088 304.434 221.111 303.173 221.111M303.173 211.139H257.496C256.234 211.139 255.212 210.116 255.212 208.854V208.439C255.212 207.177 256.234 206.154 257.496 206.154H303.173M303.173 211.139C304.434 211.139 305.457 210.116 305.457 208.854V208.439C305.457 207.177 304.434 206.154 303.173 206.154M303.173 206.154H258.741C257.48 206.154 256.458 205.131 256.458 203.869V203.453C256.458 202.191 257.48 201.168 258.741 201.168H303.173M303.173 206.154C304.434 206.154 305.457 205.131 305.457 203.869V203.453C305.457 202.191 304.434 201.168 303.173 201.168M303.173 201.168H257.496C256.234 201.168 255.212 200.145 255.212 198.883V198.467C255.212 197.205 256.234 196.182 257.496 196.182H303.173C304.434 196.182 305.457 197.205 305.457 198.467V198.883C305.457 200.145 304.434 201.168 303.173 201.168ZM303.173 226.097H258.741C257.48 226.097 256.458 225.073 256.458 223.811V223.396C256.458 222.134 257.48 221.111 258.741 221.111H303.173M303.173 226.097C304.434 226.097 305.457 225.073 305.457 223.811V223.396C305.457 222.134 304.434 221.111 303.173 221.111M360.456 181.966H354.041V154H380.846M380.846 154H410.4V162.252M380.846 154V178.986M399.861 181.966H386.344M399.861 181.966L397.799 180.132V171.192L401.007 162.252H407.88V180.132L405.818 181.966M399.861 181.966H405.818M410.4 181.966H405.818M410.4 181.966V175.318M410.4 181.966L412.462 180.82M410.4 162.252H415.669M410.4 162.252V166.837M415.669 162.252V166.837M415.669 162.252V159.043H431.019L432.394 161.794V169.358H433.768V181.966L432.394 183.57H426.437C426.268 182.912 425.979 182.115 425.559 181.278M410.4 175.318H415.669M410.4 175.318V166.837M415.669 175.318V166.837M415.669 175.318C420.952 174.89 424.075 178.329 425.559 181.278M410.4 166.837H415.669M376.035 181.966H370.765M425.559 181.278C422.29 182.195 421.117 181.355 420.938 180.82M367.095 160.888L253.759 175.397M256.458 172.904C256.458 174.396 255.249 175.605 253.759 175.605C252.268 175.605 251.06 174.396 251.06 172.904C251.06 171.413 252.268 170.204 253.759 170.204C255.249 170.204 256.458 171.413 256.458 172.904ZM233.619 194.509C233.619 195.771 232.597 196.794 231.335 196.794C230.074 196.794 229.052 195.771 229.052 194.509C229.052 193.247 230.074 192.224 231.335 192.224C232.597 192.224 233.619 193.247 233.619 194.509ZM233.619 201.156C233.619 202.418 232.597 203.442 231.335 203.442C230.074 203.442 229.052 202.418 229.052 201.156C229.052 199.894 230.074 198.871 231.335 198.871C232.597 198.871 233.619 199.894 233.619 201.156ZM233.619 207.804C233.619 209.066 232.597 210.089 231.335 210.089C230.074 210.089 229.052 209.066 229.052 207.804C229.052 206.542 230.074 205.519 231.335 205.519C232.597 205.519 233.619 206.542 233.619 207.804ZM233.619 214.452C233.619 215.714 232.597 216.737 231.335 216.737C230.074 216.737 229.052 215.714 229.052 214.452C229.052 213.19 230.074 212.167 231.335 212.167C232.597 212.167 233.619 213.19 233.619 214.452ZM233.619 221.099C233.619 222.361 232.597 223.384 231.335 223.384C230.074 223.384 229.052 222.361 229.052 221.099C229.052 219.837 230.074 218.814 231.335 218.814C232.597 218.814 233.619 219.837 233.619 221.099ZM233.619 227.747C233.619 229.009 232.597 230.032 231.335 230.032C230.074 230.032 229.052 229.009 229.052 227.747C229.052 226.485 230.074 225.462 231.335 225.462C232.597 225.462 233.619 226.485 233.619 227.747ZM233.619 234.394C233.619 235.656 232.597 236.68 231.335 236.68C230.074 236.68 229.052 235.656 229.052 234.394C229.052 233.132 230.074 232.109 231.335 232.109C232.597 232.109 233.619 233.132 233.619 234.394ZM181.091 196.182H225.522C226.783 196.182 227.806 195.159 227.806 193.897V193.066C227.806 191.804 226.783 190.781 225.522 190.781H181.091C179.829 190.781 178.807 191.804 178.807 193.066V193.897C178.807 195.159 179.829 196.182 181.091 196.182ZM250.437 194.509C250.437 195.771 251.459 196.794 252.72 196.794C253.982 196.794 255.004 195.771 255.004 194.509C255.004 193.247 253.982 192.224 252.72 192.224C251.459 192.224 250.437 193.247 250.437 194.509ZM250.437 201.156C250.437 202.418 251.459 203.442 252.72 203.442C253.982 203.442 255.004 202.418 255.004 201.156C255.004 199.894 253.982 198.871 252.72 198.871C251.459 198.871 250.437 199.894 250.437 201.156ZM250.437 207.804C250.437 209.066 251.459 210.089 252.72 210.089C253.982 210.089 255.004 209.066 255.004 207.804C255.004 206.542 253.982 205.519 252.72 205.519C251.459 205.519 250.437 206.542 250.437 207.804ZM250.437 214.452C250.437 215.714 251.459 216.737 252.72 216.737C253.982 216.737 255.004 215.714 255.004 214.452C255.004 213.19 253.982 212.166 252.72 212.166C251.459 212.166 250.437 213.19 250.437 214.452ZM250.437 221.099C250.437 222.361 251.459 223.384 252.72 223.384C253.982 223.384 255.004 222.361 255.004 221.099C255.004 219.837 253.982 218.814 252.72 218.814C251.459 218.814 250.437 219.837 250.437 221.099ZM250.437 227.747C250.437 229.009 251.459 230.032 252.72 230.032C253.982 230.032 255.004 229.009 255.004 227.747C255.004 226.485 253.982 225.462 252.72 225.462C251.459 225.462 250.437 226.485 250.437 227.747ZM250.437 234.394C250.437 235.656 251.459 236.68 252.72 236.68C253.982 236.68 255.004 235.656 255.004 234.394C255.004 233.132 253.982 232.109 252.72 232.109C251.459 232.109 250.437 233.132 250.437 234.394ZM302.965 196.182H258.534C257.273 196.182 256.25 195.159 256.25 193.897V193.066C256.25 191.804 257.273 190.781 258.534 190.781H302.965C304.227 190.781 305.249 191.804 305.249 193.066V193.897C305.249 195.159 304.227 196.182 302.965 196.182ZM420.251 161.794V169.358H430.103V164.086L428.27 161.794H420.251ZM375.347 168.671C375.347 172.975 371.86 176.464 367.558 176.464C363.256 176.464 359.768 172.975 359.768 168.671C359.768 164.366 363.256 160.877 367.558 160.877C371.86 160.877 375.347 164.366 375.347 168.671ZM371.682 184.716C371.682 188.008 369.015 190.676 365.725 190.676C362.435 190.676 359.768 188.008 359.768 184.716C359.768 181.425 362.435 178.757 365.725 178.757C369.015 178.757 371.682 181.425 371.682 184.716ZM387.261 184.716C387.261 188.008 384.594 190.676 381.304 190.676C378.014 190.676 375.347 188.008 375.347 184.716C375.347 181.425 378.014 178.757 381.304 178.757C384.594 178.757 387.261 181.425 387.261 184.716ZM422.542 184.716C422.542 188.008 419.875 190.676 416.585 190.676C413.296 190.676 410.629 188.008 410.629 184.716C410.629 181.425 413.296 178.757 416.585 178.757C419.875 178.757 422.542 181.425 422.542 184.716ZM371.224 168.671C371.224 170.696 369.582 172.338 367.558 172.338C365.534 172.338 363.892 170.696 363.892 168.671C363.892 166.645 365.534 165.003 367.558 165.003C369.582 165.003 371.224 166.645 371.224 168.671ZM368.474 184.717C368.474 186.236 367.243 187.467 365.725 187.467C364.207 187.467 362.976 186.236 362.976 184.717C362.976 183.197 364.207 181.966 365.725 181.966C367.243 181.966 368.474 183.197 368.474 184.717ZM384.053 184.717C384.053 186.236 382.822 187.467 381.304 187.467C379.785 187.467 378.555 186.236 378.555 184.717C378.555 183.197 379.785 181.966 381.304 181.966C382.822 181.966 384.053 183.197 384.053 184.717ZM419.335 184.717C419.335 186.236 418.104 187.467 416.585 187.467C415.067 187.467 413.836 186.236 413.836 184.717C413.836 183.197 415.067 181.966 416.585 181.966C418.104 181.966 419.335 183.197 419.335 184.717Z" stroke="black"/>
<path d="M149.644 181.45H156V154H129.44M129.44 154H100.155V162.1M129.44 154V178.525M110.598 181.45H123.991M110.598 181.45L112.641 179.65V170.875L109.463 162.1H102.652V179.65L104.695 181.45M110.598 181.45H104.695M100.155 181.45H104.695M100.155 181.45V174.925M100.155 181.45L98.112 180.325M100.155 162.1H94.9339M100.155 162.1V166.6M94.9339 162.1V166.6M94.9339 162.1V158.95H79.7241L78.362 161.65V169.075H77V181.45L78.362 183.025H84.2643C84.4315 182.379 84.7177 181.596 85.1345 180.775M100.155 174.925H94.9339M100.155 174.925V166.6M94.9339 174.925V166.6M94.9339 174.925C89.6991 174.504 86.6043 177.88 85.1345 180.775M100.155 166.6H94.9339M134.207 181.45H139.428M85.1345 180.775C88.3733 181.675 89.5361 180.85 89.7126 180.325M90.3936 161.65V169.075H80.6321V163.9L82.4483 161.65H90.3936ZM138.52 184.15C138.52 187.381 141.163 190 144.422 190C147.682 190 150.325 187.381 150.325 184.15C150.325 180.919 147.682 178.3 144.422 178.3C141.163 178.3 138.52 180.919 138.52 184.15ZM123.083 184.15C123.083 187.381 125.726 190 128.985 190C132.245 190 134.888 187.381 134.888 184.15C134.888 180.919 132.245 178.3 128.985 178.3C125.726 178.3 123.083 180.919 123.083 184.15ZM88.1237 184.15C88.1237 187.381 90.7662 190 94.026 190C97.2857 190 99.9283 187.381 99.9283 184.15C99.9283 180.919 97.2857 178.3 94.026 178.3C90.7662 178.3 88.1237 180.919 88.1237 184.15ZM141.698 184.15C141.698 185.641 142.918 186.85 144.422 186.85C145.927 186.85 147.146 185.641 147.146 184.15C147.146 182.659 145.927 181.45 144.422 181.45C142.918 181.45 141.698 182.659 141.698 184.15ZM126.262 184.15C126.262 185.641 127.481 186.85 128.986 186.85C130.49 186.85 131.71 185.641 131.71 184.15C131.71 182.659 130.49 181.45 128.986 181.45C127.481 181.45 126.262 182.659 126.262 184.15ZM91.3018 184.15C91.3018 185.641 92.5214 186.85 94.0259 186.85C95.5304 186.85 96.7501 185.641 96.7501 184.15C96.7501 182.659 95.5304 181.45 94.0259 181.45C92.5214 181.45 91.3018 182.659 91.3018 184.15Z" stroke="black"/>
</svg>
