<svg width="500" height="500" viewBox="0 0 500 500" fill="none" xmlns="http://www.w3.org/2000/svg">
<rect width="500" height="500" fill="#FAFAFA"/>
<path d="M251 439.865H186V434.947H196M251 434.947H249M251 38H241M239 57.6752V38H241M239 57.6752H241M239 57.6752H238M251 65.5452V57.6752H248M251 65.5452C247.667 65.5452 241 66.7258 241 71.4478H243M251 65.5452H248M251 71.4478H247M247 71.4478H243M247 71.4478V189.499M219 218.52V197.861H221.5M219 218.52L207 348.376V350.343M219 218.52H225M251 218.52H247M228 197.861V205.731M228 197.861H221.5M228 197.861H234M228 197.861L222 192.45M228 197.861L234.5 192.45M228 218.52V209.666M228 218.52H231.5M228 218.52H225M228 205.731H251M228 205.731V209.666M228 209.666H251M247 218.52V243.114M247 218.52H231.5M247 243.114H250M247 243.114H245V248.032M250 243.114V240.654H251M250 243.114V248.032M250 255.903V253.935M250 255.903H251M250 255.903H247M245 248.032H250M245 248.032V253.935M250 248.032V253.935M245 253.935V255.903H247M245 253.935H250M247 255.903C247 257.214 247.8 259.838 251 259.838M248.5 258.854V263.773M248.5 263.773H249.75M248.5 263.773H246.5V268.691H248M251 263.773H249.75M249.75 263.773V261.313H251M251 268.691H248M248 268.691V271.643H249.5V274.594H250M251 274.594H250M250 274.594V280.005M250 280.005H251M250 280.005C249 280.005 247 280.89 247 284.432C247 286.779 247 290.842 247 294.269M251 299.68C247.8 299.68 247 299.024 247 298.696C247 298.145 247 297.476 247 296.729C247 295.976 247 295.143 247 294.269M247 294.269H251M247 294.269H244C241.5 294.269 240.5 295.548 240.5 298.696M250 299.68V323.782H244M225 340.506L233 323.782H237M225 340.506L220 387.726M225 340.506H251H246.5V387.726M220 387.726H233.5M220 387.726V391.661M251 387.726H248.75M246.5 387.726H248.75M246.5 387.726H241.5M228 380.84H243M241 38V40.4594M241 57.6752V40.4594M241 57.6752H244.5M241 57.6752V65.5452M241 40.4594H251M248 57.6752V65.5452M248 57.6752H244.5M248 65.5452H244.5M244.5 57.6752V65.5452M244.5 65.5452H241M241 65.5452H238M238 57.6752H235V65.5452H238M238 57.6752V65.5452M243 71.4478L236.75 84.2367M243 71.4478V84.2367M230.5 97.0255L221.5 197.861M230.5 97.0255L236.75 84.2367M230.5 97.0255H243M230.5 97.0255L242 108.339M234 197.861L243 97.0255M234 197.861H243M243 97.0255V84.2367M243 97.0255L236.75 84.2367M243 97.0255L229.5 108.339M236.75 84.2367H243M229.5 108.339H242M229.5 108.339L241 118.176M242 108.339L228.5 118.176M241 118.176H228.5M241 118.176L227.5 128.998M228.5 118.176L240 128.998M240 128.998H227.5M240 128.998L226.5 138.835M227.5 128.998L239.5 138.835M239.5 138.835H226.5M239.5 138.835L226 149.657M226.5 138.835L238.5 149.657M238.5 149.657H226M238.5 149.657L224.5 160.478M226 149.657L237.5 160.478M237.5 160.478H224.5M237.5 160.478L224 171.791M224.5 160.478L236.5 171.791M236.5 171.791H224M236.5 171.791L223 182.121M224 171.791L235.5 182.121M235.5 182.121H223M235.5 182.121L222 192.45M223 182.121L234.5 192.45M234.5 192.45H222M234.5 192.45H243M247 192.45V197.861H251H243M247 192.45V189.499M247 192.45H243M235 189.499H247M207 385.267H212M207 385.267V377.397M207 385.267L213.5 377.397M207 385.267V406.418M212 385.267L219.5 348.376L231 223.93M212 385.267L207 377.397M212 385.267L207 406.418M231.5 218.52L231 223.93M218.5 223.439L225 218.52M218.5 223.439H231L217.5 234.26M218.5 223.439L230 234.26M225 218.52L231 223.93M217.5 234.26H230M217.5 234.26L229 244.097M230 234.26L216.5 244.097M216.5 244.097H229M216.5 244.097L228 255.411M229 244.097L215.5 255.411M228 255.411H215.5M228 255.411L214.5 266.232M215.5 255.411L227 266.232M227 266.232H214.5M227 266.232L213.5 276.561M214.5 266.232L226 276.561M226 276.561H213.5M226 276.561L212.5 287.383M213.5 276.561L225 287.383M225 287.383H212.5M225 287.383L211.5 298.204M212.5 287.383L224 298.204M224 298.204H211.5M224 298.204L210.5 309.026M211.5 298.204L223 309.026M223 309.026H210.5M223 309.026L209.5 318.863M210.5 309.026L222.5 318.863H222M209.5 318.863L221 330.176M209.5 318.863H222M221 330.176H208.5M221 330.176L207.5 340.506M208.5 330.176L222 318.863M208.5 330.176L220 340.506M220 340.506H207.5M220 340.506L207 350.343M207.5 340.506L219 350.343M219 350.343H207M219 350.343L207 360.181M207 350.343L217 360.181M207 350.343V360.181M217 360.181H207M217 360.181L207 369.035M207 360.181L215.5 369.035M207 360.181V369.035M215.5 369.035H207M215.5 369.035L207 377.397M207 369.035L213.5 377.397M207 369.035V377.397M213.5 377.397H207M220 434.947V428.06M220 434.947H217.5M220 434.947H249M220 424.617H233.5M220 424.617V419.698M220 424.617V428.06M251 424.617H248.75M248.75 387.726V424.617M248.75 424.617H241.5M241.5 387.726V424.617M241.5 387.726H233.5M241.5 424.617H233.5M233.5 387.726V391.661M233.5 424.617V419.698M220 391.661H233.5M220 391.661V404.45M233.5 391.661V404.45M220 404.45H233.5M220 404.45V418.715M233.5 404.45V419.698M220 419.698H233.5M220 419.698V418.715M207 406.418H204M204 406.418H210V412.32M204 406.418V412.32M210 414.78H204M210 414.78L212 418.715M210 414.78V412.32M204 414.78L202 418.715H212M204 414.78V412.32M212 418.715H220M201.5 418.715H200M200 418.715H195V421.174H196M200 418.715V421.174M220 428.06H215M200 421.174H196M200 421.174V425.109M196 421.174V425.109M196 425.109H195V427.077H200M196 425.109H200M200 427.077V428.06H202M200 427.077V425.109M215 428.06L217.5 434.947M215 428.06H204M217.5 434.947H204M198 427.568V434.947M198 434.947H202M198 434.947H196M202 428.06V434.947M202 428.06H204M202 434.947H204M204 428.06V434.947M196 427.568V434.947M204 412.32H210M243 192.45V197.861M249 434.947V457.081L251 462L253 457.081V434.947M240.5 298.696C240.5 301.844 240.5 316.732 240.5 323.782M240.5 298.696V259.346H242.5V257.378H240.5C240.5 255.411 239.4 251.476 235 251.476C230.6 251.476 229.5 255.083 229.5 256.886M240.5 323.782H244M240.5 323.782H237M244 323.782V299.68C244 297.22 245.4 297.712 247 297.712M237 323.782V259.346H235V257.378H237C237.333 256.394 237.4 254.427 235 254.427C232.6 254.427 232 256.067 232 256.886M229.5 256.886H232M229.5 256.886L227.5 262.297L232 256.886M228 352.311H243V356.246H228V352.311ZM234 361.165V365.1H240V361.165H234Z" stroke="black"/>
<path d="M251 439.865H316V434.947H306M251 434.947H282M251 38H261M263 57.6752V38H261M263 57.6752H261M263 57.6752H264M251 65.5452V57.6752H254M251 65.5452C254.333 65.5452 261 66.7258 261 71.4478H259M251 65.5452H254M251 71.4478H255M255 71.4478H259M255 71.4478V189.499M283 218.52V197.861H280.5M283 218.52L295 348.376V350.343M283 218.52H277M251 218.52H255M274 197.861V205.731M274 197.861H280.5M274 197.861H268M274 197.861L280 192.45M274 197.861L267.5 192.45M274 218.52V209.666M274 218.52H270.5M274 218.52H277M274 205.731H251M274 205.731V209.666M274 209.666H251M255 218.52V243.114M255 218.52H270.5M255 243.114H252M255 243.114H257V248.032M252 243.114V240.654H251M252 243.114V248.032M252 255.903V253.935M252 255.903H251M252 255.903H255M257 248.032H252M257 248.032V253.935M252 248.032V253.935M257 253.935V255.903H255M257 253.935H252M255 255.903C255 257.214 254.2 259.838 251 259.838M253.5 258.854V263.773M253.5 263.773H252.25M253.5 263.773H255.5V268.691H254M251 263.773H252.25M252.25 263.773V261.313H251M251 268.691H254M254 268.691V271.643H252.5V274.594H252M251 274.594H252M252 274.594V280.005M252 280.005H251M252 280.005C253 280.005 255 280.89 255 284.432C255 286.779 255 290.842 255 294.269M251 299.68C254.2 299.68 255 299.024 255 298.696C255 297.591 255 296.012 255 294.269M255 294.269H251M252 299.68V323.782H269L277 340.506M277 340.506L282 387.726M277 340.506H251H255.5V387.726M282 387.726H268.5M282 387.726V391.661M251 387.726H253.25M255.5 387.726H253.25M255.5 387.726H260.5M261 38V40.4594M261 57.6752V40.4594M261 57.6752H257.5M261 57.6752V65.5452M261 40.4594H251M254 57.6752V65.5452M254 57.6752H257.5M254 65.5452H257.5M257.5 57.6752V65.5452M257.5 65.5452H261M261 65.5452H264M264 57.6752H267V65.5452H264M264 57.6752V65.5452M259 71.4478L265.25 84.2367M259 71.4478V84.2367M271.5 97.0255L280.5 197.861M271.5 97.0255L265.25 84.2367M271.5 97.0255H259M271.5 97.0255L260 108.339M268 197.861L259 97.0255M268 197.861H259M259 97.0255V84.2367M259 97.0255L265.25 84.2367M259 97.0255L272.5 108.339M265.25 84.2367H259M272.5 108.339H260M272.5 108.339L261 118.176M260 108.339L273.5 118.176M261 118.176H273.5M261 118.176L274.5 128.998M273.5 118.176L262 128.998M262 128.998H274.5M262 128.998L275.5 138.835M274.5 128.998L262.5 138.835M262.5 138.835H275.5M262.5 138.835L276 149.657M275.5 138.835L263.5 149.657M263.5 149.657H276M263.5 149.657L277.5 160.478M276 149.657L264.5 160.478M264.5 160.478H277.5M264.5 160.478L278 171.791M277.5 160.478L265.5 171.791M265.5 171.791H278M265.5 171.791L279 182.121M278 171.791L266.5 182.121M266.5 182.121H279M266.5 182.121L280 192.45M279 182.121L267.5 192.45M267.5 192.45H280M267.5 192.45H259M255 192.45V197.861H251H259M255 192.45V189.499M255 192.45H259M267 189.499H255M295 385.267H290M295 385.267V377.397M295 385.267L288.5 377.397M295 385.267V406.418M290 385.267L282.5 348.376L271 223.93M290 385.267L295 377.397M290 385.267L295 406.418M270.5 218.52L271 223.93M283.5 223.439L277 218.52M283.5 223.439H271L284.5 234.26M283.5 223.439L272 234.26M277 218.52L271 223.93M284.5 234.26H272M284.5 234.26L273 244.097M272 234.26L285.5 244.097M285.5 244.097H273M285.5 244.097L274 255.411M273 244.097L286.5 255.411M274 255.411H286.5M274 255.411L287.5 266.232M286.5 255.411L275 266.232M275 266.232H287.5M275 266.232L288.5 276.561M287.5 266.232L276 276.561M276 276.561H288.5M276 276.561L289.5 287.383M288.5 276.561L277 287.383M277 287.383H289.5M277 287.383L290.5 298.204M289.5 287.383L278 298.204M278 298.204H290.5M278 298.204L291.5 309.026M290.5 298.204L279 309.026M279 309.026H291.5M279 309.026L292.5 318.863M291.5 309.026L279.5 318.863H280M292.5 318.863L281 330.176M292.5 318.863H280M281 330.176H293.5M281 330.176L294.5 340.506M293.5 330.176L280 318.863M293.5 330.176L282 340.506M282 340.506H294.5M282 340.506L295 350.343M294.5 340.506L283 350.343M283 350.343H295M283 350.343L295 360.181M295 350.343L285 360.181M295 350.343V360.181M285 360.181H295M285 360.181L295 369.035M295 360.181L286.5 369.035M295 360.181V369.035M286.5 369.035H295M286.5 369.035L295 377.397M295 369.035L288.5 377.397M295 369.035V377.397M288.5 377.397H295M282 434.947V428.06M282 434.947H284.5M282 424.617H268.5M282 424.617V419.698M282 424.617V428.06M251 424.617H253.25M253.25 387.726V424.617M253.25 424.617H260.5M260.5 387.726V424.617M260.5 387.726H268.5M260.5 424.617H268.5M268.5 387.726V391.661M268.5 424.617V419.698M282 391.661H268.5M282 391.661V404.45M268.5 391.661V404.45M282 404.45H268.5M282 404.45V418.715M268.5 404.45V419.698M282 419.698H268.5M282 419.698V418.715M295 406.418H298M298 406.418H292V412.32M298 406.418V412.32M292 414.78H298M292 414.78L290 418.715M292 414.78V412.32M298 414.78L300 418.715H290M298 414.78V412.32M290 418.715H282M300.5 418.715H302M302 418.715H307V421.174H306M302 418.715V421.174M282 428.06H287M302 421.174H306M302 421.174V425.109M306 421.174V425.109M306 425.109H307V427.077H302M306 425.109H302M302 427.077V428.06H300M302 427.077V425.109M287 428.06L284.5 434.947M287 428.06H298M284.5 434.947H298M304 427.568V434.947M304 434.947H300M304 434.947H306M300 428.06V434.947M300 428.06H298M300 434.947H298M298 428.06V434.947M306 427.568V434.947M298 412.32H292M259 192.45V197.861" stroke="black"/>
<path d="M94.6932 425.552H84V389.001H116.348M116.348 389.001H177.948V392.708V400.346V414.476V425.552H170.31H164.084M116.348 389.001V425.552M137.848 425.552C140.733 425.552 143.6 425.552 146.462 425.552M120.663 425.552H111.879M146.462 425.552C145.747 426.923 145.343 428.481 145.343 430.134C145.343 435.618 149.789 440.064 155.273 440.064C160.757 440.064 165.202 435.618 165.202 430.134C165.202 424.65 160.757 420.205 155.273 420.205C151.442 420.205 148.118 422.374 146.462 425.552ZM156.943 407.602L162.29 392.708H173.747V422.496H166.656C165.272 418.834 161.403 416.667 157.026 416.667L156.943 407.602ZM113.407 430.134C113.407 435.618 108.961 440.064 103.477 440.064C97.9932 440.064 93.5475 435.618 93.5475 430.134C93.5475 424.65 97.9932 420.205 103.477 420.205C108.961 420.205 113.407 424.65 113.407 430.134ZM139.376 430.134C139.376 435.618 134.931 440.064 129.447 440.064C123.963 440.064 119.517 435.618 119.517 430.134C119.517 424.65 123.963 420.205 129.447 420.205C134.931 420.205 139.376 424.65 139.376 430.134ZM108.06 430.135C108.06 432.666 106.008 434.717 103.477 434.717C100.946 434.717 98.8943 432.666 98.8943 430.135C98.8943 427.604 100.946 425.552 103.477 425.552C106.008 425.552 108.06 427.604 108.06 430.135ZM134.029 430.135C134.029 432.666 131.977 434.717 129.446 434.717C126.915 434.717 124.863 432.666 124.863 430.135C124.863 427.604 126.915 425.552 129.446 425.552C131.977 425.552 134.029 427.604 134.029 430.135ZM159.855 430.135C159.855 432.666 157.803 434.717 155.272 434.717C152.741 434.717 150.689 432.666 150.689 430.135C150.689 427.604 152.741 425.552 155.272 425.552C157.803 425.552 159.855 427.604 159.855 430.135Z" stroke="black"/>
</svg>
