<svg width="846" height="457" viewBox="0 0 846 457" fill="none" xmlns="http://www.w3.org/2000/svg">
<ellipse cx="371.275" cy="180.5" rx="1" ry="0.5" fill="#D9D9D9"/>
<path fill-rule="evenodd" clip-rule="evenodd" d="M206.084 1.0384C205.941 1.09072 201.055 2.49109 195.224 4.15002C179.282 8.68566 166.514 12.5417 141.831 20.275C129.53 24.1288 115.044 28.6607 109.64 30.3458C104.236 32.0308 99.673 33.5394 99.5001 33.6986C99.2537 33.9249 99.2208 56.1383 99.3486 136.386L99.5117 238.785L101.602 238.937C102.752 239.02 110.441 239.441 118.69 239.871C133.537 240.646 133.732 240.663 138.281 241.589C143.522 242.656 143.469 242.664 144.522 240.643C145.229 239.288 145.692 238.843 147.131 238.137C148.414 237.507 149.441 236.466 149.252 235.987C149.174 235.789 148.507 235.486 147.77 235.314C146.143 234.935 144.997 234.005 144.168 232.39C143.681 231.441 143.499 230.549 143.331 228.281C143.132 225.606 143.033 225.219 142.049 223.259L140.982 221.136L141.213 218.296C141.402 215.959 141.365 215.088 141.002 213.377C140.088 209.062 140.453 208.118 143.575 206.734C144.63 206.267 145.902 205.581 146.4 205.211C147.492 204.401 148.915 202.41 150.228 199.854C151.411 197.553 153.823 195.224 156.341 193.954C158.755 192.736 160.877 192.576 165.051 193.296C168.559 193.901 169.446 193.841 171.436 192.862C172.517 192.33 173.048 192.233 174.668 192.272C176.224 192.309 176.776 192.217 177.462 191.806L178.316 191.294L177.749 190.313C177.075 189.146 177.207 188.642 178.244 188.42C179.273 188.2 179.587 187.788 180.728 185.165C181.846 182.592 181.905 181.879 181.156 180.039C180.859 179.307 180.615 178.546 180.615 178.346C180.615 178.147 181.074 177.755 181.636 177.477C182.197 177.198 183.008 176.474 183.437 175.867C184.333 174.601 184.623 174.452 186.201 174.452C187.269 174.452 187.406 174.531 188.175 175.593C189.144 176.93 189.896 177.193 191.123 176.624C192.449 176.009 193.04 176.104 195.668 177.357C199.621 179.242 200.477 180.464 200.138 183.744C199.985 185.222 200.025 185.456 200.5 185.874C200.944 186.265 201.275 186.315 202.486 186.177C205.229 185.863 205.566 185.177 203.889 183.324C202.609 181.91 200.095 177.967 198.874 175.458C197.412 172.457 196.769 171.865 193.115 170.157C189.723 168.572 189.143 168.031 189.773 167.033C189.947 166.756 190.547 166.299 191.106 166.016C191.664 165.734 192.655 165.196 193.307 164.822C194.826 163.949 195.73 163.963 197.98 164.895C201.408 166.314 204.126 166.735 205.925 166.125C207.034 165.749 207.652 164.479 207.871 162.128C208.082 159.865 208.458 158.607 208.922 158.607C209.11 158.607 211.103 160.729 213.351 163.323C219.311 170.197 220.622 171.464 222.784 172.433C225.193 173.513 227.068 173.676 228.966 172.969C229.748 172.678 230.588 172.44 230.832 172.44C231.344 172.44 234.318 175.361 234.953 176.488C235.188 176.905 235.458 178.061 235.553 179.056C235.882 182.524 236.496 183.348 238.978 183.65C240.158 183.793 240.63 184.003 241.486 184.762C243.492 186.542 244.008 186.595 250.168 185.658C253.434 185.161 254.887 185.064 258.018 185.139C262.339 185.242 262.481 185.299 263.779 187.446C264.497 188.632 265.633 189.557 267.111 190.158C269.323 191.057 269.608 191.968 267.956 192.856C266.438 193.671 266.059 195.414 266.849 197.945C267.06 198.624 267.234 199.591 267.234 200.093C267.234 200.983 267.194 201.02 265.747 201.483C263.848 202.09 263.614 202.273 263.614 203.154C263.614 204.289 264.478 204.955 265.772 204.819C266.57 204.734 267.439 204.924 269.157 205.558C271.882 206.563 273.985 207.613 273.985 207.613C273.985 207.613 274.743 210.228 275.614 210.769C277.169 211.737 277.835 212.518 277.835 213.373C277.835 214.267 277.242 214.294 275.728 213.47C273.128 212.055 271.639 212.215 270.188 214.066C269.601 214.815 269.521 215.105 269.664 215.974C269.884 217.314 270.827 219.094 272.736 221.776C273.681 223.103 274.227 224.106 274.134 224.343C274.05 224.556 273.525 224.957 272.967 225.234C271.687 225.869 270.658 227.046 270.468 228.093C270.12 230.009 269.886 232.526 270.002 233.117C270.214 234.197 271.59 235.185 275.895 237.351C280.609 239.722 281.096 240.039 283.838 242.514C286.77 245.161 288.289 245.364 293.09 243.748C294.644 243.225 295.872 243.042 299.271 242.827C304.722 242.481 306.171 242.72 307.34 244.155C308.263 245.289 308.639 245.354 309.331 244.499C309.733 244.002 309.895 243.94 310.116 244.199C310.331 244.452 310.738 244.47 311.92 244.28L313.445 244.035L315.614 245.557C319.012 247.941 320.275 248.255 322.358 247.229C323.128 246.851 324.221 245.554 324.485 244.707C324.578 244.408 324.928 243.99 325.262 243.777C325.662 243.522 325.977 242.953 326.185 242.11C326.726 239.915 327.397 239.698 330.845 240.602C334.748 241.625 336.425 242.517 341.689 246.368L346.694 250.029L348.449 253.047L350.204 256.065L350.301 259.209C350.379 261.726 350.536 262.779 351.087 264.492C351.466 265.669 352.01 267.695 352.295 268.994C352.668 270.691 353.014 271.596 353.527 272.212C355.024 274.012 355.316 274.528 355.643 275.964C356.034 277.678 356.468 278.582 357.528 279.894C357.946 280.412 358.405 281.246 358.547 281.748C358.873 282.894 359.782 283.727 361.048 284.04C361.587 284.173 362.851 284.749 363.855 285.32L365.683 286.358L365.791 287.815C365.861 288.752 366.196 289.888 366.729 290.997C367.297 292.179 367.611 293.284 367.727 294.513C367.832 295.621 368.188 296.975 368.661 298.058L369.425 299.809L368.963 301.611C368.52 303.342 368.52 303.498 368.964 305.519C369.218 306.677 369.585 308.002 369.78 308.465C370.286 309.664 372.383 312.149 374.602 314.179C375.681 315.167 384.466 321.457 394.85 328.676C405.511 336.088 413.744 341.986 414.511 342.76C415.236 343.493 416.826 345.45 418.044 347.11C419.262 348.77 420.821 350.656 421.509 351.301C422.633 352.356 437.106 362.627 439.939 364.381C441.548 365.377 442.832 365.335 445.124 364.212C447.973 362.817 447.824 362.748 451.389 367.102C452.011 367.861 454.317 369.984 456.514 371.82C461.476 375.965 465.198 378.212 469.572 379.704C471.271 380.284 473.321 381.166 474.126 381.665C474.932 382.164 477.728 384.468 480.34 386.785C484.62 390.583 485.905 391.538 493.375 396.472C502.105 402.238 503.247 402.818 505.858 402.818C507.345 402.818 508.324 402.416 509.919 401.148C511.603 399.81 512.201 399.81 515.291 401.152C516.765 401.792 518.19 402.316 518.458 402.317C519.596 402.32 520.929 402.906 522.399 404.049C523.362 404.797 524.437 405.384 525.176 405.565C527.191 406.059 528.308 406.772 529.688 408.447C530.835 409.839 531.311 410.187 533.355 411.133C535.435 412.094 535.988 412.238 538.184 412.389C541.889 412.644 544.836 414.427 545.488 416.347C545.488 416.347 544.968 416.756 544.39 417.973C544.047 418.696 543.203 420.015 542.516 420.903C541.828 421.791 540.915 423.123 540.486 423.862C539.741 425.147 539.71 425.319 539.779 427.782C539.896 431.927 539.803 433.257 539.248 435.366C538.444 438.418 538.619 439.545 540.081 440.755C541.031 441.541 540.979 442.291 539.886 443.564C538.644 445.01 538.477 445.766 539.269 446.355C539.755 446.716 540.165 446.783 541.185 446.669C542.213 446.555 542.804 446.654 544.029 447.149C546.439 448.122 547.299 448.201 548.176 447.53C548.822 447.036 549.339 446.941 552.16 446.795C553.942 446.703 556.041 446.449 556.823 446.23C558.943 445.637 560.194 445.709 561.376 446.491C561.93 446.858 562.73 447.3 563.154 447.474C563.787 447.734 564.019 448.078 564.446 449.387C564.966 450.977 564.973 450.984 566.73 451.807C568.202 452.496 568.555 452.785 568.875 453.567C569.55 455.218 569.795 455.573 570.461 455.868C571.019 456.115 571.351 456.046 572.743 455.393C573.64 454.972 574.584 454.628 574.842 454.627C576.009 454.624 577.335 454.013 578.596 452.897C581.003 450.768 581.604 450.704 582.309 452.5C582.546 453.104 582.956 453.788 583.22 454.021C583.675 454.421 583.742 454.401 584.459 453.654C585.474 452.597 586.554 452.4 587.551 453.091C588.114 453.481 588.707 453.622 589.777 453.622C590.981 453.622 591.346 453.73 591.87 454.24C592.219 454.579 592.505 455.089 592.505 455.372C592.505 456.287 592.877 455.916 593.591 454.289C594.828 451.472 594.967 448.824 594.077 445.065C593.661 443.308 593.747 442.034 594.41 440.148C595.422 437.27 597.745 433.822 600.016 431.826C601.215 430.772 603.861 427.228 604.821 425.39C605.2 424.665 605.939 422.826 606.462 421.304C607.525 418.211 607.681 418.059 610.19 417.661C612.124 417.355 612.61 416.99 613.052 415.51C613.261 414.811 613.885 413.557 614.438 412.724C616.192 410.085 617.52 405.709 617.177 403.699C616.884 401.984 615.102 400.069 611.677 397.788C610.361 396.912 609.782 396.316 609.11 395.147C608.634 394.318 607.824 393.217 607.31 392.702C606.512 391.903 606.348 391.533 606.178 390.165C606.038 389.035 605.736 388.181 605.152 387.268C604.355 386.02 604.33 385.899 604.467 383.954C604.559 382.649 604.483 381.426 604.254 380.494C603.707 378.264 603.768 377.781 604.682 377.148C605.376 376.667 605.459 376.491 605.309 375.811C605.215 375.38 605.117 374.634 605.091 374.153C605.048 373.34 605.107 373.27 605.95 373.131C607.152 372.934 607.826 372.556 608.627 371.63C609.619 370.484 609.749 369.345 609.038 368.05C608.715 367.461 607.961 366.047 607.364 364.908C606.767 363.769 606.132 362.665 605.953 362.456C605.542 361.974 604.167 361.976 603.509 362.46C602.855 362.941 602.22 362.928 601.791 362.426C601.028 361.531 600.297 361.518 597.892 362.355C595.416 363.216 594.35 363.245 590.481 362.557C589.669 362.412 589.144 362.282 588.825 362C588.825 362 588.333 360.657 588.561 358.618C588.887 355.71 588.652 354.878 587.528 354.953C587.048 354.984 586.792 354.85 586.68 354.508C586.453 353.813 585.177 353.37 582.797 353.158C580.635 352.966 576.778 351.808 575.736 351.039C575.048 350.531 574.616 348.831 574.906 347.775C575.036 347.302 575.302 347.074 575.826 346.984C576.488 346.871 576.598 346.706 576.912 345.35C577.104 344.52 577.368 342.801 577.5 341.53C577.769 338.922 578.2 337.133 578.622 336.878C578.778 336.783 579.231 336.769 579.628 336.846C580.804 337.075 581.184 336.564 580.985 335.019C580.785 333.458 580.962 333.301 583.242 333.025C584.44 332.879 585.032 332.617 586.474 331.592C588.666 330.033 589.599 329.63 591.01 329.633C591.619 329.634 595.259 330.435 599.098 331.413C605.468 333.035 606.397 333.208 609.699 333.392C612.428 333.543 613.654 333.724 614.679 334.127C616.536 334.855 619.656 334.834 621.981 334.076C623.61 333.546 623.659 333.504 623.584 332.738C623.52 332.084 623.655 331.847 624.36 331.377C627.256 329.443 627.435 329.014 627.714 323.349C627.955 318.445 628.151 317.464 628.838 317.721C629.08 317.811 629.514 317.63 629.902 317.276L630.557 316.678L631.167 317.432C631.503 317.847 632.033 318.461 632.345 318.796C632.89 319.382 632.925 319.387 633.264 318.936C633.458 318.679 633.616 318.248 633.616 317.979C633.616 317.71 633.902 317.232 634.252 316.917C635.251 316.017 635.34 315.171 634.592 313.689C633.822 312.16 633.414 310.616 633.851 310.879C634.272 311.132 635.039 312.697 635.522 314.289C635.753 315.049 636.163 315.949 636.434 316.287L636.927 316.902L637.986 316.438C638.762 316.097 639.046 315.824 639.046 315.418C639.046 315.113 638.115 313.579 636.978 312.01C635.191 309.545 634.909 309.013 634.909 308.106C634.909 307.48 634.753 306.93 634.521 306.744C634.308 306.571 634.133 306.275 634.133 306.084C634.133 305.459 634.658 305.721 635.202 306.618C635.856 307.696 636.264 307.718 637.414 306.736C638.304 305.976 638.313 305.974 640.588 306.141C642.782 306.302 642.881 306.287 643.184 305.735C643.755 304.698 643.341 303.199 642.23 302.283C641.68 301.829 640.949 301.468 640.576 301.466C640.21 301.464 637.883 301.864 635.405 302.355C630.294 303.367 629.966 303.344 627.832 301.814C626.269 300.692 626.423 300.498 629.492 299.717C631.376 299.237 631.914 299.192 633.142 299.413C634.726 299.698 635.401 299.596 636.641 298.884C637.444 298.424 642.687 297.452 644.42 297.442C644.887 297.44 645.867 297.733 646.598 298.093C648.423 298.992 651.83 299.953 653.196 299.953C654.889 299.953 655.853 299.378 655.853 298.368C655.853 297.683 655.599 297.333 654.301 296.221C653.165 295.249 652.75 294.721 652.75 294.25C652.75 293.676 652.827 293.624 653.461 293.77C655.312 294.194 656.264 294.218 656.579 293.848C656.754 293.643 656.92 292.732 656.948 291.824C656.994 290.331 656.897 289.985 655.938 288.203C655.355 287.119 654.667 285.5 654.41 284.605C654.153 283.709 653.559 282.354 653.089 281.593C652.618 280.832 652.234 280.021 652.233 279.79C652.232 279.12 653.82 278.323 655.157 278.323C656.917 278.323 657.112 277.919 656.954 274.602C656.81 271.578 657.041 270.417 658.106 268.82C658.791 267.792 660.41 266.754 661.328 266.754C661.548 266.754 662.168 267.094 662.704 267.509C663.241 267.924 663.934 268.263 664.243 268.263C664.841 268.263 665.827 269.159 666.595 270.401C666.852 270.816 667.652 271.741 668.374 272.456C669.095 273.171 670.112 274.244 670.633 274.84C671.469 275.797 671.705 275.923 672.66 275.923C673.613 275.923 673.865 275.789 674.784 274.797C677.779 271.562 677.21 271.912 681.767 270.509C685.652 269.312 686.129 269.098 687.989 267.708C689.27 266.751 690.823 265.884 692.255 265.324C695.37 264.106 697.213 262.963 698.589 261.397C699.685 260.149 699.799 259.879 700.339 257.242C700.858 254.71 700.979 254.407 701.526 254.273C702.634 254.003 703.471 254.436 705.381 256.267C707.925 258.707 714.535 266.047 714.541 266.44C714.549 266.928 714.177 266.814 713.512 266.125C712.436 265.011 711.185 265.423 711.185 266.891C711.185 267.983 711.861 268.486 713.943 268.943C714.915 269.156 716.044 269.497 716.452 269.699C717.114 270.028 717.18 270.169 717.064 271.006C716.942 271.893 715.931 273.293 715.413 273.293C715.023 273.293 711.182 276.497 710.357 277.511C709.563 278.485 708.957 278.909 707.775 279.317C707.363 279.459 706.714 280.113 706.182 280.922C705.361 282.17 705.167 282.313 703.904 282.599C700.404 283.392 699.127 285.286 700.696 287.356C701.2 288.02 701.278 288.309 701.084 288.804C700.655 289.902 700.809 290.157 702.302 290.822C703.63 291.413 703.893 291.449 705.204 291.218C706.613 290.97 706.661 290.981 707.36 291.709C707.753 292.118 708.192 292.924 708.336 293.5C708.48 294.075 708.837 295.308 709.13 296.241C709.612 297.778 709.77 297.997 710.827 298.6C711.847 299.181 712.194 299.249 713.593 299.137C714.473 299.067 716.531 298.605 718.166 298.11C720.128 297.517 721.931 297.154 723.467 297.043C725.607 296.888 725.862 296.811 726.649 296.087C727.504 295.301 727.51 295.3 730.011 295.384C731.389 295.429 733.273 295.486 734.197 295.509L735.878 295.552L736.542 294.226C737.514 292.288 737.602 292.249 738.677 293.294C739.581 294.175 739.661 294.2 740.978 294.04C742.222 293.89 742.397 293.932 742.971 294.527C743.317 294.886 744.054 295.299 744.607 295.443C745.393 295.649 745.694 295.895 745.983 296.568C746.466 297.694 748.535 298.862 750.457 299.096C751.727 299.25 751.92 299.21 752.343 298.702C752.602 298.391 752.815 297.838 752.817 297.473C752.823 296.585 753.188 296.073 753.684 296.259C754.323 296.497 754.882 298.117 754.882 299.732C754.882 301.46 755.514 302.368 756.511 302.075C758.334 301.538 759.96 300.179 760.704 298.57C761.637 296.553 762.033 296.326 764.252 296.54C765.284 296.64 767.023 296.77 768.115 296.83C769.943 296.932 770.114 296.899 770.269 296.423C770.477 295.786 770.047 295.25 768.984 294.817C768.018 294.425 767.293 293.763 767.293 293.273C767.293 293.077 768.078 292.53 769.038 292.057C771.199 290.992 772.297 289.892 772.843 288.246C773.221 287.108 773.417 286.896 774.744 286.187C775.86 285.589 776.616 285.376 777.824 285.318C778.764 285.272 779.432 285.344 779.443 285.491C779.453 285.63 779.175 285.778 778.826 285.821C778.095 285.91 777.513 286.479 777.758 286.864C777.849 287.008 778.49 287.126 779.182 287.126C780.163 287.126 780.873 287.354 782.406 288.158C785.051 289.546 785.942 289.316 786.859 287.009C787.551 285.271 787.149 283.987 785.587 282.934C784.576 282.252 784.566 282.229 784.732 281.016C784.865 280.035 784.794 279.615 784.378 278.929C783.826 278.019 783.88 277.453 784.545 277.205C784.815 277.104 785.519 277.588 786.664 278.663C788.045 279.96 788.594 280.308 789.498 280.456C790.145 280.563 791.226 281.054 792.056 281.62C793.535 282.627 794.543 282.834 795.515 282.327C796.116 282.015 796.769 280.65 796.769 279.707C796.769 278.87 797.301 278.691 798.297 279.192C799.015 279.553 799.173 279.555 799.853 279.213C800.516 278.88 800.631 278.653 800.782 277.383C800.877 276.586 801.186 275.455 801.469 274.869C801.94 273.892 802.123 273.762 803.669 273.297C804.597 273.019 805.494 272.79 805.663 272.79C805.832 272.79 806.911 272.227 808.062 271.538C809.212 270.849 811.011 269.987 812.059 269.621C814.609 268.731 815.945 267.942 816.739 266.858C818.01 265.12 816.956 264.061 814.293 264.399C813.131 264.546 813.032 264.51 812.242 263.642C811.785 263.14 811.273 262.73 811.103 262.73C810.603 262.73 807.826 264.022 806.958 264.658C805.917 265.422 805.819 265.402 805.815 264.428C805.806 262.703 804.948 262.425 800.778 262.793C796.013 263.215 795.177 262.817 792.601 258.903C792.19 258.279 791.727 257.917 791.21 257.815C789.545 257.488 789.529 257.474 789.529 256.327C789.529 255.125 789.296 254.934 787.833 254.934C786.483 254.934 785.035 254.259 784.503 253.383C784.242 252.952 783.801 252.379 783.523 252.11C783.023 251.623 783.014 251.623 782.403 252.181C782.065 252.491 781.667 253.095 781.521 253.524C781.281 254.224 781.072 254.349 779.509 254.733C778.55 254.968 777.49 255.239 777.153 255.335C776.596 255.495 776.562 255.457 776.766 254.907C777.036 254.178 777.039 252.229 776.774 249.526C776.495 246.678 776.137 245.667 775.248 245.22C774.364 244.776 773.691 244.931 772.464 245.864C770.585 247.293 770.464 247.304 769.28 246.14C768.524 245.397 768.066 245.133 767.691 245.223C766.472 245.513 764.555 245.633 764.259 245.437C764.045 245.296 763.908 244.228 763.843 242.217C763.728 238.664 763.466 238.005 760.498 233.807C758.474 230.944 757.73 230.482 757.46 231.921C757.33 232.615 757.306 232.63 757.159 232.109C757.071 231.798 756.81 231.544 756.578 231.544C756.347 231.544 756.053 231.798 755.924 232.109C755.546 233.025 755.625 232.116 756.069 230.451C756.919 227.258 755.664 225.182 753.55 226.282C752.975 226.582 752.052 228.352 752.043 229.174C752.04 229.462 752.401 230.231 752.846 230.883C753.865 232.38 753.795 233.306 752.429 236.393C750.703 240.296 749.389 240.525 745.874 237.535C745.171 236.937 744.94 236.858 744.63 237.108C744.307 237.369 744.278 238.256 744.432 243.095C744.593 248.16 744.567 248.813 744.194 249.114C743.835 249.405 743.636 249.344 742.775 248.681C742.225 248.257 741.626 247.736 741.445 247.524C740.943 246.935 740.768 247.032 739.849 248.412C739.066 249.586 738.972 249.65 738.655 249.229C738.466 248.977 738.14 248.206 737.931 247.514C737.413 245.801 737.245 245.6 736.314 245.574C734.947 245.536 734.639 245.998 734.837 247.791C735.045 249.686 734.72 250.007 733.906 248.71C733.17 247.537 732.745 247.215 731.674 247.017C731.21 246.932 730.234 246.501 729.505 246.06C728.288 245.324 727.998 245.258 725.987 245.254L723.794 245.251L722.855 244.206C721.5 242.701 720.403 242.123 719.343 242.355C718.871 242.459 718.369 242.614 718.226 242.7C718.083 242.786 717.819 242.683 717.638 242.471C717.373 242.161 717.375 241.683 717.647 239.983C718.083 237.252 717.929 236.475 716.434 233.877C713.977 229.607 713.559 229.496 709.181 231.941C707.551 232.851 705.829 233.657 705.353 233.732C704.543 233.86 704.442 233.793 703.764 232.678C701.903 229.615 701.063 229.119 696.958 228.65C693.642 228.272 692.809 227.936 692.314 226.776C691.837 225.656 692.431 225.068 696.253 222.873C698.137 221.792 700.202 220.487 700.842 219.974C701.482 219.461 702.437 218.844 702.964 218.604C704.334 217.979 705.125 217.118 706.072 215.222C707.14 213.084 708.213 211.832 710.848 209.649C713.319 207.603 714.026 207.275 716.455 207.044C718.727 206.828 719.921 206.351 720.08 205.592C720.147 205.272 720.27 204.257 720.352 203.337C720.636 200.166 720.947 199.854 723.824 199.854C725.741 199.854 726.466 199.528 729.577 197.267C731.8 195.652 732.894 195.028 734.068 194.708C736.292 194.101 737.394 193.33 737.767 192.119C738.194 190.733 738.169 190.626 737.376 190.432C736.991 190.338 735.658 189.534 734.412 188.645C730.843 186.096 729.8 185.518 728.781 185.522C727.825 185.525 727.851 185.509 723.508 188.952C721.008 190.934 720.21 191.201 718.037 190.781C716.084 190.403 715.845 190.523 715.047 192.279C714.756 192.918 714.247 193.724 713.916 194.069C713.204 194.811 712.691 195.76 711.928 197.743C711.221 199.581 710.445 200.357 709.315 200.357C708.179 200.357 707.412 199.801 707.213 198.833C707.017 197.879 705.495 196.333 704.751 196.333C703.988 196.333 700.078 198.185 699.212 198.956C698.589 199.511 697.653 201.189 697.137 202.673C697.055 202.91 696.43 203.378 695.748 203.715C694.221 204.468 694.035 204.677 692.228 207.651C691.43 208.965 690.569 210.28 690.315 210.574C689.555 211.454 686.321 213.567 685.014 214.037C684.107 214.364 683.554 214.796 682.853 215.724C682.336 216.41 681.588 217.135 681.191 217.334C680.794 217.534 679.323 217.767 677.922 217.853C676.329 217.95 674.307 218.295 672.53 218.771C669.802 219.502 669.617 219.597 667.995 221.074C665.424 223.417 663.561 224.715 662.197 225.115C659.879 225.793 658.915 227.48 659.865 229.196C660.121 229.659 660.274 230.094 660.203 230.162C660.133 230.23 659.503 230.178 658.804 230.045C657.681 229.831 657.389 229.874 656.294 230.416C655.322 230.896 654.815 230.996 653.944 230.88C653.023 230.757 652.638 230.849 651.693 231.42C650.254 232.287 649.13 233.3 649.13 233.728C649.13 233.91 648.86 234.059 648.53 234.059C647.754 234.059 645.23 235.315 644.886 235.872C644.684 236.2 644.765 236.491 645.233 237.106L645.844 237.91L645.449 241.03C645.117 243.653 644.956 244.251 644.442 244.787C643.486 245.782 641.69 246.7 640.273 246.918C638.824 247.141 638.237 247.559 637.443 248.934C637.033 249.642 636.562 250.009 635.548 250.409C633.697 251.14 633.058 251.912 632.079 254.603C631.616 255.873 631.046 257.079 630.811 257.283C630.576 257.487 629.705 257.965 628.875 258.346C628.045 258.726 627.121 259.359 626.823 259.752C626.524 260.145 626.127 260.467 625.94 260.467C625.711 260.467 625.601 260.831 625.601 261.591C625.601 262.217 625.376 263.136 625.093 263.666C624.628 264.539 624.608 264.833 624.849 267.257C625.131 270.079 625.574 271.088 626.596 271.236C627.003 271.295 627.154 271.497 627.161 271.991C627.166 272.361 627.332 272.948 627.529 273.293C627.847 273.852 627.827 274.026 627.349 274.854C626.912 275.612 626.872 275.857 627.133 276.164C627.957 277.129 626.571 277.344 624.705 276.541C623.504 276.024 623.476 276.023 622.927 276.495C622.62 276.758 622.059 277.16 621.679 277.389C620.998 277.8 620.935 277.776 616.249 275.379C611.162 272.776 610.212 272.124 606.554 268.725C605.151 267.421 603.886 266.461 603.452 266.369C601.682 265.998 601.598 265.84 602.884 265.294C603.544 265.013 604.408 264.389 604.803 263.907C606.406 261.953 607.741 257.063 607.026 255.764C606.796 255.347 606.839 255.163 607.25 254.801C607.574 254.516 607.673 254.254 607.523 254.078C607.394 253.926 607.249 253.462 607.201 253.047C607.134 252.474 606.965 252.272 606.496 252.208C606.157 252.161 605.783 252.274 605.666 252.459C605.548 252.644 605.128 252.805 604.731 252.816C604.335 252.826 603.846 252.883 603.644 252.941C603.298 253.041 603.159 252.679 602.709 250.512C602.65 250.224 602.024 249.229 601.32 248.301C600.616 247.373 599.964 246.279 599.872 245.872C599.78 245.464 599.601 245.068 599.474 244.992C599.347 244.915 598.455 245.367 597.492 245.995C596.53 246.623 595.534 247.137 595.278 247.137C595.023 247.137 594.209 246.839 593.47 246.474C592.73 246.109 591.701 245.811 591.183 245.811C590.666 245.811 581.758 246.302 571.389 246.903C549.684 248.16 550 248 550 248C549.002 246.933 547.381 245.018 546.166 239.665C542.857 225.092 541.309 216.797 540.518 209.411C540.096 205.469 539.698 202.102 539.633 201.929C539.542 201.685 537.23 201.615 529.263 201.615H519.011L519.115 190.378C519.187 182.676 519.307 179.113 519.498 179.051C520.44 178.745 520.685 178.256 520.922 176.197C521.344 172.545 522.919 147.173 522.736 146.987C522.64 146.889 519.856 148.231 516.549 149.968C513.242 151.705 510.391 153.072 510.214 153.006C510.037 152.94 507.351 147.75 504.246 141.474C499.554 131.991 498.426 129.905 497.574 129.135C497.011 128.625 494.63 127.047 492.284 125.628C487.16 122.529 486.029 121.418 479.344 112.922C476.933 109.858 474.598 107.054 474.153 106.69C473.284 105.979 472.078 105.808 470.981 106.24C470.625 106.38 466.554 108.543 461.933 111.047C455.615 114.471 453.308 115.603 452.625 115.611C452.126 115.617 440.468 114.633 426.718 113.425L401.717 111.227L387.028 113.554C378.949 114.833 367.844 116.685 362.35 117.669C353.698 119.218 352.258 119.416 351.602 119.152C351.186 118.984 349.916 117.805 348.781 116.532C347.645 115.258 341.88 108.784 335.968 102.144C330.057 95.5046 323.331 88.0915 321.021 85.6708C316.884 81.3351 314.381 78.0922 313.839 76.3651C313.687 75.881 313.503 74.6926 313.43 73.7243C313.275 71.6735 312.588 69.9703 311.542 69.0446C310.579 68.1925 270.498 42.1604 270.149 42.1604C269.984 42.1604 269.84 43.5679 269.769 45.8701C269.64 50.0582 269.484 50.5366 267.59 52.5212C266.509 53.6545 266.47 53.7503 266.616 54.9105C266.811 56.4691 267.048 57.2817 267.858 59.1652C268.221 60.0108 268.703 61.9159 268.93 63.399C269.302 65.8376 269.304 66.2767 268.945 67.989C268.726 69.0302 268.355 70.168 268.12 70.5171C267.714 71.1205 267.606 71.1446 265.926 71.0076C263.874 70.8403 263.184 71.1864 262.637 72.6579C262.156 73.9507 262.553 74.7527 263.861 75.134C265.681 75.6644 265.072 76.7396 261.694 78.9591L259.347 80.5006L257.198 80.5418C255.395 80.5763 254.954 80.6694 254.461 81.1193C253.698 81.8172 251.414 82.2762 249.846 82.0471C248.137 81.7971 248.042 81.2523 249.237 78.5456C249.749 77.3857 250.168 76.3128 250.168 76.1614C250.168 76.01 250.674 75.5477 251.293 75.134C251.911 74.72 252.591 74.1204 252.803 73.8015C253.311 73.0384 253.56 71.4444 253.282 70.7334C253.16 70.4218 251.915 69.3104 250.515 68.2636C247.802 66.234 239.611 58.2884 237.219 55.3645C233.943 51.361 233.563 47.4011 236.123 43.9424C237.545 42.0206 238.296 40.4324 238.929 38.0058C239.366 36.3281 239.812 35.3039 240.552 34.276C241.189 33.3925 241.88 31.9235 242.388 30.3734C242.836 29.0062 243.564 27.3569 244.006 26.7082C244.462 26.0395 244.71 25.4389 244.58 25.3204C243.769 24.5818 215.143 5.98576 214.974 6.08762C214.858 6.15703 214.398 7.3132 213.952 8.65674C213.238 10.8084 213.157 11.3395 213.271 13.1116C213.343 14.2183 213.669 16.2555 213.997 17.6387C214.566 20.0401 214.652 20.2094 215.897 21.3849L217.202 22.6158L215.65 24.1638C214.797 25.0154 213.723 26.1773 213.263 26.7462C212.482 27.7128 210.719 31.2575 210.6 32.1003C210.442 33.2267 210.654 33.8578 211.354 34.3429C212.099 34.8588 212.101 34.8588 212.752 34.36C213.111 34.0854 213.583 33.8608 213.802 33.8608C214.45 33.8608 216.003 32.8568 216.176 32.3251C216.265 32.0537 216.58 31.6113 216.878 31.3417C217.669 30.6247 218.118 31.0817 217.816 32.2964C217.688 32.811 217.468 33.7866 217.327 34.4647C217.009 35.9938 216.77 36.2805 215.641 36.4868C214.769 36.646 214.745 36.6812 214.745 37.8434C214.745 38.4998 214.923 39.699 215.139 40.5086C215.449 41.663 215.477 42.2812 215.269 43.3742C214.909 45.2678 214.902 45.2278 215.79 46.1958C216.737 47.2278 216.697 47.94 215.665 48.4199C214.595 48.9171 213.723 48.4091 213.338 47.0648C213.122 46.3085 212.902 46.0382 212.451 45.9753C210.899 45.759 209.792 46.9793 209.323 49.4257C209.062 50.7808 209.302 51.3452 210.236 51.573C211.264 51.824 211.956 51.5275 211.758 50.9214C211.613 50.4762 211.657 50.4498 212.129 50.6958C213.396 51.3555 213.318 51.7888 211.432 54.5398C206.589 61.6035 206.497 61.717 204.015 63.7142C201.583 65.6709 200.673 66.0889 198.779 66.1168C197.193 66.1402 197.094 66.1045 196.123 65.154C195.098 64.1505 194.319 62.1201 194.319 60.4519C194.319 59.1021 195.122 57.2902 196.15 56.3192C197.962 54.6089 198.016 51.5564 196.281 48.9511C195.959 48.4669 195.311 47.0781 194.842 45.8649C194.021 43.7449 193.993 43.5538 194.119 40.9562C194.246 38.3635 194.315 38.0981 195.836 34.4254C196.708 32.3198 197.422 30.2733 197.422 29.8775C197.422 29.4672 197.776 28.6818 198.246 28.051C199.224 26.7397 200.007 24.8466 200.007 23.7973C200.007 23.3836 200.356 22.0652 200.783 20.8675C201.21 19.6699 201.559 18.4176 201.559 18.0849C201.559 17.2798 201.848 16.7871 203.888 14.1177C204.839 12.8727 205.825 11.458 206.079 10.9738C206.334 10.4897 206.7 10.003 206.894 9.89238C207.107 9.7714 207.247 9.25507 207.247 8.59436C207.247 7.99125 207.463 6.89318 207.727 6.15477C208.772 3.23681 209.075 2.15081 208.915 1.89955C208.63 1.45162 206.62 0.840217 206.084 1.0384ZM726.876 301.111C725.983 301.582 725.147 303.373 725.148 304.815C725.148 305.455 725.447 306.478 725.915 307.441C726.583 308.815 726.833 309.081 727.854 309.507C728.84 309.918 729.026 310.105 729.026 310.691C729.026 311.073 728.632 312.011 728.151 312.775C727.488 313.827 727.307 314.357 727.402 314.963C727.569 316.024 728.018 316.144 729.05 315.403C730.088 314.658 730.577 314.625 730.577 315.3C730.577 316.079 731.644 316.446 732.869 316.089C733.419 315.929 734.292 315.798 734.809 315.798C736.904 315.798 737.469 313.766 735.878 311.957C734.575 310.477 734.654 309.784 736.249 308.724C737.508 307.887 737.911 307.274 737.646 306.603C737.422 306.036 736.639 305.948 735.557 306.37C734.597 306.743 734.455 306.736 733.194 306.253C731.057 305.433 730.563 305 729.754 303.235C729.111 301.831 728.206 300.707 727.733 300.723C727.662 300.726 727.276 300.9 726.876 301.111ZM758.096 310.642C757.396 311.126 756.579 311.522 756.28 311.522C755.982 311.522 755.527 311.749 755.269 312.026C754.891 312.433 754.854 312.646 755.079 313.126C755.414 313.841 757.322 314.792 758.423 314.792C759.299 314.792 759.424 314.589 760.181 311.933C760.871 309.515 760.266 309.141 758.096 310.642Z" fill="#D6D6D6"/>
<path d="M273.985 207.613C273.985 207.613 271.882 206.563 269.157 205.558C267.439 204.924 266.57 204.734 265.772 204.819C264.478 204.955 263.614 204.289 263.614 203.154C263.614 202.273 263.848 202.09 265.747 201.483C267.194 201.02 267.234 200.983 267.234 200.093C267.234 199.591 267.06 198.624 266.849 197.945C266.059 195.414 266.438 193.671 267.956 192.856C269.608 191.968 269.323 191.057 267.111 190.158C265.633 189.557 264.497 188.632 263.779 187.446C262.481 185.299 262.339 185.242 258.018 185.139C254.887 185.064 253.434 185.161 250.168 185.658C244.008 186.595 243.492 186.542 241.486 184.762C240.63 184.003 240.158 183.793 238.978 183.65C236.496 183.348 235.882 182.524 235.553 179.056C235.458 178.061 235.188 176.905 234.953 176.488C234.318 175.361 231.344 172.44 230.832 172.44C230.588 172.44 229.748 172.678 228.966 172.969C227.068 173.676 225.193 173.513 222.784 172.433C220.622 171.464 219.311 170.197 213.351 163.323C211.103 160.729 209.11 158.607 208.922 158.607C208.458 158.607 208.082 159.865 207.871 162.128C207.652 164.479 207.034 165.749 205.925 166.125C204.126 166.735 201.408 166.314 197.98 164.895C195.73 163.963 194.826 163.949 193.307 164.822C192.655 165.196 191.664 165.734 191.106 166.016C190.547 166.299 189.947 166.756 189.773 167.033C189.143 168.031 189.723 168.572 193.115 170.157C196.769 171.865 197.412 172.457 198.874 175.458C200.095 177.967 202.609 181.91 203.889 183.324C205.566 185.177 205.229 185.863 202.486 186.177C201.275 186.315 200.944 186.265 200.5 185.874C200.025 185.456 199.985 185.222 200.138 183.744C200.477 180.464 199.621 179.242 195.668 177.357C193.04 176.104 192.449 176.009 191.123 176.624C189.895 177.193 189.144 176.93 188.175 175.593C187.406 174.531 187.268 174.452 186.201 174.452C184.623 174.452 184.333 174.601 183.437 175.867C183.008 176.474 182.197 177.198 181.636 177.477C181.074 177.755 180.615 178.147 180.615 178.346C180.615 178.546 180.859 179.307 181.156 180.039C181.905 181.879 181.846 182.592 180.728 185.165C179.587 187.788 179.273 188.2 178.244 188.42C177.207 188.642 177.075 189.146 177.749 190.313L178.316 191.294L177.462 191.806C176.776 192.217 176.224 192.309 174.668 192.272C173.048 192.233 172.517 192.33 171.436 192.862C169.446 193.841 168.559 193.901 165.051 193.296C160.877 192.576 158.755 192.736 156.341 193.954C153.823 195.224 151.411 197.553 150.228 199.854C148.915 202.41 147.492 204.401 146.4 205.211C145.902 205.581 144.63 206.267 143.575 206.734C140.453 208.118 140.088 209.062 141.002 213.377C141.365 215.088 141.402 215.959 141.213 218.296L140.982 221.136L142.049 223.259C143.033 225.219 143.132 225.606 143.331 228.281C143.499 230.549 143.681 231.441 144.168 232.39C144.997 234.005 146.143 234.935 147.77 235.314C148.507 235.486 149.174 235.789 149.252 235.987C149.441 236.466 148.414 237.507 147.131 238.137C145.692 238.843 145.229 239.288 144.522 240.643C143.469 242.664 143.522 242.656 138.281 241.589C133.732 240.663 133.537 240.646 118.69 239.871C110.441 239.441 102.752 239.02 101.602 238.937L99.5117 238.785L99.3486 136.386C99.2208 56.1383 99.2537 33.9249 99.5001 33.6986C99.673 33.5394 104.236 32.0308 109.64 30.3458C115.044 28.6607 129.53 24.1288 141.831 20.275C166.514 12.5417 179.282 8.68566 195.224 4.15002C201.055 2.49109 205.941 1.09072 206.084 1.0384C206.62 0.840217 208.63 1.45162 208.915 1.89955C209.075 2.15081 208.772 3.23681 207.727 6.15477C207.463 6.89318 207.247 7.99125 207.247 8.59436C207.247 9.25507 207.107 9.7714 206.894 9.89238C206.7 10.003 206.334 10.4897 206.079 10.9738C205.825 11.458 204.839 12.8727 203.888 14.1177C201.848 16.7871 201.559 17.2798 201.559 18.0849C201.559 18.4176 201.21 19.6699 200.783 20.8675C200.356 22.0652 200.007 23.3836 200.007 23.7973C200.007 24.8466 199.224 26.7397 198.246 28.051C197.776 28.6818 197.422 29.4672 197.422 29.8775C197.422 30.2733 196.708 32.3198 195.836 34.4254C194.315 38.0981 194.246 38.3635 194.119 40.9562C193.993 43.5538 194.021 43.7449 194.842 45.8649C195.311 47.0781 195.959 48.4669 196.281 48.9511C198.016 51.5564 197.962 54.6089 196.15 56.3192C195.122 57.2902 194.319 59.1021 194.319 60.4519C194.319 62.1201 195.098 64.1505 196.123 65.154C197.094 66.1045 197.193 66.1402 198.779 66.1168C200.673 66.0889 201.583 65.6709 204.015 63.7142C206.497 61.717 206.589 61.6035 211.432 54.5398C213.318 51.7888 213.396 51.3555 212.129 50.6958C211.657 50.4498 211.613 50.4762 211.758 50.9214C211.956 51.5275 211.264 51.824 210.236 51.573C209.302 51.3452 209.062 50.7808 209.323 49.4257C209.792 46.9793 210.899 45.759 212.451 45.9753C212.902 46.0382 213.122 46.3085 213.338 47.0648C213.723 48.4091 214.595 48.9171 215.665 48.4199C216.697 47.94 216.737 47.2278 215.79 46.1958C214.902 45.2278 214.909 45.2678 215.269 43.3742C215.477 42.2812 215.449 41.663 215.139 40.5086C214.923 39.699 214.745 38.4998 214.745 37.8434C214.745 36.6812 214.769 36.646 215.641 36.4868C216.77 36.2805 217.009 35.9938 217.327 34.4647C217.468 33.7866 217.688 32.811 217.816 32.2964C218.118 31.0817 217.669 30.6247 216.878 31.3417C216.58 31.6113 216.265 32.0537 216.176 32.3251C216.003 32.8568 214.45 33.8608 213.802 33.8608C213.583 33.8608 213.111 34.0854 212.752 34.36C212.101 34.8588 212.099 34.8588 211.354 34.3429C210.654 33.8578 210.442 33.2267 210.6 32.1003C210.719 31.2575 212.482 27.7128 213.263 26.7462C213.723 26.1773 214.797 25.0154 215.65 24.1638L217.202 22.6158L215.897 21.3849C214.652 20.2094 214.566 20.0401 213.997 17.6387C213.669 16.2555 213.343 14.2183 213.271 13.1116C213.157 11.3395 213.238 10.8084 213.952 8.65674C214.398 7.3132 214.858 6.15703 214.974 6.08762C215.143 5.98576 243.769 24.5818 244.58 25.3204C244.71 25.4389 244.462 26.0395 244.006 26.7082C243.564 27.3569 242.836 29.0062 242.388 30.3734C241.88 31.9235 241.189 33.3925 240.552 34.276C239.812 35.3039 239.366 36.3281 238.929 38.0058C238.296 40.4324 237.545 42.0206 236.123 43.9424C233.563 47.4011 233.943 51.361 237.219 55.3645C239.611 58.2884 247.802 66.234 250.515 68.2636C251.915 69.3104 253.16 70.4218 253.282 70.7334C253.56 71.4444 253.311 73.0384 252.803 73.8015C252.591 74.1204 251.911 74.72 251.293 75.134C250.674 75.5477 250.168 76.01 250.168 76.1614C250.168 76.3128 249.749 77.3857 249.237 78.5456C248.042 81.2523 248.137 81.7971 249.846 82.0471C251.414 82.2762 253.698 81.8172 254.461 81.1193C254.954 80.6694 255.395 80.5763 257.198 80.5418L259.347 80.5006L261.694 78.9591C265.072 76.7396 265.681 75.6644 263.861 75.134C262.553 74.7527 262.156 73.9507 262.637 72.6579C263.184 71.1864 263.874 70.8403 265.926 71.0076C267.606 71.1446 267.714 71.1205 268.12 70.5171C268.355 70.168 268.726 69.0302 268.945 67.989C269.304 66.2767 269.302 65.8376 268.93 63.399C268.703 61.9159 268.221 60.0108 267.858 59.1652C267.048 57.2817 266.811 56.4691 266.616 54.9105C266.47 53.7503 266.509 53.6545 267.59 52.5212C269.484 50.5366 269.64 50.0582 269.769 45.8701C269.84 43.5679 269.984 42.1604 270.149 42.1604C270.498 42.1604 310.579 68.1925 311.542 69.0446C312.588 69.9703 313.275 71.6735 313.43 73.7243C313.503 74.6926 313.687 75.881 313.839 76.3651C314.381 78.0922 316.884 81.3351 321.021 85.6708C323.331 88.0915 330.057 95.5046 335.968 102.144C341.88 108.784 347.645 115.258 348.781 116.532C349.916 117.805 351.186 118.984 351.602 119.152M273.985 207.613C273.985 207.613 274.743 210.228 275.614 210.769C277.169 211.737 277.835 212.518 277.835 213.373C277.835 214.267 277.242 214.294 275.728 213.47C273.128 212.055 271.639 212.215 270.188 214.066C269.601 214.815 269.521 215.105 269.664 215.974C269.884 217.314 270.827 219.094 272.736 221.776C273.681 223.103 274.227 224.106 274.134 224.343C274.05 224.556 273.525 224.957 272.967 225.234C271.687 225.869 270.658 227.046 270.468 228.093C270.12 230.009 269.886 232.526 270.002 233.117C270.214 234.197 271.59 235.185 275.895 237.351C280.609 239.722 281.096 240.039 283.838 242.514C286.77 245.161 288.289 245.364 293.09 243.748C294.644 243.225 295.872 243.042 299.271 242.827C304.722 242.481 306.171 242.72 307.34 244.155C308.263 245.289 308.639 245.354 309.331 244.499C309.733 244.002 309.895 243.94 310.116 244.199C310.331 244.452 310.738 244.47 311.92 244.28L313.445 244.035L315.614 245.557C319.012 247.941 320.275 248.255 322.358 247.229C323.128 246.851 324.221 245.554 324.485 244.707C324.578 244.408 324.928 243.99 325.262 243.777C325.662 243.522 325.977 242.953 326.185 242.11C326.726 239.915 327.397 239.698 330.845 240.602C334.748 241.625 336.425 242.517 341.689 246.368L346.694 250.029L348.449 253.047L350.204 256.065L350.301 259.209C350.379 261.726 350.536 262.779 351.087 264.492C351.466 265.669 352.01 267.695 352.295 268.994C352.668 270.691 353.014 271.596 353.527 272.212C355.024 274.012 355.316 274.528 355.643 275.964C356.034 277.678 356.468 278.582 357.528 279.894C357.946 280.412 358.405 281.246 358.547 281.748M273.985 207.613C274.29 207.146 274.271 205.954 273.956 205.764C273.51 205.496 273.671 204.413 274.198 204.138C274.473 203.995 275.038 203.878 275.455 203.878C276.175 203.878 276.831 203.524 279.32 201.792L280.418 201.028L281.826 201.721C282.686 202.144 283.841 202.468 284.792 202.551C286.856 202.733 287.178 203.102 287.327 205.443C287.427 207.025 287.636 207.662 288.867 210.135C290.627 213.672 291.147 214.19 292.941 214.19C294.714 214.19 295.265 214.625 295.922 216.543C296.223 217.423 296.802 218.654 297.21 219.279C298.233 220.848 308.109 229.565 309.332 229.979C309.86 230.158 311.033 231.021 311.965 231.917C313.359 233.257 313.865 233.577 314.938 233.801C315.649 233.949 316.549 234.194 316.937 234.344C317.874 234.708 320.409 237.622 320.627 238.586C320.834 239.505 321.97 240.159 323.164 240.047C323.89 239.978 324.095 239.77 324.896 238.288C326.426 235.458 327.631 234.562 329.908 234.562C330.543 234.562 333.106 235.061 335.604 235.671C342.326 237.313 343.898 238.299 349.486 244.37C351.993 247.094 353.473 248.994 355.33 251.875C356.698 253.996 358.063 255.888 358.363 256.08M358.547 281.748C358.873 282.894 359.782 283.727 361.048 284.04C361.587 284.173 362.851 284.749 363.855 285.32L365.683 286.358L365.791 287.815C365.861 288.752 366.196 289.888 366.729 290.997C367.297 292.179 367.611 293.284 367.727 294.513C367.832 295.622 368.188 296.975 368.661 298.058L369.425 299.809L368.963 301.611C368.52 303.342 368.52 303.498 368.964 305.519C369.218 306.677 369.585 308.002 369.78 308.465C370.286 309.664 372.383 312.149 374.602 314.179C375.681 315.167 384.466 321.457 394.85 328.676C405.511 336.088 413.744 341.986 414.511 342.76C415.236 343.493 416.826 345.45 418.044 347.11C419.262 348.77 420.821 350.656 421.509 351.301C422.633 352.356 437.106 362.627 439.939 364.381C441.548 365.377 442.832 365.335 445.124 364.212C447.973 362.817 447.824 362.748 451.389 367.102C452.011 367.861 454.317 369.984 456.514 371.82C461.476 375.965 465.198 378.212 469.572 379.704C471.271 380.284 473.321 381.166 474.126 381.665C474.932 382.164 477.728 384.468 480.34 386.785C484.62 390.583 485.905 391.538 493.375 396.472C502.105 402.238 503.247 402.818 505.858 402.818C507.345 402.818 508.324 402.416 509.919 401.148C511.603 399.81 512.201 399.81 515.291 401.152C516.765 401.792 518.19 402.316 518.458 402.317C519.596 402.32 520.929 402.906 522.399 404.049C523.362 404.797 524.437 405.384 525.176 405.565C527.191 406.059 528.308 406.772 529.688 408.447C530.835 409.839 531.311 410.187 533.355 411.133C535.435 412.094 535.988 412.238 538.184 412.389C541.889 412.644 544.836 414.427 545.488 416.347M358.547 281.748C358.547 281.748 359.254 281.796 363.369 276.829C366.808 272.676 367.754 271.356 368.607 269.514C369.548 267.48 369.622 267.178 369.379 266.319C369.048 265.149 367.738 263.459 364.08 259.478C360 257 358.363 256.08 358.363 256.08M545.488 416.347C545.488 416.347 544.968 416.756 544.39 417.973C544.047 418.696 543.203 420.015 542.516 420.903C541.828 421.791 540.915 423.123 540.486 423.862C539.741 425.147 539.71 425.319 539.779 427.782C539.896 431.927 539.803 433.257 539.248 435.366C538.444 438.418 538.619 439.545 540.081 440.755C541.031 441.541 540.979 442.291 539.886 443.564C538.644 445.01 538.477 445.766 539.269 446.355C539.755 446.716 540.165 446.783 541.185 446.669C542.213 446.555 542.804 446.654 544.029 447.149C546.439 448.122 547.299 448.201 548.176 447.53C548.822 447.036 549.339 446.941 552.16 446.795C553.942 446.703 556.041 446.449 556.823 446.23C558.943 445.637 560.194 445.709 561.376 446.491C561.93 446.858 562.73 447.3 563.154 447.474C563.787 447.734 564.019 448.078 564.446 449.387C564.966 450.977 564.973 450.984 566.73 451.807C568.202 452.496 568.555 452.785 568.875 453.567C569.55 455.218 569.795 455.573 570.461 455.868C571.019 456.115 571.351 456.046 572.743 455.393C573.64 454.972 574.584 454.628 574.842 454.627C576.009 454.624 577.335 454.013 578.596 452.897C581.003 450.768 581.604 450.704 582.309 452.5C582.546 453.104 582.956 453.788 583.22 454.021C583.675 454.421 583.742 454.401 584.459 453.654C585.474 452.597 586.554 452.4 587.551 453.091C588.114 453.481 588.707 453.622 589.777 453.622C590.981 453.622 591.346 453.73 591.87 454.24C592.219 454.579 592.505 455.089 592.505 455.372C592.505 456.287 592.877 455.916 593.591 454.289C594.828 451.472 594.967 448.824 594.077 445.065C593.661 443.308 593.747 442.034 594.41 440.148C595.422 437.27 597.745 433.822 600.016 431.826C601.215 430.772 603.861 427.228 604.821 425.39C605.2 424.665 605.939 422.826 606.462 421.304C607.525 418.211 607.681 418.059 610.19 417.661C612.124 417.355 612.61 416.99 613.052 415.51C613.261 414.811 613.885 413.557 614.438 412.724C616.192 410.085 617.52 405.709 617.177 403.699C616.884 401.984 615.102 400.069 611.677 397.788C610.361 396.912 609.782 396.316 609.11 395.147C608.634 394.318 607.824 393.217 607.31 392.702C606.512 391.903 606.348 391.533 606.178 390.165C606.038 389.035 605.736 388.181 605.152 387.268C604.355 386.02 604.33 385.899 604.467 383.954C604.558 382.649 604.483 381.426 604.254 380.494C603.707 378.264 603.768 377.781 604.682 377.148C605.376 376.667 605.459 376.491 605.309 375.811C605.215 375.38 605.117 374.634 605.091 374.153C605.048 373.34 605.107 373.27 605.95 373.131C607.152 372.934 607.826 372.556 608.627 371.63C609.619 370.484 609.749 369.345 609.038 368.05C608.715 367.461 607.961 366.047 607.364 364.908C606.767 363.769 606.132 362.665 605.953 362.456C605.542 361.974 604.167 361.976 603.509 362.46C602.855 362.941 602.22 362.928 601.791 362.426C601.028 361.531 600.297 361.518 597.892 362.355C595.416 363.216 594.35 363.245 590.481 362.557C589.669 362.412 589.144 362.282 588.825 362M545.488 416.347C545.455 415.882 545.612 415.577 545.982 415.384C546.68 415.02 547.257 413.663 547.524 411.753L547.736 410.238L550.596 407.597C553.193 405.199 553.505 404.813 553.998 403.39C554.782 401.124 555.471 400.238 556.633 400.003C558.233 399.68 559.92 398.707 562.831 396.43C565.86 394.059 565.791 394.174 566.399 390.522C566.699 388.713 566.751 388.621 568.326 387.112C569.215 386.259 570.021 385.325 570.115 385.036C570.228 384.689 570.591 384.456 571.188 384.347C572.666 384.077 573.801 382.858 575.323 379.908C576.089 378.421 576.979 377.026 577.299 376.807C577.62 376.589 578.375 376.41 578.979 376.41C579.837 376.41 580.275 376.58 580.991 377.192C582.024 378.074 582.679 378.014 582.679 377.037C582.679 376.681 582.904 375.963 583.178 375.441C583.91 374.045 583.799 370.102 582.99 368.768C582.677 368.253 582.421 367.525 582.421 367.152C582.421 366.778 582.305 366.08 582.164 365.6C582.022 365.12 581.972 364.525 582.053 364.278C582.277 363.591 583.54 363.082 585.058 363.067C585.812 363.059 586.836 362.91 587.334 362.736C587.839 362.559 588.662 361.883 588.825 362M575.826 346.984C575.302 347.074 575.036 347.302 574.906 347.775C574.616 348.831 575.049 350.531 575.736 351.039C576.778 351.808 580.635 352.966 582.797 353.158C585.177 353.37 586.453 353.813 586.68 354.508C586.792 354.85 587.048 354.984 587.528 354.953C588.653 354.878 588.887 355.71 588.561 358.618C588.333 360.657 588.825 362 588.825 362M575.826 346.984C576.488 346.871 576.598 346.706 576.912 345.35C577.104 344.52 577.368 342.801 577.5 341.53C577.769 338.922 578.2 337.133 578.622 336.878M575.826 346.984L570.385 345.926C568.259 345.399 565.792 344.876 564.903 344.764L563.287 344.559V345.23C563.287 346.344 562.63 346.653 559.85 346.843C557.027 347.036 555.657 346.761 555.391 345.948C555.301 345.672 555.308 344.875 555.407 344.178C555.54 343.237 555.475 342.672 555.156 341.982L554.725 341.053L550.745 340.363C545.945 339.531 545.495 339.622 544.189 341.686C543.49 342.79 543.109 343.099 541.667 343.728C539.158 344.823 539.026 344.794 536.007 342.479L534.559 341.369L531.277 342.081C528.753 342.629 527.352 343.104 525.218 344.134C523.027 345.193 522.184 345.475 521.211 345.473C519.79 345.47 517.514 344.86 517.216 344.403C517.104 344.232 517.009 343.413 517.005 342.583C517 341.753 516.911 340.953 516.807 340.805C516.702 340.657 515.967 340.073 515.172 339.507C513.08 338.016 511.691 336.38 511.327 334.976C511.158 334.322 510.897 333.644 510.748 333.469C510.393 333.053 508.233 333.05 508.086 333.466C508.025 333.639 507.941 334.172 507.9 334.652C507.838 335.385 507.635 335.637 506.623 336.245L505.419 336.966L496.409 336.749C491.454 336.629 487.263 336.625 487.097 336.741M578.622 336.878C578.778 336.783 579.231 336.769 579.628 336.846C580.804 337.075 581.184 336.564 580.985 335.019C580.785 333.458 580.962 333.301 583.242 333.025C584.44 332.879 585.032 332.617 586.474 331.592C588.666 330.033 589.599 329.63 591.01 329.633C591.619 329.634 595.259 330.435 599.098 331.413C605.468 333.035 606.397 333.208 609.699 333.392C612.428 333.543 613.654 333.724 614.679 334.127C616.536 334.855 619.656 334.834 621.981 334.076C623.61 333.546 623.659 333.504 623.584 332.738C623.52 332.084 623.655 331.847 624.36 331.377C627.256 329.443 627.435 329.014 627.714 323.349C627.955 318.445 628.151 317.464 628.838 317.721M578.622 336.878L575.497 334.4C572.262 331.628 572.221 331.557 572.306 328.92C572.395 326.157 572.539 325.905 574.084 325.809L575.31 325.732L575.312 323.507C575.313 321.338 575.333 321.266 576.087 320.675C576.926 320.019 579.294 319.067 580.088 319.067C580.359 319.067 580.654 318.951 580.745 318.809C580.996 318.412 579.851 313.856 579.362 313.31C579.052 312.964 578.055 312.67 575.828 312.269C572.121 311.601 569.993 311.278 568.568 311.164C567.144 311.051 564.546 310.303 564.036 309.859C563.808 309.66 563.454 309.56 563.25 309.636C562.576 309.888 561.385 308.365 561.23 307.053C561.076 305.748 561.227 305.806 558.877 306.15C557.704 306.321 557.451 306.009 557.265 304.165C557.115 302.682 557.432 301.965 558.236 301.965C558.424 301.965 558.648 301.786 558.735 301.567C559.038 300.798 558.885 300.144 558.223 299.378C557.75 298.832 557.585 298.396 557.661 297.895C557.749 297.309 557.623 297.101 556.934 296.706C555.918 296.123 555.521 294.739 555.338 291.144C555.245 289.303 555.313 288.524 555.632 287.781C556.141 286.595 556.151 286.094 555.686 285.01C555.331 284.185 555.299 284.171 554.213 284.364C553.41 284.507 552.599 284.431 551.279 284.089C550.113 283.787 548.562 283.615 546.986 283.611L544.517 283.605M628.838 317.721C629.08 317.811 629.514 317.63 629.902 317.276L630.557 316.678L631.167 317.432C631.503 317.847 632.033 318.461 632.345 318.796C632.89 319.382 632.925 319.387 633.264 318.936C633.458 318.679 633.616 318.248 633.616 317.979C633.616 317.71 633.902 317.232 634.252 316.917C635.251 316.017 635.34 315.171 634.592 313.689C633.822 312.16 633.414 310.616 633.851 310.879C634.272 311.132 635.039 312.697 635.522 314.289C635.753 315.049 636.163 315.949 636.434 316.287L636.927 316.902L637.986 316.438C638.762 316.097 639.046 315.824 639.046 315.418C639.046 315.113 638.115 313.579 636.978 312.01C635.191 309.545 634.909 309.013 634.909 308.106C634.909 307.48 634.753 306.93 634.521 306.744C634.308 306.571 634.133 306.274 634.133 306.084C634.133 305.459 634.658 305.721 635.202 306.618C635.856 307.696 636.264 307.718 637.414 306.736C638.304 305.976 638.313 305.974 640.588 306.141C642.782 306.302 642.881 306.287 643.184 305.735C643.755 304.698 643.341 303.199 642.23 302.283C641.68 301.829 640.949 301.468 640.576 301.466C640.21 301.464 637.882 301.864 635.405 302.355C630.294 303.367 629.966 303.344 627.832 301.814C626.269 300.692 626.423 300.498 629.492 299.717M628.838 317.721C628.954 317.721 628.467 316.587 628.624 316.015C628.89 315.043 628.866 314.938 628.246 314.42C627.473 313.773 627.597 312.889 628.432 313.101C629.364 313.338 629.484 311.949 628.704 309.953C627.868 307.815 628.073 306.801 629.758 304.714L631.14 303.043M629.492 299.717C631.376 299.237 631.914 299.192 633.142 299.413C634.726 299.698 635.401 299.596 636.641 298.884C637.444 298.424 642.687 297.452 644.42 297.442C644.887 297.44 645.867 297.733 646.598 298.093M629.492 299.717C629.228 299.461 629.156 296.416 629.762 295.317C630.05 294.794 630.218 294.3 630.136 294.22C630.053 294.14 626.416 295.471 622.757 296.318L616.939 297.734L611.841 297.557C608.658 297.447 606.589 297.27 606.332 297.088C605.794 296.705 605.406 295.028 605.598 293.917C605.682 293.433 606.843 290.581 608.177 287.58C609.512 284.578 610.604 282.007 610.604 281.865C610.604 281.724 610.168 281.633 609.635 281.664L608.665 281.719L608.746 279.581C608.791 278.405 608.909 277.362 609.009 277.263C609.109 277.163 609.946 276.937 610.867 276.76L612.543 276.437L613.5 274M646.598 298.093C648.423 298.992 651.83 299.953 653.196 299.953C654.889 299.953 655.853 299.378 655.853 298.368C655.853 297.683 655.599 297.333 654.301 296.221C653.165 295.249 652.75 294.721 652.75 294.25C652.75 293.676 652.827 293.624 653.461 293.77C655.312 294.194 656.264 294.218 656.579 293.848C656.754 293.643 656.92 292.732 656.948 291.824C656.994 290.331 656.897 289.985 655.938 288.203C655.355 287.119 654.667 285.5 654.41 284.605C654.153 283.709 653.559 282.354 653.089 281.593C652.618 280.832 652.234 280.021 652.233 279.79C652.232 279.12 653.82 278.323 655.157 278.323C656.917 278.323 657.112 277.919 656.954 274.602C656.81 271.578 657.041 270.417 658.106 268.82C658.791 267.792 660.41 266.754 661.328 266.754C661.548 266.754 662.168 267.094 662.704 267.509C663.241 267.924 663.934 268.263 664.243 268.263C664.841 268.263 665.827 269.159 666.595 270.401C666.852 270.816 667.652 271.741 668.374 272.456C669.095 273.171 670.112 274.244 670.633 274.84C671.469 275.797 671.705 275.923 672.66 275.923C673.613 275.923 673.865 275.789 674.784 274.797C677.779 271.562 677.21 271.912 681.767 270.509C685.652 269.312 686.129 269.098 687.989 267.708C689.27 266.751 690.823 265.884 692.255 265.324C695.37 264.106 697.213 262.963 698.589 261.397C699.685 260.149 699.799 259.879 700.339 257.242C700.858 254.71 700.979 254.407 701.526 254.273C702.634 254.003 703.471 254.436 705.381 256.267M646.598 298.093L647.056 296.077C647.367 294.815 647.351 294.594 646.875 293.523C646.483 292.641 646.403 292.126 646.554 291.437C646.665 290.933 646.893 289.702 647.061 288.7C647.247 287.589 647.609 286.531 647.989 285.985C648.75 284.895 648.764 284.479 648.079 283.386C647.787 282.919 647.606 282.389 647.678 282.207C647.757 282.006 647.585 281.845 647.241 281.797C646.635 281.714 646.62 281.524 647.087 279.773C647.249 279.166 647.577 278.712 648.012 278.49C648.476 278.253 648.589 278.087 648.372 277.957C648.19 277.847 647.81 277.994 647.469 278.306C646.932 278.796 646.85 278.807 646.533 278.436C646.261 278.117 646.253 277.94 646.496 277.611C647.092 276.805 647.143 276.489 646.726 276.192C646.495 276.028 646.183 275.577 646.031 275.19C645.768 274.515 645.706 274.494 644.47 274.654C643.762 274.745 643.183 274.754 643.183 274.673C643.183 274.592 643.361 274.192 643.578 273.784C644.03 272.933 643.962 272.897 642.909 273.427C642.335 273.716 642.016 273.745 641.629 273.544C641.024 273.229 641.016 273.188 641.436 272.535C641.785 271.99 641.524 271.33 640.839 271.024C639.698 270.513 639.427 270.302 639.359 269.871C639.15 268.537 638.955 268.214 638.009 267.633C637.444 267.286 636.683 266.542 636.317 265.979C635.575 264.835 634.23 264.143 633.226 264.388C632.701 264.516 632.582 264.453 632.582 264.044C632.582 263.762 632.365 263.488 632.085 263.417C631.718 263.323 631.54 262.972 631.403 262.067C631.254 261.08 631.018 260.662 630.177 259.901C629.604 259.382 629.05 258.346 628.875 258.346M705.381 256.267C707.925 258.707 714.535 266.047 714.541 266.44C714.549 266.928 714.177 266.814 713.512 266.125C712.436 265.011 711.185 265.423 711.185 266.891C711.185 267.983 711.861 268.486 713.943 268.943C714.915 269.156 716.044 269.497 716.452 269.699C717.114 270.028 717.18 270.169 717.064 271.006C716.942 271.893 715.931 273.293 715.413 273.293M705.381 256.267L705.143 252.029L705.109 248.748L704.01 247.107C703.405 246.205 702.911 245.362 702.912 245.233C702.913 245.104 703.195 244.326 703.54 243.503C704.23 241.855 704.113 241.195 703.105 241.055C702.636 240.991 702.507 240.79 702.442 240.02C702.374 239.216 702.548 238.821 703.543 237.519C704.192 236.668 704.338 235.437 704.5 235C704.706 234.445 704.733 233.951 705.353 233.732M715.413 273.293C715.023 273.293 711.182 276.497 710.357 277.511C709.563 278.485 708.957 278.909 707.775 279.317C707.363 279.459 706.714 280.114 706.182 280.922C705.361 282.17 705.167 282.313 703.904 282.599C700.404 283.392 699.127 285.286 700.696 287.356C701.2 288.02 701.278 288.309 701.084 288.804C700.655 289.902 700.809 290.157 702.302 290.822C703.63 291.413 703.893 291.449 705.204 291.218C706.613 290.97 706.661 290.981 707.36 291.709C707.753 292.118 708.192 292.924 708.336 293.5C708.48 294.075 708.837 295.308 709.13 296.241C709.612 297.778 709.77 297.997 710.827 298.6C711.847 299.181 712.194 299.249 713.593 299.137C714.473 299.067 716.531 298.605 718.166 298.11C720.129 297.517 721.931 297.154 723.467 297.043C725.607 296.888 725.862 296.811 726.649 296.087C727.504 295.301 727.51 295.3 730.011 295.384C731.389 295.429 733.273 295.486 734.197 295.509L735.878 295.552L736.542 294.226C737.514 292.288 737.602 292.249 738.677 293.294C739.581 294.175 739.661 294.2 740.978 294.04C742.222 293.89 742.397 293.932 742.971 294.527C743.317 294.886 744.054 295.299 744.607 295.443C745.393 295.649 745.694 295.895 745.983 296.568C746.466 297.694 748.535 298.862 750.457 299.096C751.727 299.25 751.92 299.21 752.343 298.702C752.602 298.391 752.815 297.838 752.817 297.473C752.823 296.585 753.188 296.073 753.684 296.259C754.323 296.497 754.882 298.117 754.882 299.732C754.882 301.46 755.514 302.368 756.511 302.075C758.334 301.538 759.96 300.179 760.704 298.57C761.637 296.553 762.033 296.326 764.252 296.54C765.284 296.64 767.023 296.77 768.115 296.83C769.943 296.932 770.114 296.899 770.269 296.423C770.477 295.786 770.047 295.25 768.984 294.817C768.018 294.425 767.293 293.763 767.293 293.273C767.293 293.077 768.078 292.53 769.038 292.057C771.199 290.992 772.297 289.892 772.843 288.246C773.221 287.108 773.417 286.896 774.744 286.187C775.86 285.589 776.616 285.376 777.824 285.318C778.764 285.272 779.432 285.344 779.443 285.491M715.413 273.293C715.7 273.293 716.302 273.495 718.662 271.317C719.975 270.105 720.148 270.024 721.391 270.024C722.569 270.024 722.818 269.925 723.596 269.144C724.585 268.151 725.011 268.071 725.93 268.703C726.45 269.061 727.064 269.136 729.22 269.102C730.677 269.08 731.87 269.113 731.87 269.176C731.87 269.239 731.392 269.907 730.807 270.66C729.616 272.194 729.622 272.79 730.827 272.79C731.35 272.79 731.932 273.07 732.58 273.633C733.114 274.097 733.867 274.551 734.253 274.642C734.639 274.733 735.464 275.142 736.087 275.551C737.559 276.517 738.53 276.865 739.208 276.668C739.924 276.461 742.002 274.516 743.27 272.868C744.04 271.867 744.773 271.301 746.411 270.444C749.103 269.036 751.561 267.808 752.026 268.183M779.443 285.491C779.453 285.63 779.175 285.778 778.826 285.821C778.095 285.91 777.513 286.479 777.758 286.864C777.849 287.008 778.49 287.126 779.182 287.126C780.163 287.126 780.873 287.354 782.406 288.158C785.051 289.546 785.942 289.316 786.859 287.009C787.551 285.271 787.149 283.987 785.587 282.934C784.576 282.252 784.566 282.229 784.732 281.016C784.865 280.035 784.794 279.615 784.378 278.929C783.826 278.019 783.88 277.453 784.545 277.205C784.815 277.104 785.519 277.588 786.664 278.663C788.045 279.96 788.594 280.308 789.498 280.456C790.145 280.563 791.226 281.054 792.056 281.62C793.535 282.627 794.543 282.834 795.515 282.327C796.116 282.015 796.769 280.65 796.769 279.707C796.769 278.87 797.301 278.691 798.297 279.192C799.015 279.553 799.173 279.555 799.853 279.213C800.516 278.88 800.631 278.653 800.782 277.383C800.877 276.586 801.186 275.455 801.469 274.869C801.94 273.892 802.123 273.762 803.669 273.297C804.597 273.019 805.494 272.79 805.663 272.79C805.832 272.79 806.911 272.227 808.062 271.538C809.212 270.849 811.011 269.987 812.059 269.621C814.609 268.731 815.946 267.942 816.739 266.858C818.01 265.12 816.956 264.061 814.293 264.399C813.131 264.546 813.032 264.51 812.242 263.642C811.785 263.14 811.273 262.73 811.103 262.73C810.603 262.73 807.826 264.022 806.958 264.658C805.917 265.422 805.819 265.402 805.815 264.428C805.806 262.703 804.948 262.425 800.778 262.793C796.013 263.215 795.177 262.817 792.601 258.903C792.19 258.279 791.727 257.917 791.21 257.815C789.545 257.488 789.529 257.474 789.529 256.327C789.529 255.125 789.296 254.934 787.833 254.934C786.483 254.934 785.035 254.259 784.503 253.383C784.242 252.952 783.801 252.379 783.523 252.11C783.023 251.623 783.014 251.623 782.403 252.181C782.065 252.491 781.667 253.095 781.521 253.524C781.281 254.224 781.072 254.349 779.509 254.733C778.55 254.968 777.49 255.239 777.153 255.335M779.443 285.491C779.443 285.019 778.5 284 778.5 284C777.572 283.819 778.291 283.565 778.553 281.185C778.77 279.22 778.591 278.963 776.632 278.416C775.597 278.127 774.969 277.766 774.449 277.161C773.602 276.175 773.345 276.128 772.592 276.816L772.04 277.32L769.99 276.764C768.862 276.458 767.241 276.194 766.388 276.177C765.535 276.16 764.634 276.127 764.386 276.103C764.138 276.079 763.306 275.233 762.537 274.221C761.238 272.512 761.033 272.352 759.627 271.95C758.795 271.713 757.765 271.537 757.338 271.561C756.912 271.584 756.182 271.448 755.717 271.259C755.039 270.984 754.769 270.977 754.359 271.226C754.078 271.397 753.848 271.445 753.848 271.332C753.848 271.218 753.438 270.464 752.936 269.654L752.026 268.183M777.153 255.335C776.596 255.495 776.562 255.457 776.766 254.907C777.036 254.178 777.039 252.229 776.774 249.526C776.495 246.678 776.137 245.667 775.248 245.22C774.364 244.776 773.691 244.931 772.464 245.864C770.585 247.293 770.464 247.304 769.28 246.14C768.524 245.397 768.066 245.133 767.691 245.223C766.472 245.513 764.555 245.633 764.259 245.437C764.045 245.296 763.908 244.228 763.843 242.217C763.728 238.664 763.466 238.005 760.498 233.807C758.474 230.944 757.73 230.482 757.46 231.921C757.33 232.615 757.306 232.63 757.159 232.109C757.071 231.798 756.81 231.544 756.578 231.544C756.347 231.544 756.053 231.798 755.924 232.109C755.546 233.025 755.625 232.116 756.069 230.451C756.919 227.258 755.664 225.182 753.55 226.282C752.975 226.582 752.052 228.352 752.043 229.174C752.04 229.462 752.401 230.231 752.846 230.883C753.865 232.38 753.795 233.306 752.429 236.393C750.703 240.296 749.389 240.525 745.874 237.535C745.171 236.937 744.94 236.858 744.63 237.108C744.307 237.369 744.278 238.256 744.432 243.095C744.593 248.16 744.567 248.813 744.194 249.114C743.835 249.405 743.636 249.344 742.775 248.681C742.225 248.257 741.626 247.736 741.445 247.524C740.943 246.935 740.768 247.032 739.849 248.412C739.066 249.586 738.972 249.65 738.655 249.229C738.466 248.977 738.14 248.206 737.931 247.514C737.413 245.801 737.245 245.6 736.314 245.574C734.947 245.536 734.639 245.998 734.837 247.791C735.045 249.686 734.72 250.007 733.906 248.71C733.17 247.537 732.745 247.215 731.674 247.017C731.21 246.932 730.234 246.501 729.505 246.06C728.288 245.324 727.998 245.258 725.987 245.254L723.794 245.251L722.855 244.206C721.5 242.701 720.403 242.123 719.343 242.355C718.871 242.459 718.369 242.614 718.226 242.7C718.083 242.786 717.819 242.683 717.638 242.471C717.373 242.161 717.375 241.683 717.647 239.983C718.083 237.252 717.929 236.475 716.434 233.877C713.977 229.607 713.559 229.496 709.181 231.941C707.551 232.851 705.829 233.657 705.353 233.732M777.153 255.335C777.021 255.464 777.111 257.275 776.789 258.72C776.209 261.318 776.192 261.35 775.303 261.647C773.807 262.146 770.93 262.029 767.964 261.347C764.597 260.573 762.602 260.54 760.997 261.23C759.913 261.697 759.752 261.708 759.207 261.361C758.664 261.015 758.419 261.03 756.581 261.516C754.89 261.963 754.345 262.245 753.296 263.219C752.604 263.861 752.038 264.494 752.037 264.627C752.037 264.76 752.295 265.343 752.611 265.924L753.187 266.98L752.606 267.581L752.026 268.183M705.353 233.732C704.543 233.86 704.442 233.793 703.764 232.678C701.903 229.615 701.064 229.119 696.958 228.65C693.642 228.272 692.809 227.936 692.314 226.776C691.837 225.656 692.431 225.068 696.253 222.873C698.137 221.792 700.202 220.487 700.842 219.974C701.482 219.461 702.437 218.844 702.964 218.604C704.334 217.979 705.125 217.118 706.072 215.222C707.14 213.084 708.213 211.832 710.848 209.649C713.319 207.603 714.026 207.275 716.455 207.044C718.727 206.828 719.921 206.351 720.08 205.592C720.147 205.272 720.27 204.257 720.352 203.337C720.636 200.166 720.947 199.854 723.824 199.854C725.741 199.854 726.466 199.528 729.577 197.267C731.8 195.652 732.894 195.028 734.068 194.708C736.292 194.101 737.394 193.33 737.767 192.119C738.194 190.733 738.169 190.626 737.376 190.432C736.991 190.338 735.658 189.534 734.412 188.645C730.843 186.096 729.8 185.518 728.781 185.522C727.825 185.526 727.851 185.509 723.508 188.952C721.008 190.934 720.21 191.201 718.037 190.781C716.084 190.403 715.845 190.523 715.047 192.279C714.756 192.918 714.247 193.724 713.916 194.069C713.204 194.811 712.691 195.76 711.928 197.743C711.221 199.581 710.445 200.357 709.315 200.357C708.179 200.357 707.412 199.801 707.213 198.833C707.017 197.879 705.495 196.333 704.751 196.333C703.988 196.333 700.078 198.185 699.212 198.956C698.589 199.511 697.653 201.189 697.137 202.673C697.055 202.91 696.43 203.378 695.748 203.715C694.221 204.468 694.035 204.677 692.228 207.651C691.43 208.965 690.569 210.28 690.315 210.574C689.555 211.454 686.321 213.567 685.014 214.037C684.107 214.364 683.554 214.796 682.853 215.724C682.336 216.41 681.588 217.135 681.191 217.334C680.794 217.534 679.323 217.767 677.922 217.853C676.329 217.95 674.307 218.295 672.53 218.771C669.802 219.502 669.617 219.597 667.995 221.074C665.424 223.417 663.561 224.715 662.197 225.115C659.879 225.793 658.915 227.48 659.865 229.196C660.121 229.659 660.274 230.094 660.203 230.162C660.133 230.23 659.503 230.178 658.804 230.045C657.681 229.831 657.389 229.874 656.294 230.416C655.322 230.896 654.815 230.996 653.944 230.88C653.023 230.757 652.638 230.849 651.693 231.42C650.254 232.287 649.13 233.3 649.13 233.728C649.13 233.91 648.86 234.059 648.53 234.059C647.754 234.059 645.23 235.315 644.886 235.872C644.684 236.2 644.765 236.491 645.233 237.106L645.844 237.91L645.449 241.03C645.117 243.653 644.956 244.251 644.442 244.787C643.486 245.782 641.69 246.7 640.273 246.918C638.824 247.141 638.237 247.559 637.443 248.934C637.033 249.642 636.562 250.009 635.548 250.409C633.697 251.14 633.058 251.912 632.079 254.603C631.616 255.873 631.046 257.079 630.811 257.283C630.576 257.487 629.705 257.965 628.875 258.346M628.875 258.346C628.045 258.726 627.121 259.359 626.823 259.752C626.524 260.145 626.127 260.467 625.94 260.467C625.711 260.467 625.601 260.831 625.601 261.591C625.601 262.217 625.376 263.136 625.093 263.666C624.628 264.539 624.608 264.833 624.849 267.257C625.131 270.079 625.574 271.088 626.596 271.236C627.003 271.295 627.154 271.497 627.161 271.991C627.166 272.361 627.332 272.948 627.529 273.293C627.847 273.852 627.827 274.026 627.349 274.854C626.912 275.612 626.872 275.857 627.133 276.164C627.957 277.129 626.571 277.344 624.705 276.541C623.504 276.024 623.476 276.023 622.927 276.495C622.62 276.758 622.059 277.16 621.679 277.389C620.998 277.8 620.935 277.776 616.249 275.379C611.162 272.776 610.212 272.124 606.554 268.725C605.151 267.421 603.886 266.461 603.452 266.369C601.682 265.998 601.598 265.84 602.884 265.294C603.544 265.013 604.408 264.389 604.803 263.907C606.406 261.953 607.741 257.063 607.026 255.764C606.796 255.347 606.839 255.163 607.25 254.801C607.574 254.516 607.673 254.254 607.523 254.078C607.394 253.926 607.249 253.462 607.201 253.047C607.134 252.474 606.965 252.272 606.496 252.208C606.157 252.161 605.783 252.274 605.666 252.459C605.548 252.644 605.128 252.805 604.731 252.816C604.335 252.826 603.846 252.883 603.644 252.941C603.298 253.041 603.159 252.679 602.709 250.512C602.65 250.224 602.024 249.229 601.32 248.301C600.616 247.373 599.964 246.28 599.872 245.872C599.78 245.464 599.601 245.068 599.474 244.992C599.347 244.915 598.455 245.367 597.492 245.995C596.53 246.623 595.534 247.137 595.278 247.137C595.023 247.137 594.209 246.839 593.47 246.474C592.73 246.109 591.701 245.811 591.183 245.811C590.666 245.811 581.758 246.302 571.389 246.903C549.684 248.16 550 248 550 248M550 248C549.002 246.933 547.381 245.018 546.166 239.665C542.857 225.092 541.309 216.797 540.518 209.411C540.096 205.469 539.698 202.102 539.633 201.929C539.542 201.685 537.23 201.615 529.263 201.615H519.011L519.115 190.378C519.187 182.676 519.307 179.113 519.498 179.051C520.44 178.745 520.685 178.256 520.922 176.197C521.344 172.545 522.919 147.173 522.736 146.987C522.64 146.889 519.856 148.231 516.549 149.968C513.242 151.705 510.391 153.072 510.214 153.006C510.037 152.94 507.351 147.75 504.246 141.474C499.554 131.991 498.426 129.905 497.574 129.135C497.011 128.625 494.63 127.047 492.284 125.628C487.16 122.529 486.029 121.418 479.344 112.922C476.933 109.858 474.598 107.054 474.153 106.69C473.284 105.979 472.078 105.808 470.981 106.24C470.625 106.38 466.554 108.543 461.933 111.047C455.615 114.471 453.308 115.603 452.625 115.611C452.126 115.617 440.468 114.633 426.718 113.425L401.717 111.227L387.028 113.554C378.949 114.833 367.844 116.685 362.35 117.669C353.698 119.218 352.258 119.416 351.602 119.152M550 248C550 248 550.126 248.156 547.78 249.04C544.262 250.366 544.246 250.398 544.679 255.243C545.001 258.856 545.332 260.012 546.16 260.423C546.408 260.546 547.424 260.851 548.42 261.101C549.415 261.351 550.375 261.664 550.553 261.797C550.758 261.95 550.876 262.692 550.876 263.832C550.876 265.264 551.007 265.865 551.523 266.809L552.17 267.991L551.634 269.322C551.34 270.054 549.652 273.415 547.885 276.79C546.117 280.166 544.517 283.557 544.517 283.605M351.602 119.152C352.294 119.374 352.579 120.464 354.451 123.595C355.669 125.63 357.129 127.734 357.696 128.272C358.747 129.266 359.765 129.601 369.689 132.215C370.224 132.356 370.658 132.628 370.658 132.823C370.658 133.017 368.174 137.738 365.137 143.314C355.708 160.624 348.486 174.258 347.232 177.112L346.03 179.849L345.536 185.639C345.265 188.823 345.097 191.719 345.164 192.073C345.232 192.427 346.529 194.947 348.046 197.673C350.371 201.848 350.753 202.69 350.475 203.016C350.293 203.229 348.081 204.537 345.558 205.922C343.035 207.307 340.773 208.653 340.53 208.914C340.178 209.292 340.142 209.535 340.349 210.113C340.492 210.511 344.192 215.637 348.572 221.505C361.961 239.439 370.4 250.91 370.4 251.174C370.4 251.47 361.757 255.572 360.064 256.08C359.081 256.375 358.826 256.375 358.363 256.08M213.562 33.3578C213.311 33.3578 212.902 33.5366 212.654 33.7552M481.315 338.848C482.412 338.107 481.91 337.624 481.315 335.674C480.824 334.065 479.626 332.696 478.186 332.095C476.877 331.55 476.605 331.109 476.387 329.182C476.09 326.558 475.758 326.156 472.773 324.796C471.321 324.136 470.084 323.45 470.024 323.274C469.939 323.026 469.64 323.055 468.693 323.407C467.179 323.969 466.256 323.787 465.92 322.859C465.758 322.413 465.15 321.883 464.16 321.328C462.934 320.641 462.325 320.039 460.946 318.151C460.01 316.871 459.167 315.524 459.073 315.159C458.847 314.283 459.686 312.401 461.197 310.398C462.075 309.233 462.731 308.668 463.831 308.127C465.914 307.104 466.358 306.629 467.756 303.928C469.035 301.454 469.257 301.254 471.466 300.565C471.892 300.432 471.828 300.288 470.913 299.323C469.49 297.82 469.216 297.283 469.683 296.907C469.886 296.743 470.183 296.222 470.344 295.749C470.597 295.003 470.565 294.804 470.098 294.227C469.511 293.501 469.364 291.693 469.823 290.859C470.116 290.326 471.555 289.862 472.92 289.86C473.533 289.859 474.25 290.144 475.151 290.747L476.478 291.637L479.137 291.565L481.796 291.493L482.402 289.743C482.759 288.715 483.335 287.667 483.799 287.201C484.341 286.657 484.834 285.666 485.369 284.048C485.798 282.751 486.282 281.534 486.444 281.344C486.658 281.092 487.103 281.041 488.083 281.153C488.822 281.237 489.586 281.366 489.781 281.439C490.071 281.547 490.117 281.119 490.034 279.099C489.94 276.832 490.15 275.367 490.914 272.955C491.034 272.578 490.897 272.542 489.805 272.668C487.772 272.902 476.956 272.037 474.511 271.444C471.786 270.783 470.156 269.749 469.38 268.189C469.067 267.559 468.57 265.642 468.276 263.927C467.385 258.74 467.415 258.801 466.472 260.285C465.689 261.518 464.198 261.96 460.261 262.127C456.932 262.269 455.543 262.612 455.111 263.397C454.975 263.645 454.628 264.739 454.341 265.829C454.009 267.091 453.603 268.01 453.223 268.36L452.626 268.91L446.937 268.235C443.809 267.864 440.83 267.424 440.317 267.258C439.042 266.845 438.742 266.085 438.594 262.903C438.477 260.388 438.421 260.162 437.707 259.319C436.188 257.527 434.995 258.286 433.006 262.31C432.227 263.887 430.891 266.187 430.038 267.421L428.488 269.664L425.883 270.539C424.451 271.021 423.221 271.358 423.15 271.289C423.078 271.22 423.02 270.916 423.02 270.615C423.02 270.314 422.775 269.852 422.476 269.588C422.177 269.325 421.659 268.657 421.325 268.103C420.808 267.248 419.699 266.49 413.918 263.041C402.781 256.399 399.396 254.755 394.496 253.61C393.385 253.35 392.276 253.035 392.034 252.908C391.791 252.782 390.321 250.474 388.766 247.78C386.237 243.398 385.56 242.447 382.341 238.767C379.392 235.395 378.538 234.233 377.609 232.326L376.475 230L374.732 230.024C373.169 230.047 372.268 230.319 366.041 232.654C362.22 234.086 359 235.514 359 235.514C359 235.514 361.555 238.975 364.753 243.3M544.517 283.605L543.504 282.596C542.562 281.658 542.494 281.493 542.549 280.279C542.605 279.013 542.565 278.932 541.256 277.642C540.513 276.91 539.727 276.314 539.508 276.318C539.29 276.321 538.579 276.704 537.928 277.169C536.23 278.381 535.149 278.877 534.202 278.877C533.371 278.877 531.401 278.049 531.099 277.573C530.839 277.164 529.493 277.278 529.008 277.75C527.627 279.093 526.94 282.252 527.735 283.605C528.287 284.544 528.212 284.841 527.195 285.747C526.394 286.461 526.307 286.645 526.555 287.097C527.058 288.01 527.01 290.424 526.466 291.6L525.972 292.667L526.571 293.288L527.171 293.909L526.314 295.233C525.543 296.426 524.193 299.624 523.803 301.184C523.665 301.736 523.713 301.772 524.364 301.613C525.343 301.374 526.313 302.017 526.313 302.904C526.313 303.403 525.921 303.938 524.826 304.938C524.009 305.684 523.107 306.443 522.822 306.625C522.538 306.807 520.327 307.368 517.91 307.872C513.185 308.857 512.04 308.877 510.666 307.996C510.241 307.724 509.563 307.501 509.158 307.5C508.754 307.499 508.114 307.285 507.736 307.024C507.359 306.763 506.635 306.381 506.129 306.176C505.622 305.97 504.826 305.335 504.361 304.764C503.896 304.193 503.357 303.725 503.162 303.725C502.968 303.725 501.883 303.329 500.75 302.845C499.618 302.361 498.511 301.965 498.291 301.965C497.716 301.965 497.354 302.766 497.354 304.037C497.354 304.818 497.137 305.469 496.604 306.287L495.854 307.437L496.528 307.927L497.202 308.416L496.627 309.763C496.31 310.503 495.869 311.796 495.647 312.636C495.424 313.476 495.059 314.361 494.836 314.603C494.173 315.321 492.102 315.184 490.17 314.295L488.545 313.547L488.295 314.232C488.158 314.609 487.948 315.084 487.828 315.288C487.59 315.694 485.258 316.409 483.327 316.669C482.478 316.784 482.099 316.952 482.099 317.215C482.099 317.424 482.728 318.238 483.497 319.023C484.735 320.288 484.971 320.708 485.565 322.703C486.403 325.517 486.408 326.675 485.589 328.475C485.234 329.257 484.943 330.148 484.942 330.455C484.942 330.762 485.481 332.107 486.139 333.443L487.097 336.741M487.097 336.741C486.931 336.857 485.838 337.174 484.669 337.445C482.161 338.028 481.142 338.692 477.967 341.812C476.369 343.383 475.599 343.966 475.124 343.966C474.645 343.966 473.903 344.535 472.338 346.103C469.779 348.666 469.692 349.059 471.257 350.97C472.027 351.911 472.287 352.442 472.226 352.952C472.15 353.601 471.91 353.733 468.783 354.85C462.082 357.243 456.867 359.319 455.853 359.998C454.959 360.597 453.184 362.33 451.143 364.598L450.016 365.434M726.876 301.111C725.983 301.582 725.147 303.373 725.148 304.815C725.148 305.455 725.447 306.478 725.915 307.441C726.583 308.815 726.833 309.081 727.854 309.507C728.84 309.918 729.026 310.105 729.026 310.691C729.026 311.073 728.632 312.011 728.151 312.775C727.488 313.827 727.307 314.357 727.402 314.963C727.569 316.024 728.018 316.144 729.05 315.403C730.088 314.658 730.577 314.625 730.577 315.3C730.577 316.079 731.644 316.446 732.869 316.089C733.419 315.929 734.292 315.798 734.809 315.798C736.904 315.798 737.469 313.766 735.878 311.957C734.575 310.477 734.654 309.784 736.249 308.724C737.508 307.887 737.911 307.274 737.646 306.603C737.422 306.036 736.639 305.948 735.557 306.37C734.597 306.743 734.455 306.736 733.194 306.253C731.057 305.433 730.563 305 729.754 303.235C729.111 301.831 728.206 300.707 727.733 300.723C727.662 300.726 727.276 300.9 726.876 301.111ZM758.096 310.642C757.396 311.126 756.579 311.522 756.28 311.522C755.982 311.522 755.527 311.749 755.269 312.026C754.891 312.433 754.854 312.646 755.079 313.126C755.414 313.841 757.322 314.792 758.423 314.792C759.299 314.792 759.424 314.589 760.181 311.933C760.871 309.515 760.266 309.141 758.096 310.642Z" stroke="black" stroke-width="0.5"/>
<circle cx="634.235" cy="282.775" r="9.5" fill="#1179C0" fill-opacity="0.55" stroke="#1179C0"/>
<circle cx="755.178" cy="299.384" r="9.5" fill="#1179C0" fill-opacity="0.55" stroke="#1179C0"/>
<circle cx="358.558" cy="272.602" r="9.5" transform="rotate(-1.64052 358.558 272.602)" fill="#1179C0" fill-opacity="0.55" stroke="#1179C0"/>
<circle cx="109.127" cy="103.497" r="9.5" fill="#1179C0" fill-opacity="0.5" stroke="#1179C0"/>
</svg>
