<svg width="64" height="92" viewBox="0 0 64 92" fill="none" xmlns="http://www.w3.org/2000/svg">
<path d="M50.8321 0.412446C51.3905 0.73615 51.8226 1.23964 52.0578 1.84067C52.293 2.4417 52.3175 3.10474 52.1272 3.72146L41.8521 37.1083H60.8105C61.3676 37.108 61.9126 37.271 62.3782 37.577C62.8438 37.8829 63.2097 38.3186 63.4305 38.8301C63.6514 39.3416 63.7176 39.9065 63.6211 40.4552C63.5245 41.0039 63.2694 41.5124 62.8872 41.9178L17.2456 90.4119C16.804 90.8815 16.2163 91.1877 15.5784 91.2806C14.9405 91.3734 14.2899 91.2475 13.7327 90.9232C13.1756 90.599 12.7447 90.0956 12.5102 89.4951C12.2758 88.8945 12.2517 88.2323 12.4418 87.6164L22.7169 54.2239H3.75852C3.20138 54.2241 2.65637 54.0611 2.19077 53.7552C1.72517 53.4492 1.35936 53.0136 1.1385 52.5021C0.917637 51.9906 0.851396 51.4256 0.947952 50.8769C1.04451 50.3282 1.29963 49.8198 1.68183 49.4144L47.3234 0.920209C47.7645 0.451237 48.3512 0.145264 48.9883 0.0520407C49.6253 -0.0411825 50.2751 0.0838262 50.8321 0.406741V0.412446ZM10.3594 48.5187H26.5793C27.0257 48.5186 27.4659 48.6233 27.8645 48.8243C28.2631 49.0254 28.609 49.3171 28.8742 49.6762C29.1395 50.0353 29.3168 50.4516 29.3918 50.8916C29.4669 51.3317 29.4376 51.7832 29.3064 52.2099L21.5017 77.5581L54.2039 42.8135H37.9897C37.5433 42.8136 37.1031 42.7089 36.7045 42.5078C36.3059 42.3068 35.9601 42.015 35.6948 41.6559C35.4295 41.2969 35.2522 40.8806 35.1772 40.4405C35.1021 40.0004 35.1314 39.5489 35.2626 39.1222L43.0673 13.774L10.3594 48.5187Z" fill="white"/>
<path d="M10.3594 48.5187H26.5793C27.0257 48.5186 27.4659 48.6233 27.8645 48.8243C28.2631 49.0254 28.609 49.3171 28.8742 49.6762C29.1395 50.0353 29.3168 50.4516 29.3918 50.8916C29.4669 51.3317 29.4376 51.7832 29.3064 52.2099L21.5017 77.5581L54.2039 42.8135H37.9897C37.5433 42.8136 37.1031 42.7089 36.7045 42.5078C36.3059 42.3068 35.9601 42.015 35.6948 41.6559C35.4295 41.2969 35.2522 40.8806 35.1772 40.4405C35.1021 40.0004 35.1314 39.5489 35.2626 39.1222L43.0673 13.774L10.3594 48.5187Z" fill="white"/>
</svg>
