<svg width="94" height="97" viewBox="0 0 94 97" fill="none" xmlns="http://www.w3.org/2000/svg">
<path d="M55.7833 96.3853H38.3558C37.2639 96.3855 36.2047 96.0103 35.3539 95.3219C34.5031 94.6335 33.9119 93.6732 33.6782 92.6004L31.7296 83.5282C29.1301 82.3826 26.6652 80.9501 24.3804 79.257L15.5852 82.074C14.5442 82.4079 13.4209 82.3736 12.402 81.9768C11.383 81.58 10.5296 80.8445 9.98356 79.8926L1.25069 64.7193C0.710369 63.7664 0.507546 62.6574 0.675404 61.5736C0.843262 60.4898 1.37186 59.4953 2.17473 58.753L8.99728 52.4929C8.68702 49.6572 8.68702 46.7958 8.99728 43.96L2.17473 37.7145C1.37073 36.9718 0.841406 35.9765 0.673521 34.8916C0.505635 33.8067 0.709143 32.6967 1.25069 31.7434L9.96441 16.5604C10.5105 15.6085 11.3638 14.873 12.3828 14.4762C13.4018 14.0794 14.5251 14.0451 15.5661 14.379L24.3612 17.196C25.5294 16.3293 26.7455 15.5203 27.9999 14.7883C29.2112 14.1045 30.456 13.4834 31.7296 12.9296L33.683 3.86699C33.9155 2.79411 34.5057 1.83339 35.3556 1.14412C36.2055 0.454846 37.264 0.078426 38.3558 0.0772705H55.7833C56.875 0.078426 57.9336 0.454846 58.7835 1.14412C59.6334 1.83339 60.2236 2.79411 60.4561 3.86699L62.4287 12.9344C65.0266 14.08 67.4899 15.5125 69.7731 17.2057L78.573 14.3887C79.6134 14.056 80.7356 14.0909 81.7535 14.4877C82.7715 14.8844 83.624 15.6191 84.1699 16.57L92.8836 31.753C93.9944 33.7129 93.6114 36.1928 91.9596 37.7193L85.137 43.9793C85.4473 46.815 85.4473 49.6765 85.137 52.5122L91.9596 58.7722C93.6114 60.3035 93.9944 62.7786 92.8836 64.7385L84.1699 79.9215C83.6238 80.8734 82.7705 81.6089 81.7515 82.0057C80.7325 82.4025 79.6093 82.4368 78.5682 82.1029L69.7731 79.2859C67.49 80.9777 65.0267 82.4087 62.4287 83.5523L60.4561 92.6004C60.2226 93.6724 59.6321 94.6321 58.7823 95.3204C57.9325 96.0087 56.8744 96.3844 55.7833 96.3853ZM26.0992 68.5957L30.0251 71.4849C30.9109 72.1398 31.8301 72.7417 32.7877 73.2907C33.6878 73.8156 34.607 74.2875 35.5598 74.716L40.0268 76.6855L42.2148 86.7545H51.9339L54.1219 76.6807L58.5889 74.7112C60.5375 73.8444 62.3904 72.7706 64.1092 71.5042L68.0351 68.6149L77.8117 71.7449L82.6713 63.2794L75.0923 56.3308L75.6285 51.4576C75.8679 49.3244 75.8679 47.1719 75.6285 45.0435L75.0923 40.1703L82.6761 33.2073L77.8117 24.737L68.0399 27.867L64.1092 24.9777C62.3894 23.705 60.5387 22.6217 58.5889 21.7466L54.1219 19.7771L51.9339 9.70808H42.2148L40.0124 19.7819L35.5598 21.7466C33.6072 22.6067 31.7558 23.6823 30.0395 24.9536L26.1087 27.8429L16.3417 24.7129L11.4726 33.2073L19.0516 40.1462L18.5153 45.0243C18.276 47.1575 18.276 49.31 18.5153 51.4384L19.0516 56.3116L11.4726 63.2602L16.3321 71.7257L26.0992 68.5957ZM47.0504 67.4929C41.9712 67.4929 37.1001 65.4636 33.5086 61.8513C29.9171 58.2391 27.8994 53.3398 27.8994 48.2313C27.8994 43.1228 29.9171 38.2235 33.5086 34.6113C37.1001 30.999 41.9712 28.9697 47.0504 28.9697C52.1296 28.9697 57.0007 30.999 60.5922 34.6113C64.1837 38.2235 66.2014 43.1228 66.2014 48.2313C66.2014 53.3398 64.1837 58.2391 60.5922 61.8513C57.0007 65.4636 52.1296 67.4929 47.0504 67.4929ZM47.0504 38.6005C45.1753 38.6024 43.342 39.158 41.778 40.1983C40.214 41.2386 38.9881 42.7179 38.2524 44.4526C37.5167 46.1873 37.3036 48.1011 37.6395 49.9565C37.9753 51.8119 38.8455 53.5273 40.1419 54.8898C41.4383 56.2524 43.1039 57.2022 44.9321 57.6213C46.7603 58.0404 48.6706 57.9104 50.4261 57.2475C52.1815 56.5846 53.7048 55.4178 54.8069 53.8921C55.909 52.3663 56.5415 50.5487 56.6259 48.6647C56.6259 46.1104 55.6171 43.2274 53.8213 41.4213C52.0256 39.6152 49.59 38.6005 47.0504 38.6005Z" fill="white"/>
<path fill-rule="evenodd" clip-rule="evenodd" d="M26.0992 68.5957L30.0251 71.4849C30.9109 72.1398 31.8301 72.7417 32.7877 73.2907C33.6878 73.8156 34.607 74.2875 35.5598 74.716L40.0268 76.6855L42.2148 86.7545H51.9339L54.1219 76.6807L58.5889 74.7112C60.5375 73.8444 62.3904 72.7706 64.1092 71.5042L68.0351 68.6149L77.8117 71.7449L82.6713 63.2794L75.0923 56.3308L75.6285 51.4576C75.8679 49.3244 75.8679 47.1719 75.6285 45.0435L75.0923 40.1703L82.6761 33.2073L77.8117 24.737L68.0399 27.867L64.1092 24.9777C62.3894 23.705 60.5387 22.6217 58.5889 21.7466L54.1219 19.7771L51.9339 9.70808H42.2148L40.0124 19.7819L35.5598 21.7466C33.6072 22.6067 31.7558 23.6823 30.0395 24.9536L26.1087 27.8429L16.3417 24.7129L11.4726 33.2073L19.0516 40.1462L18.5153 45.0243C18.276 47.1575 18.276 49.31 18.5153 51.4384L19.0516 56.3116L11.4726 63.2602L16.3321 71.7257L26.0992 68.5957ZM33.5086 61.8513C37.1001 65.4636 41.9712 67.4929 47.0504 67.4929C52.1296 67.4929 57.0007 65.4636 60.5922 61.8513C64.1837 58.2391 66.2014 53.3398 66.2014 48.2313C66.2014 43.1228 64.1837 38.2235 60.5922 34.6113C57.0007 30.999 52.1296 28.9697 47.0504 28.9697C41.9712 28.9697 37.1001 30.999 33.5086 34.6113C29.9171 38.2235 27.8994 43.1228 27.8994 48.2313C27.8994 53.3398 29.9171 58.2391 33.5086 61.8513Z" fill="white"/>
</svg>
