<svg width="90" height="86" viewBox="0 0 90 86" fill="none" xmlns="http://www.w3.org/2000/svg">
<path fill-rule="evenodd" clip-rule="evenodd" d="M0.864821 43.0472L25.3241 41.5617H25.3219C25.0829 37.5983 26.002 33.6513 27.9653 30.2098C29.9285 26.7683 32.8495 23.9837 36.3664 22.2009L25.4065 0.0219727C17.5913 3.98393 11.1002 10.1724 6.73782 17.8204C2.37539 25.4683 0.333366 34.2396 0.864821 43.0472ZM54.3055 22.2009L65.2654 0.0219727C73.0814 3.98328 79.5734 10.1714 83.9366 17.8195C88.2999 25.4675 90.3426 34.2391 89.8115 43.0472L65.3522 41.5617C65.5912 37.5983 64.6721 33.6513 62.7089 30.2098C60.7456 26.7683 57.8246 23.9837 54.3077 22.2009H54.3055ZM45.3371 60.6303C41.4072 60.6364 37.5634 59.4693 34.2896 57.2761L20.7864 77.9663C27.8257 82.6789 36.264 85.4207 45.3371 85.4207C54.0704 85.4341 62.6125 82.8405 69.8877 77.9663L56.3861 57.2751C53.112 59.469 49.2676 60.6364 45.3371 60.6303ZM45.5586 49.1701C50.901 49.1701 55.2319 44.8392 55.2319 39.4968C55.2319 34.1544 50.901 29.8235 45.5586 29.8235C40.2161 29.8235 35.8853 34.1544 35.8853 39.4968C35.8853 44.8392 40.2161 49.1701 45.5586 49.1701Z" fill="white"/>
</svg>
