<svg width="93" height="84" viewBox="0 0 93 84" fill="none" xmlns="http://www.w3.org/2000/svg">
<path d="M44.0873 82.387C41.5043 84.7041 37.3973 82.8728 37.3973 79.4052L37.3973 4.78131C37.3973 1.31139 41.5043 -0.51984 44.0873 1.79726L62.8945 18.6793C64.892 20.4732 67.4819 21.4658 70.1667 21.4662L80.9432 21.4662C84.1344 21.4662 87.1949 22.7339 89.4514 24.9905C91.7079 27.247 92.9756 30.3075 92.9756 33.4987L92.9756 50.6878C92.9756 57.3343 87.5896 62.7203 80.9432 62.7203L70.1667 62.7203C67.4819 62.7207 64.892 63.7133 62.8945 65.5072L44.0873 82.3893L44.0873 82.387ZM43.127 75.5503L59.0671 61.2397C62.1165 58.5033 66.0695 56.99 70.1667 56.9905L80.9432 56.9905C82.6147 56.9905 84.2179 56.3265 85.3998 55.1445C86.5818 53.9625 87.2459 52.3594 87.2459 50.6878L87.2459 33.4987C87.2459 31.8271 86.5818 30.224 85.3998 29.042C84.2179 27.86 82.6147 27.196 80.9432 27.196L70.1667 27.196C66.0692 27.1959 62.1162 25.6818 59.0671 22.9445L43.127 8.63168L43.127 75.5503ZM18.2875 77.8559C17.7682 78.4099 17.0502 78.7352 16.2913 78.7601C15.5323 78.785 14.7945 78.5076 14.24 77.9888L14.2377 77.9888L14.2148 77.9659L14.1713 77.9247C13.9649 77.7269 13.7646 77.5228 13.5708 77.3127C13.1812 76.9002 12.6449 76.302 12.0077 75.5182C10.2667 73.3638 8.72045 71.059 7.38726 68.631C4.04339 62.585 0.727025 53.6604 0.727024 42.0933C0.727023 30.5261 4.04339 21.6038 7.38725 15.5532C8.72061 13.126 10.2668 10.822 12.0077 8.66835C12.6488 7.87995 13.3256 7.12131 14.036 6.3948C14.0816 6.35019 14.1274 6.30588 14.1735 6.26186L14.2148 6.22061L14.2285 6.20686L14.2354 6.20228L14.2354 6.19998L13.7312 6.70419C13.486 6.94942 13.4035 7.03423 14.24 6.19998C14.7984 5.70808 15.5263 5.45278 16.2696 5.48809C17.013 5.5234 17.7134 5.84656 18.2226 6.38917C18.7319 6.93179 19.01 7.65128 18.9982 8.39535C18.9863 9.13943 18.6854 9.84968 18.1591 10.3758L18.1591 10.3781L18.15 10.385C18.0097 10.5213 17.8729 10.6611 17.7397 10.8044C17.4395 11.1253 16.9926 11.618 16.4494 12.2872C14.9243 14.1766 13.5698 16.1976 12.4019 18.3264C9.4408 23.6802 6.45675 31.6583 6.45675 42.0933C6.45675 52.5282 9.4408 60.5063 12.4019 65.8602C13.5697 67.9897 14.9242 70.0114 16.4494 71.9016C16.9645 72.535 17.5074 73.1452 18.0766 73.7305C18.101 73.7551 18.1254 73.7795 18.15 73.8038L18.1568 73.8107L18.1614 73.8153C18.7131 74.3354 19.0362 75.0529 19.0598 75.8107C19.0834 76.5685 18.8057 77.3048 18.2875 77.8582L18.2875 77.8559ZM27.4642 64.0954C27.2081 64.3712 26.9002 64.5938 26.5581 64.7505C26.2159 64.9073 25.8463 64.9951 25.4702 65.0089C25.0941 65.0227 24.719 64.9623 24.3663 64.8312C24.0135 64.7 23.6901 64.5006 23.4144 64.2444L23.4121 64.2421L23.4076 64.2375L23.3961 64.226L23.364 64.1985L23.2678 64.1046C22.7963 63.632 22.3452 63.1395 21.9155 62.6286C21.079 61.6293 19.9766 60.1717 18.8788 58.29C15.9985 53.3782 14.4796 47.7873 14.4784 42.0933C14.4784 35.1649 16.6855 29.6575 18.8788 25.8942C19.9789 24.0148 21.079 22.5549 21.9178 21.5556C22.3473 21.0446 22.7985 20.5522 23.27 20.0797L23.3136 20.0361L23.364 19.988L23.3961 19.9582L23.4076 19.9467L23.4121 19.9399L23.4167 19.9399C23.9746 19.4349 24.7086 19.1697 25.4603 19.2015C26.2121 19.2333 26.9211 19.5595 27.4343 20.1097C27.9475 20.66 28.2237 21.39 28.2031 22.1421C28.1825 22.8942 27.8669 23.6081 27.3244 24.1294L27.3198 24.134L27.2832 24.1707C27.2442 24.2096 27.1777 24.2738 27.0883 24.3678C26.9096 24.5534 26.6391 24.8468 26.3091 25.241C25.6444 26.034 24.7392 27.2258 23.8316 28.782C21.461 32.8177 20.2101 37.4128 20.2081 42.0933C20.2081 47.7703 22.0118 52.2899 23.8293 55.4023C24.7369 56.9607 25.6399 58.1525 26.3045 58.9432C26.6154 59.3131 26.9411 59.6701 27.2809 60.0135L27.3198 60.0525L27.3175 60.0502C27.8728 60.5675 28.2001 61.2841 28.2276 62.0425C28.2551 62.8009 27.9805 63.5392 27.4642 64.0954ZM14.2148 77.9659L14.2377 77.9888L14.2354 77.9842L14.2286 77.9797L14.2148 77.9659ZM23.4144 64.2467L23.2678 64.1046C23.3213 64.1469 23.3704 64.1945 23.4144 64.2467Z" fill="white"/>
<path d="M43.127 75.5503L59.0671 61.2397C62.1165 58.5033 66.0695 56.99 70.1667 56.9905L80.9432 56.9905C82.6147 56.9905 84.2179 56.3265 85.3998 55.1445C86.5818 53.9625 87.2459 52.3594 87.2459 50.6878L87.2459 33.4987C87.2459 31.8271 86.5818 30.224 85.3998 29.042C84.2179 27.86 82.6147 27.196 80.9432 27.196L70.1667 27.196C66.0692 27.1959 62.1162 25.6818 59.0671 22.9445L43.127 8.63168L43.127 75.5503Z" fill="white"/>
</svg>
