<svg width="135" height="66" viewBox="0 0 135 66" fill="none" xmlns="http://www.w3.org/2000/svg">
<path d="M7.85423 18.3598H1.03687V7.02002H7.49523C10.0427 7.02002 11.9084 7.45176 13.0924 8.35221C14.2763 9.25266 14.8505 10.728 14.8505 12.7442C14.8509 16.416 12.5188 18.2878 7.85423 18.3598Z" fill="#494949"/>
<path d="M15.8556 31.1754C15.9375 32.8207 15.2631 34.4127 14.0255 35.4952C12.8053 36.5394 11.1191 37.0433 8.93062 37.0433H1.03687V24.9116H9.50478C13.7386 24.9476 15.8556 27.0355 15.8556 31.1754Z" fill="#494949"/>
<path d="M13.4875 0.0358887H27.804V43.8827L14.9949 43.8469C17.1783 43.3985 19.2289 42.4499 20.9866 41.0752C23.7493 38.846 25.1127 35.5675 25.1127 31.2477C25.1922 28.9497 24.497 26.6921 23.1394 24.8395C21.8009 23.0702 19.8816 21.8332 17.7212 21.3474C19.6382 20.6392 21.2833 19.3415 22.4215 17.6395C23.5561 15.9102 24.1438 13.8774 24.1077 11.8074C24.1077 7.77563 22.7085 4.71528 19.874 2.62753C17.9591 1.30652 15.7793 0.421945 13.4875 0.0358887Z" fill="#494949"/>
<path d="M43.8425 18.3598H37.0251V7.02002H43.4835C46.031 7.02002 47.8967 7.45176 49.0807 8.35221C50.2646 9.25266 50.8388 10.728 50.8388 12.7442C50.8392 16.416 48.5071 18.2878 43.8425 18.3598Z" fill="#494949"/>
<path d="M51.8438 31.1754C51.9258 32.8207 51.2513 34.4127 50.0138 35.4952C48.7936 36.5394 47.1074 37.0433 44.9189 37.0433H37.0251V24.9116H45.4931C49.7269 24.9476 51.8438 27.0355 51.8438 31.1754Z" fill="#494949"/>
<path d="M71.9012 42.551C72.9324 43.1369 74.013 43.6308 75.1304 44.0269L50.5522 43.9547C52.8892 43.5154 55.0898 42.5287 56.9749 41.0751C59.7375 38.8459 61.101 35.5674 61.101 31.2476C61.1805 28.9496 60.4852 26.6919 59.1277 24.8394C57.7789 23.0814 55.8639 21.8472 53.7095 21.3473C55.6265 20.6391 57.2715 19.3414 58.4097 17.6394C59.5444 15.9101 60.1321 13.8773 60.0959 11.8073C60.0959 7.77552 58.6968 4.71518 55.8623 2.62743C53.9536 1.28808 51.7723 0.390673 49.4758 0H74.5206C73.4516 0.374604 72.4285 0.869744 71.4709 1.47591C68.5845 3.26197 66.3071 5.88583 64.9406 8.99978C63.4337 12.2758 62.6802 16.1637 62.6802 20.6634V23.7231C62.6255 27.6513 63.4597 31.5408 65.1201 35.0987C66.5724 38.2169 68.938 40.8166 71.9012 42.551Z" fill="#494949"/>
<path d="M98.4527 0.0358887L113.702 44.0991L90.2718 44.027C90.915 43.8469 91.5634 43.631 92.2094 43.4151C94.9288 42.5117 97.3655 40.911 99.2782 38.7715V20.8435H81.6244V27.6834H90.0204V35.4232C88.5494 36.8991 86.0738 37.6523 82.595 37.6523C79.1506 37.6523 76.5313 36.4644 74.7369 34.0523C72.9425 31.6401 72.0474 28.0765 72.0474 23.3607V20.4834C72.083 15.8034 72.9086 12.2755 74.5229 9.93553C76.1734 7.55976 78.5414 6.37187 81.6993 6.37187C84.1748 6.37187 86.1124 6.9837 87.5121 8.17159C88.9119 9.35948 89.8444 11.2314 90.2391 13.8236H99.2431C98.669 8.96351 96.9109 5.25555 93.9331 2.73664C92.513 1.5501 90.8808 0.645676 89.1235 0.0716719H98.4527V0.0358887Z" fill="#494949"/>
<path d="M128.629 0.0358887L118.618 33.3348L108.679 0.0358887H128.629Z" fill="#494949"/>
<path d="M2.46344 58.2642C2.99428 58.2642 3.41453 58.3858 3.72419 58.6291C4.03384 58.8669 4.18867 59.1876 4.18867 59.5913C4.18867 60.2382 3.92325 60.6889 3.39241 60.9433C4.11126 61.1921 4.47068 61.651 4.47068 62.3201C4.47068 62.8233 4.25503 63.2436 3.82372 63.5809C3.39241 63.9127 2.85051 64.0785 2.19802 64.0785C1.85518 64.0785 1.34369 64.0481 0.663552 63.9873L0.763085 61.9718L0.663552 58.2642H2.46344ZM2.35561 61.5239H1.68376L1.67547 61.8308L1.73353 63.1827C2.05425 63.2104 2.30031 63.2242 2.47173 63.2242C2.7648 63.2242 2.99151 63.1523 3.15187 63.0086C3.31776 62.8593 3.4007 62.6436 3.4007 62.3616C3.4007 62.0796 3.31776 61.8695 3.15187 61.7312C2.98598 61.593 2.72056 61.5239 2.35561 61.5239ZM2.16484 59.1019H1.75841L1.70865 60.7193H2.24778C2.52979 60.7193 2.74545 60.6447 2.89475 60.4954C3.04404 60.3405 3.11869 60.1221 3.11869 59.8401C3.11869 59.348 2.80074 59.1019 2.16484 59.1019ZM5.47495 63.9873L5.57448 61.9718L5.47495 58.4301L6.65276 58.2227L6.53664 61.8308L6.5947 63.1745L8.29505 63.0417L8.20381 63.9873H5.47495ZM10.7567 64.0785C10.259 64.0785 9.83876 63.9265 9.49592 63.6224C9.15862 63.3182 8.98996 62.9422 8.98996 62.4943L8.90702 58.4301L10.1014 58.2227L9.9687 61.8556C9.9687 62.2427 10.0572 62.5441 10.2341 62.7597C10.4166 62.9754 10.6958 63.0832 11.0719 63.0832C11.4479 63.0832 11.7188 62.9782 11.8847 62.768C12.0506 62.5579 12.1335 62.1957 12.1335 61.6815L12.034 58.4301L13.1952 58.2227L13.104 61.8722C13.104 62.5247 12.8856 63.0556 12.4487 63.4648C12.0119 63.8739 11.4479 64.0785 10.7567 64.0785ZM14.4093 63.9873L14.5088 61.9718L14.4093 58.2642H17.5197L17.4284 59.1517H15.5622L15.5124 60.6198H17.1713L17.08 61.499H15.4792L15.4709 61.8308L15.529 63.1081H17.5362L17.445 63.9873H14.4093ZM20.2915 58.2642C20.8224 58.2642 21.2426 58.3858 21.5523 58.6291C21.8619 58.8669 22.0168 59.1876 22.0168 59.5913C22.0168 60.2382 21.7514 60.6889 21.2205 60.9433C21.9394 61.1921 22.2988 61.651 22.2988 62.3201C22.2988 62.8233 22.0831 63.2436 21.6518 63.5809C21.2205 63.9127 20.6786 64.0785 20.0261 64.0785C19.6833 64.0785 19.1718 64.0481 18.4917 63.9873L18.5912 61.9718L18.4917 58.2642H20.2915ZM20.1837 61.5239H19.5119L19.5036 61.8308L19.5616 63.1827C19.8823 63.2104 20.1284 63.2242 20.2998 63.2242C20.5929 63.2242 20.8196 63.1523 20.98 63.0086C21.1459 62.8593 21.2288 62.6436 21.2288 62.3616C21.2288 62.0796 21.1459 61.8695 20.98 61.7312C20.8141 61.593 20.5487 61.5239 20.1837 61.5239ZM19.9929 59.1019H19.5865L19.5367 60.7193H20.0759C20.3579 60.7193 20.5735 60.6447 20.7228 60.4954C20.8721 60.3405 20.9468 60.1221 20.9468 59.8401C20.9468 59.348 20.6288 59.1019 19.9929 59.1019ZM23.3031 63.9873L23.4026 61.9718L23.3031 58.2642H26.4135L26.3222 59.1517H24.456L24.4062 60.6198H26.0651L25.9738 61.499H24.373L24.3647 61.8308L24.4228 63.1081H26.43L26.3388 63.9873H23.3031ZM27.3855 63.9873L27.485 61.9718L27.3855 58.4301L28.5633 58.2227L28.4471 61.8308L28.5052 63.1745L30.2055 63.0417L30.1143 63.9873H27.3855ZM30.9171 63.9873L31.0166 61.9718L30.9171 58.4301L32.0949 58.2227L31.9787 61.8308L32.0368 63.1745L33.7371 63.0417L33.6459 63.9873H30.9171ZM37.7274 64.0785C37.003 64.0785 36.4197 63.8352 35.9773 63.3486C35.5349 62.862 35.3137 62.2178 35.3137 61.416C35.3137 60.5037 35.5902 59.735 36.1432 59.1102C36.6961 58.4854 37.3763 58.1729 38.1836 58.1729C38.5043 58.1729 38.8001 58.2033 39.0711 58.2642C39.3476 58.3195 39.5439 58.3775 39.66 58.4384L39.8259 58.5296L39.3448 59.6825C39.1789 59.5719 38.955 59.4696 38.673 59.3756C38.391 59.2761 38.1421 59.2263 37.9265 59.2263C37.4786 59.2263 37.1191 59.3839 36.8482 59.6991C36.5772 60.0143 36.4418 60.4318 36.4418 60.9516C36.4418 61.6538 36.569 62.2012 36.8233 62.5938C37.0832 62.9864 37.4426 63.1827 37.9016 63.1827C38.2002 63.1827 38.4822 63.1413 38.7476 63.0583V61.7727H37.6776L37.7606 60.935H39.7512L39.6766 62.287L39.7346 63.7219C38.9218 63.9597 38.2527 64.0785 37.7274 64.0785ZM41.0016 63.9873L41.1011 61.9718L41.0016 58.4301L42.1794 58.2227L42.0632 61.8308L42.1213 63.1745L43.8216 63.0417L43.7304 63.9873H41.0016ZM46.8556 58.1812C47.5081 58.1812 48.0445 58.4301 48.4647 58.9277C48.8905 59.4254 49.1034 60.0585 49.1034 60.8271C49.1034 61.8003 48.8518 62.5856 48.3486 63.1827C47.8454 63.7799 47.1846 64.0785 46.3662 64.0785C45.7303 64.0785 45.1967 63.8242 44.7654 63.3155C44.3341 62.8012 44.1184 62.1681 44.1184 61.416C44.1184 60.476 44.3756 59.7019 44.8898 59.0936C45.4041 58.4854 46.0593 58.1812 46.8556 58.1812ZM47.9753 61.2916C47.9753 59.8926 47.5164 59.1931 46.5985 59.1931C46.1782 59.1931 45.8464 59.3507 45.6031 59.6659C45.3654 59.9756 45.2465 60.4428 45.2465 61.0677C45.2465 61.687 45.3737 62.1985 45.628 62.6021C45.8879 63.0003 46.228 63.1993 46.6482 63.1993C47.074 63.1993 47.4003 63.0307 47.627 62.6934C47.8592 62.3505 47.9753 61.8833 47.9753 61.2916ZM51.8167 58.2642C52.3476 58.2642 52.7678 58.3858 53.0775 58.6291C53.3871 58.8669 53.542 59.1876 53.542 59.5913C53.542 60.2382 53.2766 60.6889 52.7457 60.9433C53.4646 61.1921 53.824 61.651 53.824 62.3201C53.824 62.8233 53.6083 63.2436 53.177 63.5809C52.7457 63.9127 52.2038 64.0785 51.5513 64.0785C51.2085 64.0785 50.697 64.0481 50.0169 63.9873L50.1164 61.9718L50.0169 58.2642H51.8167ZM51.7089 61.5239H51.0371L51.0288 61.8308L51.0868 63.1827C51.4075 63.2104 51.6536 63.2242 51.825 63.2242C52.1181 63.2242 52.3448 63.1523 52.5052 63.0086C52.6711 62.8593 52.754 62.6436 52.754 62.3616C52.754 62.0796 52.6711 61.8695 52.5052 61.7312C52.3393 61.593 52.0739 61.5239 51.7089 61.5239ZM51.5181 59.1019H51.1117L51.0619 60.7193H51.6011C51.8831 60.7193 52.0987 60.6447 52.248 60.4954C52.3973 60.3405 52.472 60.1221 52.472 59.8401C52.472 59.348 52.154 59.1019 51.5181 59.1019ZM58.1792 64.0288L57.7728 62.4114H55.7904L55.3508 63.9873L54.2891 63.9044L55.019 61.8888L56.1305 58.3222L57.6152 58.2144L58.6851 61.7644L59.3736 63.8463L58.1792 64.0288ZM56.8687 59.2927H56.7608L56.0475 61.5322H57.5239L56.8687 59.2927ZM60.1581 63.9873L60.2576 61.9718L60.1581 58.4301L61.3359 58.2227L61.2197 61.8308L61.2778 63.1745L62.9781 63.0417L62.8869 63.9873H60.1581ZM66.761 62.9505H66.8606L67.2753 61.5239L68.1462 58.2144L69.1498 58.3637L68.1628 61.6566L67.5158 63.9209L65.9814 64.0288L65.3925 61.8142L64.4303 58.4218L65.6081 58.2144L66.3629 61.416L66.761 62.9505ZM69.9348 63.9873L70.0343 61.9718L69.9348 58.2642H73.0452L72.9539 59.1517H71.0877L71.0379 60.6198H72.6968L72.6056 61.499H71.0047L70.9964 61.8308L71.0545 63.1081H73.0617L72.9705 63.9873H69.9348ZM78.4049 58.2476L78.2971 61.8308L78.3883 63.8048L77.4096 64.0122L74.9378 60.0143V61.8308L75.054 63.9873H74.0172L74.1167 61.9718L74.0172 58.2891L75.0125 58.2393L77.4759 62.2952L77.393 58.372L78.4049 58.2476ZM79.0722 59.218L79.1634 58.2642H83.1033L83.012 59.218L81.5688 59.0936L81.5356 61.8308L81.6352 63.9873H80.474L80.5735 61.9718L80.5403 59.1019L79.0722 59.218ZM85.5197 64.0785C85.022 64.0785 84.6018 63.9265 84.2589 63.6224C83.9216 63.3182 83.753 62.9422 83.753 62.4943L83.67 58.4301L84.8644 58.2227L84.7317 61.8556C84.7317 62.2427 84.8202 62.5441 84.9971 62.7597C85.1796 62.9754 85.4588 63.0832 85.8349 63.0832C86.2109 63.0832 86.4818 62.9782 86.6477 62.768C86.8136 62.5579 86.8965 62.1957 86.8965 61.6815L86.797 58.4301L87.9582 58.2227L87.867 61.8722C87.867 62.5247 87.6486 63.0556 87.2117 63.4648C86.7749 63.8739 86.2109 64.0785 85.5197 64.0785ZM90.657 61.781H90.1842V61.8308L90.2837 63.9873H89.1723L89.2718 61.9718L89.1723 58.2642H90.9721C91.503 58.2642 91.926 58.4079 92.2412 58.6955C92.5564 58.983 92.714 59.3646 92.714 59.8401C92.714 60.1995 92.62 60.5285 92.432 60.8271C92.2495 61.1202 92.0006 61.3525 91.6855 61.5239L93.1287 63.5643L92.1251 64.0785L90.8311 61.7727C90.7924 61.7782 90.7344 61.781 90.657 61.781ZM90.6735 59.1019H90.2671L90.2091 60.9764H90.7731C91.0496 60.9764 91.2624 60.8852 91.4117 60.7027C91.5666 60.5202 91.644 60.2604 91.644 59.923C91.644 59.3756 91.3205 59.1019 90.6735 59.1019ZM93.9756 63.9873L94.0751 61.9718L93.9756 58.2642H97.086L96.9947 59.1517H95.1285L95.0787 60.6198H96.7376L96.6464 61.499H95.0455L95.0372 61.8308L95.0953 63.1081H97.1025L97.0113 63.9873H93.9756Z" fill="#494949"/>
</svg>
