<svg width="184" height="100" viewBox="0 0 184 100" fill="none" xmlns="http://www.w3.org/2000/svg">
<path d="M32.8545 41.3597H26.0371V30.02H32.4955C35.0429 30.02 36.9086 30.4517 38.0926 31.3522C39.2766 32.2526 39.8507 33.7279 39.8507 35.7441C39.8511 39.4159 37.519 41.2878 32.8545 41.3597Z" fill="white"/>
<path d="M40.8558 54.1754C40.9378 55.8206 40.2633 57.4127 39.0258 58.4952C37.8055 59.5394 36.1193 60.0433 33.9309 60.0433H26.0371V47.9116H34.505C38.7389 47.9475 40.8558 50.0355 40.8558 54.1754Z" fill="white"/>
<path d="M38.4883 23.0358H52.8047V66.8826L39.9956 66.8468C42.179 66.3984 44.2297 65.4498 45.9874 64.075C48.75 61.8459 50.1135 58.5674 50.1135 54.2476C50.1929 51.9496 49.4977 49.6919 48.1402 47.8394C46.8016 46.0701 44.8823 44.8331 42.7219 44.3473C44.639 43.6391 46.284 42.3414 47.4222 40.6394C48.5568 38.9101 49.1445 36.8773 49.1084 34.8073C49.1084 30.7755 47.7093 27.7152 44.8747 25.6274C42.9599 24.3064 40.7801 23.4218 38.4883 23.0358Z" fill="white"/>
<path d="M68.8428 41.3597H62.0254V30.02H68.4838C71.0312 30.02 72.8969 30.4517 74.0809 31.3522C75.2649 32.2526 75.839 33.7279 75.839 35.7441C75.8394 39.4159 73.5073 41.2878 68.8428 41.3597Z" fill="white"/>
<path d="M76.8441 54.1754C76.926 55.8206 76.2516 57.4127 75.014 58.4952C73.7938 59.5394 72.1076 60.0433 69.9191 60.0433H62.0254V47.9116H70.4933C74.7272 47.9475 76.8441 50.0355 76.8441 54.1754Z" fill="white"/>
<path d="M96.901 65.551C97.9322 66.1369 99.0127 66.6308 100.13 67.0269L75.552 66.9547C77.8889 66.5154 80.0895 65.5287 81.9747 64.0751C84.7373 61.8459 86.1008 58.5674 86.1008 54.2476C86.1802 51.9496 85.485 49.6919 84.1275 47.8394C82.7786 46.0814 80.8637 44.8472 78.7092 44.3473C80.6263 43.6391 82.2713 42.3414 83.4095 40.6394C84.5441 38.9101 85.1319 36.8773 85.0957 34.8073C85.0957 30.7755 83.6966 27.7152 80.862 25.6274C78.9533 24.2881 76.772 23.3907 74.4756 23H99.5203C98.4514 23.3746 97.4283 23.8697 96.4706 24.4759C93.5842 26.262 91.3069 28.8858 89.9404 31.9998C88.4334 35.2758 87.68 39.1637 87.68 43.6634V46.7231C87.6252 50.6513 88.4594 54.5408 90.1199 58.0987C91.5722 61.2169 93.9378 63.8166 96.901 65.551Z" fill="white"/>
<path d="M123.453 23.0358L138.702 67.099L115.272 67.0269C115.915 66.8468 116.564 66.6309 117.21 66.415C119.929 65.5116 122.366 63.9108 124.279 61.7714V43.8434H106.625V50.6833H115.021V58.423C113.55 59.899 111.074 60.6522 107.595 60.6522C104.151 60.6522 101.532 59.4643 99.7374 57.0521C97.943 54.64 97.0479 51.0763 97.0479 46.3606V43.4832C97.0835 38.8033 97.9091 35.2754 99.5234 32.9354C101.174 30.5596 103.542 29.3717 106.7 29.3717C109.175 29.3717 111.113 29.9836 112.513 31.1715C113.912 32.3594 114.845 34.2312 115.24 36.8235H124.244C123.669 31.9634 121.911 28.2554 118.934 25.7365C117.514 24.55 115.881 23.6456 114.124 23.0715H123.453V23.0358Z" fill="white"/>
<path d="M153.629 23.0358L143.618 56.3347L133.679 23.0358H153.629Z" fill="white"/>
<path d="M27.4634 81.264C27.9943 81.264 28.4145 81.3857 28.7242 81.629C29.0338 81.8668 29.1887 82.1875 29.1887 82.5912C29.1887 83.2381 28.9233 83.6888 28.3924 83.9431C29.1113 84.192 29.4707 84.6509 29.4707 85.32C29.4707 85.8232 29.255 86.2435 28.8237 86.5808C28.3924 86.9125 27.8505 87.0784 27.198 87.0784C26.8552 87.0784 26.3437 87.048 25.6636 86.9872L25.7631 84.9716L25.6636 81.264H27.4634ZM27.3556 84.5237H26.6838L26.6755 84.8306L26.7335 86.1826C27.0542 86.2103 27.3003 86.2241 27.4717 86.2241C27.7648 86.2241 27.9915 86.1522 28.1519 86.0084C28.3178 85.8591 28.4007 85.6435 28.4007 85.3615C28.4007 85.0795 28.3178 84.8693 28.1519 84.7311C27.986 84.5929 27.7206 84.5237 27.3556 84.5237ZM27.1648 82.1018H26.7584L26.7086 83.7192H27.2478C27.5298 83.7192 27.7454 83.6445 27.8947 83.4952C28.044 83.3404 28.1187 83.122 28.1187 82.84C28.1187 82.3478 27.8007 82.1018 27.1648 82.1018ZM30.475 86.9872L30.5745 84.9716L30.475 81.4299L31.6528 81.2226L31.5366 84.8306L31.5947 86.1743L33.295 86.0416L33.2038 86.9872H30.475ZM35.7567 87.0784C35.259 87.0784 34.8388 86.9264 34.4959 86.6222C34.1586 86.3181 33.99 85.9421 33.99 85.4942L33.907 81.4299L35.1014 81.2226L34.9687 84.8555C34.9687 85.2426 35.0572 85.544 35.2341 85.7596C35.4166 85.9753 35.6958 86.0831 36.0719 86.0831C36.4479 86.0831 36.7188 85.978 36.8847 85.7679C37.0506 85.5578 37.1335 85.1956 37.1335 84.6813L37.034 81.4299L38.1952 81.2226L38.104 84.8721C38.104 85.5246 37.8856 86.0554 37.4487 86.4646C37.0119 86.8738 36.4479 87.0784 35.7567 87.0784ZM39.4093 86.9872L39.5088 84.9716L39.4093 81.264H42.5197L42.4284 82.1515H40.5622L40.5124 83.6197H42.1713L42.08 84.4989H40.4792L40.4709 84.8306L40.529 86.108H42.5362L42.445 86.9872H39.4093ZM45.2915 81.264C45.8224 81.264 46.2426 81.3857 46.5523 81.629C46.8619 81.8668 47.0168 82.1875 47.0168 82.5912C47.0168 83.2381 46.7514 83.6888 46.2205 83.9431C46.9394 84.192 47.2988 84.6509 47.2988 85.32C47.2988 85.8232 47.0831 86.2435 46.6518 86.5808C46.2205 86.9125 45.6786 87.0784 45.0261 87.0784C44.6833 87.0784 44.1718 87.048 43.4917 86.9872L43.5912 84.9716L43.4917 81.264H45.2915ZM45.1837 84.5237H44.5119L44.5036 84.8306L44.5616 86.1826C44.8823 86.2103 45.1284 86.2241 45.2998 86.2241C45.5929 86.2241 45.8196 86.1522 45.98 86.0084C46.1459 85.8591 46.2288 85.6435 46.2288 85.3615C46.2288 85.0795 46.1459 84.8693 45.98 84.7311C45.8141 84.5929 45.5487 84.5237 45.1837 84.5237ZM44.9929 82.1018H44.5865L44.5367 83.7192H45.0759C45.3579 83.7192 45.5735 83.6445 45.7228 83.4952C45.8721 83.3404 45.9468 83.122 45.9468 82.84C45.9468 82.3478 45.6288 82.1018 44.9929 82.1018ZM48.3031 86.9872L48.4026 84.9716L48.3031 81.264H51.4135L51.3222 82.1515H49.456L49.4062 83.6197H51.0651L50.9738 84.4989H49.373L49.3647 84.8306L49.4228 86.108H51.43L51.3388 86.9872H48.3031ZM52.3855 86.9872L52.485 84.9716L52.3855 81.4299L53.5633 81.2226L53.4471 84.8306L53.5052 86.1743L55.2055 86.0416L55.1143 86.9872H52.3855ZM55.9171 86.9872L56.0166 84.9716L55.9171 81.4299L57.0949 81.2226L56.9787 84.8306L57.0368 86.1743L58.7371 86.0416L58.6459 86.9872H55.9171ZM62.7274 87.0784C62.003 87.0784 61.4197 86.8351 60.9773 86.3485C60.5349 85.8619 60.3137 85.2177 60.3137 84.4159C60.3137 83.5035 60.5902 82.7349 61.1432 82.1101C61.6961 81.4852 62.3763 81.1728 63.1836 81.1728C63.5043 81.1728 63.8001 81.2032 64.0711 81.264C64.3476 81.3193 64.5439 81.3774 64.66 81.4382L64.8259 81.5295L64.3448 82.6824C64.1789 82.5718 63.955 82.4695 63.673 82.3755C63.391 82.276 63.1421 82.2262 62.9265 82.2262C62.4786 82.2262 62.1191 82.3838 61.8482 82.699C61.5772 83.0142 61.4418 83.4316 61.4418 83.9514C61.4418 84.6537 61.569 85.2011 61.8233 85.5937C62.0832 85.9863 62.4426 86.1826 62.9016 86.1826C63.2002 86.1826 63.4822 86.1412 63.7476 86.0582V84.7726H62.6776L62.7606 83.9348H64.7512L64.6766 85.2868L64.7346 86.7218C63.9218 86.9595 63.2527 87.0784 62.7274 87.0784ZM66.0016 86.9872L66.1011 84.9716L66.0016 81.4299L67.1794 81.2226L67.0632 84.8306L67.1213 86.1743L68.8216 86.0416L68.7304 86.9872H66.0016ZM71.8556 81.1811C72.5081 81.1811 73.0445 81.4299 73.4647 81.9276C73.8905 82.4253 74.1034 83.0584 74.1034 83.827C74.1034 84.8002 73.8518 85.5854 73.3486 86.1826C72.8454 86.7798 72.1846 87.0784 71.3662 87.0784C70.7303 87.0784 70.1967 86.8241 69.7654 86.3153C69.3341 85.8011 69.1184 85.1679 69.1184 84.4159C69.1184 83.4759 69.3756 82.7017 69.8898 82.0935C70.4041 81.4852 71.0593 81.1811 71.8556 81.1811ZM72.9753 84.2915C72.9753 82.8925 72.5164 82.193 71.5985 82.193C71.1782 82.193 70.8464 82.3506 70.6031 82.6658C70.3654 82.9755 70.2465 83.4427 70.2465 84.0676C70.2465 84.6869 70.3737 85.1984 70.628 85.602C70.8879 86.0001 71.228 86.1992 71.6482 86.1992C72.074 86.1992 72.4003 86.0306 72.627 85.6933C72.8592 85.3504 72.9753 84.8832 72.9753 84.2915ZM76.8167 81.264C77.3476 81.264 77.7678 81.3857 78.0775 81.629C78.3871 81.8668 78.542 82.1875 78.542 82.5912C78.542 83.2381 78.2766 83.6888 77.7457 83.9431C78.4646 84.192 78.824 84.6509 78.824 85.32C78.824 85.8232 78.6083 86.2435 78.177 86.5808C77.7457 86.9125 77.2038 87.0784 76.5513 87.0784C76.2085 87.0784 75.697 87.048 75.0169 86.9872L75.1164 84.9716L75.0169 81.264H76.8167ZM76.7089 84.5237H76.0371L76.0288 84.8306L76.0868 86.1826C76.4075 86.2103 76.6536 86.2241 76.825 86.2241C77.1181 86.2241 77.3448 86.1522 77.5052 86.0084C77.6711 85.8591 77.754 85.6435 77.754 85.3615C77.754 85.0795 77.6711 84.8693 77.5052 84.7311C77.3393 84.5929 77.0739 84.5237 76.7089 84.5237ZM76.5181 82.1018H76.1117L76.0619 83.7192H76.6011C76.8831 83.7192 77.0987 83.6445 77.248 83.4952C77.3973 83.3404 77.472 83.122 77.472 82.84C77.472 82.3478 77.154 82.1018 76.5181 82.1018ZM83.1792 87.0287L82.7728 85.4112H80.7904L80.3508 86.9872L79.2891 86.9042L80.019 84.8887L81.1305 81.3221L82.6152 81.2143L83.6851 84.7643L84.3736 86.8462L83.1792 87.0287ZM81.8687 82.2926H81.7608L81.0475 84.532H82.5239L81.8687 82.2926ZM85.1581 86.9872L85.2576 84.9716L85.1581 81.4299L86.3359 81.2226L86.2197 84.8306L86.2778 86.1743L87.9781 86.0416L87.8869 86.9872H85.1581ZM91.761 85.9504H91.8606L92.2753 84.5237L93.1462 81.2143L94.1498 81.3636L93.1628 84.6565L92.5158 86.9208L90.9814 87.0287L90.3925 84.814L89.4303 81.4216L90.6081 81.2143L91.3629 84.4159L91.761 85.9504ZM94.9348 86.9872L95.0343 84.9716L94.9348 81.264H98.0452L97.9539 82.1515H96.0877L96.0379 83.6197H97.6968L97.6056 84.4989H96.0047L95.9964 84.8306L96.0545 86.108H98.0617L97.9705 86.9872H94.9348ZM103.405 81.2475L103.297 84.8306L103.388 86.8047L102.41 87.0121L99.9378 83.0142V84.8306L100.054 86.9872H99.0172L99.1167 84.9716L99.0172 81.2889L100.012 81.2392L102.476 85.2951L102.393 81.3719L103.405 81.2475ZM104.072 82.2179L104.163 81.264H108.103L108.012 82.2179L106.569 82.0935L106.536 84.8306L106.635 86.9872H105.474L105.573 84.9716L105.54 82.1018L104.072 82.2179ZM110.52 87.0784C110.022 87.0784 109.602 86.9264 109.259 86.6222C108.922 86.3181 108.753 85.9421 108.753 85.4942L108.67 81.4299L109.864 81.2226L109.732 84.8555C109.732 85.2426 109.82 85.544 109.997 85.7596C110.18 85.9753 110.459 86.0831 110.835 86.0831C111.211 86.0831 111.482 85.978 111.648 85.7679C111.814 85.5578 111.897 85.1956 111.897 84.6813L111.797 81.4299L112.958 81.2226L112.867 84.8721C112.867 85.5246 112.649 86.0554 112.212 86.4646C111.775 86.8738 111.211 87.0784 110.52 87.0784ZM115.657 84.7809H115.184V84.8306L115.284 86.9872H114.172L114.272 84.9716L114.172 81.264H115.972C116.503 81.264 116.926 81.4078 117.241 81.6954C117.556 81.9829 117.714 82.3644 117.714 82.84C117.714 83.1994 117.62 83.5284 117.432 83.827C117.249 84.1201 117.001 84.3523 116.685 84.5237L118.129 86.5642L117.125 87.0784L115.831 84.7726C115.792 84.7781 115.734 84.7809 115.657 84.7809ZM115.674 82.1018H115.267L115.209 83.9763H115.773C116.05 83.9763 116.262 83.8851 116.412 83.7026C116.567 83.5201 116.644 83.2602 116.644 82.9229C116.644 82.3755 116.321 82.1018 115.674 82.1018ZM118.976 86.9872L119.075 84.9716L118.976 81.264H122.086L121.995 82.1515H120.128L120.079 83.6197H121.738L121.646 84.4989H120.046L120.037 84.8306L120.095 86.108H122.103L122.011 86.9872H118.976Z" fill="white"/>
</svg>
