<svg width="204" height="48" viewBox="0 0 204 48" fill="none" xmlns="http://www.w3.org/2000/svg">
<path fill-rule="evenodd" clip-rule="evenodd" d="M23.9158 0L55 0.0071989V0.00731888V40.801H31.0886L31.0889 47.9972L0.0040649 48L0 7.21342L23.9155 7.20622L23.9158 0ZM46.6309 18.0035H26.3064V22.8031H8.37321V14.4049H31.0886L31.0889 7.19866H46.6312L46.6309 18.0035ZM46.6309 33.6018H23.9155V40.7981H8.37321V30.0018H28.6977V25.2025H46.6309V33.6018Z" fill="#494949"/>
<path d="M80.5454 0V4.88826H66.6176V9.30012H79.1419V14.1887H66.6176V18.9464H81.0625V23.9208H62V0H80.5454Z" fill="#494949"/>
<path d="M88.8596 0L101.088 16.0918V0H105.669V23.9208H101.273L89.0448 7.78664V23.9208H84.5006V0H88.8596Z" fill="#494949"/>
<path d="M129.869 0V4.84448H121.557V23.9208H116.939V4.84448H108.626V0H129.869Z" fill="#494949"/>
<path d="M151.372 0V4.88826H137.444V9.30012H149.968V14.1887H137.444V18.9464H151.889V23.9208H132.826V0H151.372Z" fill="#494949"/>
<path fill-rule="evenodd" clip-rule="evenodd" d="M175.793 9.38624C175.793 3.76361 172.172 0 167.371 0H167.37H155.327V23.9209H159.944V18.6004H165.56L169.956 23.9209H174.981L170.282 18.1094C173.407 17.7751 175.793 14.6349 175.793 9.38624ZM167.185 13.6693H159.944V4.93131H167.185C169.549 4.93131 171.175 6.61798 171.175 9.38624C171.175 12.1551 169.549 13.6693 167.185 13.6693Z" fill="#494949"/>
<path d="M73.2259 28.0884V29.8159H63.7941V33.7821H72.2597V35.5097H63.7941V39.7917H73.57V41.5437H62V28.0884H73.2259Z" fill="#494949"/>
<path d="M78.1312 28.0884L87.379 39.0378V28.0884H89.1501V41.5437H87.1492L77.9245 30.5705V41.5437H76.1531V28.0884H78.1312Z" fill="#494949"/>
<path d="M104.906 34.025V41.5438H103.71L103.411 39.8158C102.146 40.9139 100.696 41.5438 98.4187 41.5438C94.3469 41.5438 91.3801 38.952 91.3801 34.7485C91.3801 30.5683 94.4394 28 98.4187 28C101.271 28 103.181 29.0041 104.585 30.9425L103.135 31.8063C102.053 30.4047 100.559 29.6816 98.3728 29.6816C95.2214 29.6816 93.197 31.6895 93.197 34.7485C93.197 37.7612 95.3591 39.8629 98.3728 39.8629C100.605 39.8629 102.03 39.2319 103.181 37.9712V35.6824L99.6839 35.6719V34.0249H104.906V34.025Z" fill="#494949"/>
<path d="M107.528 41.5439H109.322V28.0881H107.528V41.5439Z" fill="#494949"/>
<path d="M113.923 28.0884L123.169 39.0378V28.0884H124.94V41.5437H122.94L113.715 30.5705V41.5437H111.944V28.0884H113.923Z" fill="#494949"/>
<path d="M138.788 28.0884V29.8159H129.356V33.7821H137.821V35.5097H129.356V39.7917H139.133V41.5437H127.561V28.0884H138.788Z" fill="#494949"/>
<path d="M152.774 28.0884V29.8159H143.341V33.7821H151.807V35.5097H143.341V39.7917H153.117V41.5437H141.547V28.0884H152.774Z" fill="#494949"/>
<path fill-rule="evenodd" clip-rule="evenodd" d="M168.069 33.1982C168.069 30.1322 165.815 28.0884 162.94 28.0884H155.532V41.5437H157.326V38.2837H163.583L165.309 41.5437H167.287L165.263 37.7727C166.942 37.0181 168.069 35.412 168.069 33.1982ZM162.916 36.5316H157.326V29.8408H162.916C164.894 29.8408 166.275 31.1544 166.275 33.1982C166.275 35.2909 164.895 36.5316 162.916 36.5316Z" fill="#494949"/>
<path d="M170.23 41.5439H172.024V28.0881H170.23V41.5439Z" fill="#494949"/>
<path d="M176.625 28.0884L185.873 39.0378V28.0884H187.644V41.5437H185.643L176.418 30.5705V41.5437H174.646V28.0884H176.625Z" fill="#494949"/>
<path d="M203.399 34.025V41.5438H202.204L201.904 39.8158C200.639 40.9139 199.189 41.5438 196.912 41.5438C192.84 41.5438 189.873 38.952 189.873 34.7485C189.873 30.5683 192.933 28 196.912 28C199.764 28 201.674 29.0041 203.078 30.9425L201.628 31.8063C200.546 30.4047 199.052 29.6816 196.866 29.6816C193.715 29.6816 191.69 31.6895 191.69 34.7485C191.69 37.7612 193.852 39.8629 196.866 39.8629C199.098 39.8629 200.524 39.2319 201.674 37.9712V35.6824L198.177 35.6719V34.0249H203.399V34.025Z" fill="#494949"/>
</svg>
