<svg width="204" height="48" viewBox="0 0 204 48" fill="none" xmlns="http://www.w3.org/2000/svg">
<g opacity="0.7">
<path fill-rule="evenodd" clip-rule="evenodd" d="M23.9158 0L55 0.0071989V0.00731888V40.801H31.0886L31.0889 47.9972L0.0040649 48L0 7.21342L23.9155 7.20622L23.9158 0ZM46.6309 18.0035H26.3064V22.8031H8.37321V14.4049H31.0886L31.0889 7.19866H46.6312L46.6309 18.0035ZM46.6309 33.6018H23.9155V40.7981H8.37321V30.0018H28.6977V25.2025H46.6309V33.6018Z" fill="#494949"/>
<path d="M80.5454 0V4.88826H66.6176V9.30012H79.1419V14.1887H66.6176V18.9464H81.0625V23.9208H62V0H80.5454Z" fill="#494949"/>
<path d="M88.8595 0L101.088 16.0918V0H105.668V23.9208H101.273L89.0447 7.78664V23.9208H84.5005V0H88.8595Z" fill="#494949"/>
<path d="M129.869 0V4.84448H121.557V23.9208H116.939V4.84448H108.626V0H129.869Z" fill="#494949"/>
<path d="M151.372 0V4.88826H137.444V9.30012H149.968V14.1887H137.444V18.9464H151.889V23.9208H132.826V0H151.372Z" fill="#494949"/>
<path fill-rule="evenodd" clip-rule="evenodd" d="M175.793 9.38624C175.793 3.76361 172.172 0 167.371 0H167.371H155.327V23.9209H159.944V18.6004H165.56L169.956 23.9209H174.981L170.282 18.1094C173.407 17.7751 175.793 14.6349 175.793 9.38624ZM167.185 13.6693H159.944V4.93131H167.185C169.55 4.93131 171.176 6.61798 171.176 9.38624C171.176 12.1551 169.55 13.6693 167.185 13.6693Z" fill="#494949"/>
<path d="M73.2259 28.0884V29.8159H63.7941V33.7821H72.2597V35.5098H63.7941V39.7917H73.57V41.5438H62V28.0884H73.2259Z" fill="#494949"/>
<path d="M78.1309 28.0884L87.3788 39.0378V28.0884H89.1498V41.5438H87.149L77.9243 30.5706V41.5438H76.1528V28.0884H78.1309Z" fill="#494949"/>
<path d="M104.906 34.025V41.5438H103.71L103.41 39.8158C102.145 40.9139 100.696 41.5438 98.4185 41.5438C94.3467 41.5438 91.3799 38.952 91.3799 34.7485C91.3799 30.5683 94.4391 28 98.4185 28C101.271 28 103.18 29.0041 104.584 30.9425L103.135 31.8063C102.053 30.4047 100.558 29.6816 98.3726 29.6816C95.2212 29.6816 93.1968 31.6895 93.1968 34.7485C93.1968 37.7612 95.3589 39.8629 98.3726 39.8629C100.604 39.8629 102.03 39.2319 103.18 37.9712V35.6824L99.6836 35.6719V34.0249H104.906V34.025Z" fill="#494949"/>
<path d="M107.528 41.5438H109.322V28.088H107.528V41.5438Z" fill="#494949"/>
<path d="M113.922 28.0884L123.169 39.0378V28.0884H124.94V41.5438H122.94L113.715 30.5706V41.5438H111.944V28.0884H113.922Z" fill="#494949"/>
<path d="M138.788 28.0884V29.8159H129.355V33.7821H137.821V35.5098H129.355V39.7917H139.132V41.5438H127.561V28.0884H138.788Z" fill="#494949"/>
<path d="M152.774 28.0884V29.8159H143.341V33.7821H151.807V35.5098H143.341V39.7917H153.117V41.5438H141.547V28.0884H152.774Z" fill="#494949"/>
<path fill-rule="evenodd" clip-rule="evenodd" d="M168.069 33.1981C168.069 30.1321 165.815 28.0883 162.94 28.0883H155.532V41.5436H157.326V38.2836H163.584L165.309 41.5436H167.287L165.263 37.7726C166.942 37.018 168.069 35.4119 168.069 33.1981ZM162.916 36.5316H157.326V29.8407H162.916C164.895 29.8407 166.275 31.1543 166.275 33.1981C166.275 35.2908 164.895 36.5316 162.916 36.5316Z" fill="#494949"/>
<path d="M170.23 41.5438H172.024V28.088H170.23V41.5438Z" fill="#494949"/>
<path d="M176.624 28.0884L185.873 39.0378V28.0884H187.644V41.5438H185.643L176.418 30.5706V41.5438H174.646V28.0884H176.624Z" fill="#494949"/>
<path d="M203.399 34.025V41.5438H202.204L201.904 39.8158C200.639 40.9139 199.19 41.5438 196.913 41.5438C192.84 41.5438 189.874 38.952 189.874 34.7485C189.874 30.5683 192.933 28 196.913 28C199.765 28 201.674 29.0041 203.078 30.9425L201.629 31.8063C200.547 30.4047 199.052 29.6816 196.866 29.6816C193.715 29.6816 191.69 31.6895 191.69 34.7485C191.69 37.7612 193.853 39.8629 196.866 39.8629C199.098 39.8629 200.524 39.2319 201.674 37.9712V35.6824L198.178 35.6719V34.0249H203.399V34.025Z" fill="#494949"/>
</g>
</svg>
