<svg width="134" height="94" viewBox="0 0 134 94" fill="none" xmlns="http://www.w3.org/2000/svg">
<circle cx="61.1898" cy="21.1898" r="13.6556" stroke="white" stroke-width="15.0683"/>
<path d="M62.4884 42.3794C76.9888 42.3795 74.6487 20.6798 66.2299 17.8934C72.3101 22.6086 52.6669 45.2727 45.6506 35.1462" stroke="#9E9E9E" stroke-width="0.762832"/>
<path d="M60.7184 0.470722C44.7078 -0.00013888 47.5338 21.6602 56.0095 24.3811C49.8882 19.7767 69.1958 -3.76751 76.7299 7.53371" stroke="#9E9E9E" stroke-width="0.800503"/>
<path d="M16.8262 80V75.4323H6.20736V70.5133H16.4749V65.9456H6.20736V61.1437H16.8262V56.576H1.44448V80H16.8262ZM43.6899 65.5162V62.1978C43.6899 61.3389 43.4557 60.3238 42.9481 59.6211C42.5577 59.1136 41.3865 57.9034 40.84 57.4739C40.0982 56.9274 38.888 56.576 37.912 56.576H26.5123V80H31.2752V71.0598H35.023L39.6688 80H44.9782C44.9782 80 41.816 74.2221 39.903 70.7085C40.2153 70.5523 40.5277 70.3962 40.84 70.1619C41.3865 69.7715 42.5968 68.6003 42.9481 68.0538C43.4557 67.312 43.6899 66.4531 43.6899 65.5162ZM38.927 65.5552C38.6928 65.9456 38.0291 66.4922 37.912 66.4922H31.2752V61.1437H37.912C38.3024 61.3389 38.7318 61.7683 38.927 62.0806V65.5552ZM58.4826 80V56.576H53.6807V80H58.4826ZM83.7947 80V75.4323H73.1758V70.5133H83.4434V65.9456H73.1758V61.1437H83.7947V56.576H68.413V80H83.7947ZM108.628 80V75.3933H98.2437V56.576H93.4808V80H108.628ZM131.866 80V75.3933H121.481V56.576H116.719V80H131.866Z" fill="white"/>
</svg>
