<svg width="122" height="107" viewBox="0 0 122 107" fill="none" xmlns="http://www.w3.org/2000/svg">
<path d="M71.6196 82.776V83.2452H72.0889H91.7861H92.2553V82.776V78.2694V77.8002H91.7861H79.0888L91.858 60.7268L91.9515 60.6018V60.4457V56.1923V55.7231H91.4823H72.0889H71.6196V56.1923V60.6989V61.1681H72.0889H84.4188L71.7132 78.1401L71.6196 78.2652V78.4213V82.776ZM99.5843 82.776V83.2452H100.054H103.936H104.406V82.776V61.4557V40.1355V39.6663H103.936H102.661H100.054H99.5843V40.1355V82.776ZM112.129 82.776V83.2452H112.598H116.481H116.95V82.776V74.7809V53.4606V52.9914L116.481 52.9914L114.482 52.9914L112.598 52.9914L112.129 52.9914V53.4606V82.776ZM112.129 46.638V47.1072H112.598H116.481H116.95V46.638V43.973V43.5038H116.481H114.482H112.598H112.129V43.973V46.638Z" fill="white" stroke="white" stroke-width="0.938458"/>
<path d="M42.9712 82.1781L42.9746 82.1804C44.8747 83.4471 46.9738 84.0821 49.2605 84.0821C50.5929 84.0821 51.8605 83.8716 53.0605 83.4484C54.2797 83.0302 55.3825 82.4709 56.366 81.7689C57.0022 81.3299 57.5667 80.8538 58.0576 80.34V83.1065V83.5757H58.5268H63.7929H64.2622V83.1065V56.5228V56.0536H63.7929H58.5268H58.0576V56.5228V59.1533C57.6838 58.7157 57.2657 58.31 56.804 57.9362C55.913 57.154 54.8664 56.5532 53.6701 56.131L53.5139 56.5734L53.6701 56.131C52.4658 55.7059 51.1463 55.4966 49.7163 55.4966C47.3032 55.4966 45.1065 56.1099 43.1381 57.3402L43.1381 57.3401L43.1349 57.3422C41.2047 58.5705 39.6657 60.2705 38.5167 62.4292L38.5167 62.4292L38.5154 62.4317C37.395 64.5674 36.8413 67.0072 36.8413 69.7387C36.8413 72.4377 37.3955 74.8759 38.5139 77.0429C39.6268 79.199 41.1118 80.915 42.9712 82.1781ZM57.2463 65.3407L57.2463 65.3407L57.2506 65.349C57.9198 66.6237 58.2602 68.0832 58.2602 69.7387C58.2602 71.4294 57.9192 72.9242 57.2484 74.2339L57.2463 74.238C56.6073 75.5161 55.7182 76.5138 54.5778 77.2424C53.4455 77.9659 52.1341 78.3332 50.6277 78.3332C49.1583 78.3332 47.8641 77.9675 46.7308 77.244C45.6239 76.516 44.7327 75.5175 44.0587 74.2359C43.4209 72.9258 43.0965 71.4301 43.0965 69.7387C43.0965 68.0814 43.4207 66.6204 44.0576 65.3448C44.7318 64.0622 45.6233 63.063 46.7308 62.3346C47.8642 61.6112 49.1583 61.2454 50.6277 61.2454C52.1341 61.2454 53.4455 61.6128 54.5778 62.3362C55.7182 63.0648 56.6073 64.0625 57.2463 65.3407Z" fill="white" stroke="white" stroke-width="0.938458"/>
<path d="M118.173 1.97643C121.503 8.5682 119.353 14.515 115.695 18.4005C114.664 19.4961 113.489 20.4765 112.218 21.5126L112.73 22.2932L112.8 22.2568C112.8 22.2568 112.8 22.2568 112.8 22.2568C115.85 20.6987 117.987 18.8804 119.365 17.4465C119.766 17.0283 120.103 16.6428 120.38 16.3058C119.764 20.9603 116.957 23.9766 114.081 25.4452C113.141 25.9255 112.159 26.2727 111.08 26.653C108.891 27.4251 106.197 28.6016 104.416 30.1695C103.071 31.3534 102.363 32.4458 101.819 33.5122C100.911 30.2831 101.72 27.1414 103.359 24.1605C105.183 20.8421 108.002 17.7841 110.514 15.1163C114.136 11.2686 116.111 7.67054 117.182 5.02343C117.689 3.76809 117.993 2.72746 118.173 1.97643Z" fill="white" stroke="white" stroke-width="0.938458"/>
<circle cx="15.9902" cy="70.6235" r="13.1748" stroke="white" stroke-width="5.63075"/>
<mask id="path-5-inside-1_1561_8098" fill="white">
<path d="M31.9804 90.1284C31.9804 94.3692 30.2957 98.4364 27.2969 101.435C24.2982 104.434 20.231 106.119 15.9902 106.119C11.7493 106.119 7.68216 104.434 4.68342 101.435C1.68468 98.4364 6.40352e-07 94.3692 0 90.1284L6.37095 90.1284C6.37095 92.6795 7.3844 95.1262 9.18836 96.9302C10.9923 98.7341 13.439 99.7476 15.9902 99.7476C18.5414 99.7476 20.988 98.7341 22.792 96.9302C24.596 95.1262 25.6094 92.6795 25.6094 90.1284H31.9804Z"/>
</mask>
<path d="M31.9804 90.1284C31.9804 94.3692 30.2957 98.4364 27.2969 101.435C24.2982 104.434 20.231 106.119 15.9902 106.119C11.7493 106.119 7.68216 104.434 4.68342 101.435C1.68468 98.4364 6.40352e-07 94.3692 0 90.1284L6.37095 90.1284C6.37095 92.6795 7.3844 95.1262 9.18836 96.9302C10.9923 98.7341 13.439 99.7476 15.9902 99.7476C18.5414 99.7476 20.988 98.7341 22.792 96.9302C24.596 95.1262 25.6094 92.6795 25.6094 90.1284H31.9804Z" stroke="white" stroke-width="22.523" mask="url(#path-5-inside-1_1561_8098)"/>
<path d="M31.37 56.3079L27.5396 56.2304L27.462 60.0608L31.2925 60.1384L31.37 56.3079ZM28.3978 58.5117L23.4619 60.1462L27.2149 64.0542L29.0478 59.1885L28.3978 58.5117ZM29.091 57.8459L28.0594 58.8367L28.7094 59.5135L29.741 58.5228L29.091 57.8459Z" fill="white"/>
</svg>
