<svg width="216" height="75" viewBox="0 0 216 75" fill="none" xmlns="http://www.w3.org/2000/svg">
<rect x="36.6664" y="7.81437" width="42.3213" height="40.8303" transform="rotate(44.9615 36.6664 7.81437)" stroke="white" stroke-width="11.0512"/>
<path d="M27.3037 37.054L37.0548 27.3029H63.5451L73.2962 37.2165L27.3037 37.054Z" fill="white" stroke="white" stroke-width="0.325035"/>
<path d="M27.3037 37.5415L37.0548 47.2926H63.5451L73.2962 37.379L27.3037 37.5415Z" fill="white" stroke="white" stroke-width="0.325035"/>
<path d="M90.5243 32.0263V17.2567H93.2078V23.5182H99.9686V17.2567H102.631V32.0263H99.9686V25.8272H93.2078V32.0263H90.5243ZM106.207 32.0263V17.2567H118.168V32.0263H115.484V19.5658H108.89V32.0263H106.207ZM120.644 24.1631C120.644 22.3602 121.268 20.8902 122.516 19.753C123.778 18.6158 125.408 18.0472 127.405 18.0472V16.4246H130.088V18.0472C132.085 18.0472 133.708 18.6158 134.956 19.753C136.218 20.8902 136.849 22.3602 136.849 24.1631C136.849 26.0075 136.225 27.5122 134.977 28.6771C133.729 29.8282 132.099 30.4037 130.088 30.4037V32.2759H127.405V30.4037C125.408 30.4037 123.778 29.8213 122.516 28.6563C121.268 27.4914 120.644 25.9937 120.644 24.1631ZM130.088 28.1571C131.281 28.1571 132.252 27.7896 133 27.0546C133.749 26.3057 134.124 25.3418 134.124 24.1631C134.124 23.012 133.749 22.0828 133 21.3756C132.252 20.6544 131.281 20.2938 130.088 20.2938V28.1571ZM123.39 24.1631C123.39 25.3418 123.757 26.3057 124.492 27.0546C125.241 27.7896 126.212 28.1571 127.405 28.1571V20.2938C126.212 20.2938 125.241 20.6544 124.492 21.3756C123.757 22.0828 123.39 23.012 123.39 24.1631Z" fill="white"/>
<path d="M90.5243 56.0789V41.3093H99.0117V43.6184H93.2078V56.0789H90.5243ZM101.047 56.0789V41.3093H109.888V43.6184H103.73V47.4876H108.702V49.7966H103.73V53.7699H110.22V56.0789H101.047ZM111.751 48.5901C111.751 46.4683 112.48 44.6862 113.936 43.2439C115.406 41.7878 117.222 41.0597 119.386 41.0597C121.549 41.0597 123.359 41.7878 124.815 43.2439C126.285 44.6862 127.02 46.4683 127.02 48.5901C127.02 50.7674 126.285 52.6049 124.815 54.1027C123.359 55.5866 121.549 56.3285 119.386 56.3285C117.222 56.3285 115.406 55.5866 113.936 54.1027C112.48 52.6049 111.751 50.7674 111.751 48.5901ZM114.518 48.5901C114.518 50.0879 114.99 51.3429 115.933 52.3553C116.876 53.3677 118.027 53.8739 119.386 53.8739C120.745 53.8739 121.896 53.3677 122.839 52.3553C123.782 51.3429 124.254 50.0879 124.254 48.5901C124.254 47.1617 123.782 45.9621 122.839 44.9913C121.896 44.0067 120.745 43.5144 119.386 43.5144C118.027 43.5144 116.876 44.0067 115.933 44.9913C114.99 45.9621 114.518 47.1617 114.518 48.5901ZM128.627 48.2157C128.627 46.4128 129.251 44.9428 130.499 43.8056C131.761 42.6684 133.391 42.0998 135.388 42.0998V40.4772H138.071V42.0998C140.068 42.0998 141.691 42.6684 142.939 43.8056C144.201 44.9428 144.832 46.4128 144.832 48.2157C144.832 50.0601 144.208 51.5648 142.96 52.7298C141.711 53.8808 140.082 54.4563 138.071 54.4563V56.3285H135.388V54.4563C133.391 54.4563 131.761 53.8739 130.499 52.709C129.251 51.544 128.627 50.0463 128.627 48.2157ZM138.071 52.2097C139.264 52.2097 140.235 51.8422 140.983 51.1072C141.732 50.3583 142.107 49.3945 142.107 48.2157C142.107 47.0646 141.732 46.1354 140.983 45.4282C140.235 44.707 139.264 44.3464 138.071 44.3464V52.2097ZM131.373 48.2157C131.373 49.3945 131.74 50.3583 132.475 51.1072C133.224 51.8422 134.195 52.2097 135.388 52.2097V44.3464C134.195 44.3464 133.224 44.707 132.475 45.4282C131.74 46.1354 131.373 47.0646 131.373 48.2157ZM147.301 56.0789V41.3093H149.984V49.8382L149.839 52.1265H149.88C150.352 51.1696 150.768 50.3999 151.128 49.8174L156.703 41.3093H159.366V56.0789H156.703V47.5708L156.849 45.2825H156.807C156.35 46.2256 155.941 46.9883 155.58 47.5708L149.963 56.0789H147.301ZM161.631 54.2275L163.087 52.4385C163.49 52.8684 163.989 53.229 164.585 53.5202C165.182 53.8115 165.792 53.9571 166.416 53.9571C167.22 53.9571 167.858 53.756 168.33 53.3538C168.801 52.9516 169.037 52.3969 169.037 51.6896C169.037 51.0517 168.822 50.5525 168.392 50.1919C167.976 49.8174 167.407 49.6302 166.686 49.6302H164.876V47.4668H166.333C166.998 47.4668 167.546 47.2726 167.976 46.8843C168.406 46.496 168.621 46.0106 168.621 45.4282C168.621 44.8318 168.427 44.3464 168.038 43.972C167.65 43.5837 167.088 43.3895 166.353 43.3895C165.23 43.3895 164.162 43.8056 163.15 44.6377L162.068 42.6823C163.372 41.6006 164.953 41.0597 166.811 41.0597C168.073 41.0597 169.141 41.4203 170.015 42.1414C170.902 42.8626 171.346 43.8472 171.346 45.0953C171.346 46.5515 170.666 47.6471 169.307 48.3821V48.4237C170.07 48.6594 170.673 49.0755 171.117 49.6718C171.561 50.2682 171.783 50.9962 171.783 51.8561C171.783 53.2151 171.29 54.3038 170.306 55.122C169.335 55.9264 168.122 56.3285 166.665 56.3285C165.722 56.3285 164.8 56.1483 163.899 55.7877C163.011 55.4132 162.255 54.8932 161.631 54.2275ZM174.501 56.0789V41.3093H177.184V49.8382L177.038 52.1265H177.08C177.552 51.1696 177.968 50.3999 178.328 49.8174L183.903 41.3093H186.566V56.0789H183.903V47.5708L184.049 45.2825H184.007C183.55 46.2256 183.14 46.9883 182.78 47.5708L177.163 56.0789H174.501ZM190.162 56.0789V41.3093H192.846V47.3212H194.76L198.234 41.3093H201.146L196.965 48.3405V48.3821L201.396 56.0789H198.359L194.76 49.6302H192.846V56.0789H190.162ZM201.805 56.0789L206.984 41.3093H209.813L214.993 56.0789H212.247L210.978 52.2929H205.799L204.55 56.0789H201.805ZM206.464 50.1087H210.313L209.002 46.1562L208.42 43.868H208.378C208.156 44.8388 207.962 45.6015 207.796 46.1562L206.464 50.1087Z" fill="white"/>
<path d="M89.0552 67.0691C89.0552 66.8871 89.089 66.7233 89.1566 66.5777C89.2242 66.432 89.3074 66.315 89.4062 66.2266C89.505 66.133 89.6324 66.0524 89.7885 65.9848C89.9497 65.9172 90.0953 65.8678 90.2253 65.8366C90.3553 65.8054 90.5113 65.782 90.6934 65.7664C90.8754 65.7456 91.0158 65.7352 91.1146 65.7352C91.2134 65.73 91.333 65.7274 91.4734 65.7274H91.7309V65.5948C91.7309 64.8199 91.3746 64.4324 90.6622 64.4324C90.2461 64.4324 89.8743 64.5572 89.5466 64.8069L89.3594 64.5416C89.5102 64.4116 89.7053 64.3076 89.9445 64.2296C90.1837 64.1516 90.4281 64.1126 90.6778 64.1126C91.1302 64.1126 91.4734 64.2374 91.7075 64.487C91.9415 64.7367 92.0585 65.1033 92.0585 65.587V68.1066H91.7309V67.5918L91.7621 67.2407H91.7465C91.6425 67.5112 91.4682 67.74 91.2238 67.9272C90.9846 68.1092 90.7038 68.2002 90.3813 68.2002C90.0277 68.2002 89.7183 68.104 89.453 67.9116C89.1878 67.714 89.0552 67.4332 89.0552 67.0691ZM89.3984 67.0457C89.3984 67.2693 89.4868 67.467 89.6637 67.6386C89.8405 67.8102 90.0849 67.896 90.3969 67.896C90.7974 67.896 91.1198 67.727 91.3642 67.389C91.6087 67.0457 91.7309 66.6635 91.7309 66.2422V66.0316H91.4812C91.32 66.0316 91.1874 66.0342 91.0834 66.0394C90.9846 66.0394 90.839 66.0498 90.6466 66.0706C90.4593 66.0862 90.3033 66.1174 90.1785 66.1642C90.0589 66.2058 89.9315 66.263 89.7963 66.3358C89.6663 66.4034 89.5674 66.4997 89.4998 66.6245C89.4322 66.7441 89.3984 66.8845 89.3984 67.0457ZM95.4873 68.1066V64.2062H95.815V65.9302H96.4936L97.773 64.2062H98.1864L96.7745 66.0628V66.0784L98.3424 68.1066H97.9134L96.4936 66.2344H95.815V68.1066H95.4873ZM101.271 68.1066V64.2062H101.599V67.8024H104.025V64.2062H104.352V67.8024H104.899V69.0427H104.571V68.1066H101.271ZM107.939 68.1066V64.2062H108.266V66.9833L108.243 67.6152H108.259C108.441 67.3551 108.589 67.1445 108.703 66.9833L110.833 64.2062H111.137V68.1066H110.809V65.3217L110.833 64.7133H110.817C110.635 64.9577 110.487 65.1605 110.373 65.3217L108.243 68.1066H107.939ZM114.325 66.133C114.325 65.5662 114.52 65.0877 114.91 64.6977C115.306 64.3076 115.784 64.1126 116.346 64.1126C116.907 64.1126 117.383 64.3076 117.773 64.6977C118.169 65.0877 118.366 65.5662 118.366 66.133C118.366 66.7103 118.169 67.1991 117.773 67.5996C117.383 68 116.907 68.2002 116.346 68.2002C115.784 68.2002 115.306 68 114.91 67.5996C114.52 67.1991 114.325 66.7103 114.325 66.133ZM114.669 66.133C114.669 66.6271 114.83 67.0431 115.152 67.3811C115.48 67.714 115.878 67.8804 116.346 67.8804C116.814 67.8804 117.209 67.714 117.532 67.3811C117.859 67.0431 118.023 66.6271 118.023 66.133C118.023 65.6546 117.859 65.2515 117.532 64.9239C117.209 64.5962 116.814 64.4324 116.346 64.4324C115.878 64.4324 115.48 64.5962 115.152 64.9239C114.83 65.2515 114.669 65.6546 114.669 66.133ZM121.556 68.1066V64.2062H121.883V65.9458H124.434V64.2062H124.762V68.1066H124.434V66.25H121.883V68.1066H121.556ZM127.958 66.1642C127.958 65.5297 128.142 65.0305 128.512 64.6665C128.881 64.2972 129.328 64.1126 129.853 64.1126C130.358 64.1126 130.748 64.2842 131.023 64.6275C131.304 64.9655 131.445 65.3867 131.445 65.8912C131.445 65.938 131.439 66.0082 131.429 66.1018H128.301C128.301 66.6479 128.46 67.0821 128.777 67.4046C129.099 67.7218 129.497 67.8804 129.97 67.8804C130.449 67.8804 130.852 67.7166 131.179 67.389L131.359 67.662C131.187 67.8232 130.974 67.9532 130.719 68.052C130.47 68.1508 130.22 68.2002 129.97 68.2002C129.403 68.2002 128.925 68.013 128.535 67.6386C128.15 67.2589 127.958 66.7675 127.958 66.1642ZM128.324 65.7976H131.101C131.081 65.3451 130.953 65.0019 130.719 64.7679C130.485 64.5338 130.194 64.4168 129.845 64.4168C129.466 64.4168 129.133 64.539 128.847 64.7835C128.566 65.0227 128.392 65.3607 128.324 65.7976ZM134.624 69.6668V64.2062H134.952V64.6743L134.928 64.9863H134.944C135.058 64.7159 135.24 64.5026 135.49 64.3466C135.74 64.1906 136.026 64.1126 136.348 64.1126C136.863 64.1126 137.271 64.2998 137.573 64.6743C137.88 65.0487 138.033 65.5428 138.033 66.1564C138.033 66.7701 137.872 67.2641 137.549 67.6386C137.227 68.013 136.811 68.2002 136.301 68.2002C136.005 68.2002 135.734 68.1222 135.49 67.9662C135.245 67.8102 135.061 67.5944 134.936 67.3187H134.92C134.941 67.4124 134.952 67.5268 134.952 67.662V69.6668H134.624ZM134.944 66.1642C134.944 66.6271 135.066 67.0301 135.31 67.3733C135.555 67.7114 135.885 67.8804 136.301 67.8804C136.696 67.8804 137.027 67.727 137.292 67.4202C137.557 67.1081 137.69 66.6869 137.69 66.1564C137.69 65.6364 137.562 65.2203 137.307 64.9083C137.058 64.591 136.733 64.4324 136.332 64.4324C135.937 64.4324 135.607 64.578 135.342 64.8693C135.076 65.1553 134.944 65.587 134.944 66.1642ZM141.246 68.1066V64.2062H141.573V65.9458H144.124V64.2062H144.452V68.1066H144.124V66.25H141.573V68.1066H141.246ZM147.64 66.133C147.64 65.5662 147.835 65.0877 148.225 64.6977C148.62 64.3076 149.099 64.1126 149.661 64.1126C150.222 64.1126 150.698 64.3076 151.088 64.6977C151.483 65.0877 151.681 65.5662 151.681 66.133C151.681 66.7103 151.483 67.1991 151.088 67.5996C150.698 68 150.222 68.2002 149.661 68.2002C149.099 68.2002 148.62 68 148.225 67.5996C147.835 67.1991 147.64 66.7103 147.64 66.133ZM147.983 66.133C147.983 66.6271 148.145 67.0431 148.467 67.3811C148.795 67.714 149.192 67.8804 149.661 67.8804C150.129 67.8804 150.524 67.714 150.846 67.3811C151.174 67.0431 151.338 66.6271 151.338 66.133C151.338 65.6546 151.174 65.2515 150.846 64.9239C150.524 64.5962 150.129 64.4324 149.661 64.4324C149.192 64.4324 148.795 64.5962 148.467 64.9239C148.145 65.2515 147.983 65.6546 147.983 66.133ZM154.597 66.1642C154.597 65.5297 154.782 65.0305 155.151 64.6665C155.52 64.2972 155.968 64.1126 156.493 64.1126C156.997 64.1126 157.387 64.2842 157.663 64.6275C157.944 64.9655 158.084 65.3867 158.084 65.8912C158.084 65.938 158.079 66.0082 158.069 66.1018H154.941C154.941 66.6479 155.099 67.0821 155.416 67.4046C155.739 67.7218 156.137 67.8804 156.61 67.8804C157.088 67.8804 157.491 67.7166 157.819 67.389L157.998 67.662C157.827 67.8232 157.614 67.9532 157.359 68.052C157.109 68.1508 156.86 68.2002 156.61 68.2002C156.043 68.2002 155.565 68.013 155.175 67.6386C154.79 67.2589 154.597 66.7675 154.597 66.1642ZM154.964 65.7976H157.741C157.72 65.3451 157.593 65.0019 157.359 64.7679C157.125 64.5338 156.834 64.4168 156.485 64.4168C156.105 64.4168 155.773 64.539 155.487 64.7835C155.206 65.0227 155.032 65.3607 154.964 65.7976ZM165.045 66.133C165.045 65.5662 165.24 65.0877 165.63 64.6977C166.025 64.3076 166.504 64.1126 167.065 64.1126C167.627 64.1126 168.103 64.3076 168.493 64.6977C168.888 65.0877 169.086 65.5662 169.086 66.133C169.086 66.7103 168.888 67.1991 168.493 67.5996C168.103 68 167.627 68.2002 167.065 68.2002C166.504 68.2002 166.025 68 165.63 67.5996C165.24 67.1991 165.045 66.7103 165.045 66.133ZM165.388 66.133C165.388 66.6271 165.549 67.0431 165.872 67.3811C166.199 67.714 166.597 67.8804 167.065 67.8804C167.533 67.8804 167.929 67.714 168.251 67.3811C168.579 67.0431 168.743 66.6271 168.743 66.133C168.743 65.6546 168.579 65.2515 168.251 64.9239C167.929 64.5962 167.533 64.4324 167.065 64.4324C166.597 64.4324 166.199 64.5962 165.872 64.9239C165.549 65.2515 165.388 65.6546 165.388 66.133ZM172.104 65.9302C172.104 65.5922 172.122 65.3009 172.158 65.0565C172.195 64.8121 172.262 64.5728 172.361 64.3388C172.465 64.0996 172.616 63.889 172.813 63.707C173.011 63.5249 173.261 63.3585 173.562 63.2077L175.052 62.4666L175.2 62.7552L173.687 63.5041C173.224 63.733 172.899 64.006 172.712 64.3232C172.53 64.6353 172.421 65.0357 172.384 65.5245H172.4C172.707 64.8953 173.222 64.5806 173.945 64.5806C174.423 64.5806 174.816 64.7419 175.122 65.0643C175.429 65.3867 175.583 65.8262 175.583 66.3826C175.583 66.9183 175.421 67.3551 175.099 67.6932C174.782 68.0312 174.371 68.2002 173.866 68.2002C173.274 68.2002 172.832 67.9922 172.54 67.5762C172.249 67.1601 172.104 66.6115 172.104 65.9302ZM172.494 66.367C172.494 66.8351 172.624 67.2069 172.884 67.4826C173.149 67.753 173.476 67.8882 173.866 67.8882C174.257 67.8882 174.582 67.753 174.842 67.4826C175.107 67.2121 175.239 66.8481 175.239 66.3904C175.239 65.9328 175.109 65.5688 174.849 65.2983C174.595 65.0279 174.28 64.8927 173.906 64.8927C173.489 64.8927 173.149 65.0357 172.884 65.3217C172.624 65.6026 172.494 65.951 172.494 66.367ZM178.813 68.1066V64.2062H179.141V67.8024H181.013V64.2062H181.341V67.8024H183.213V64.2062H183.54V67.8024H184.087V69.0427H183.759V68.1066H178.813ZM186.807 66.1642C186.807 65.5297 186.992 65.0305 187.361 64.6665C187.73 64.2972 188.178 64.1126 188.703 64.1126C189.207 64.1126 189.598 64.2842 189.873 64.6275C190.154 64.9655 190.294 65.3867 190.294 65.8912C190.294 65.938 190.289 66.0082 190.279 66.1018H187.151C187.151 66.6479 187.309 67.0821 187.626 67.4046C187.949 67.7218 188.347 67.8804 188.82 67.8804C189.298 67.8804 189.702 67.7166 190.029 67.389L190.209 67.662C190.037 67.8232 189.824 67.9532 189.569 68.052C189.319 68.1508 189.07 68.2002 188.82 68.2002C188.253 68.2002 187.775 68.013 187.385 67.6386C187 67.2589 186.807 66.7675 186.807 66.1642ZM187.174 65.7976H189.951C189.93 65.3451 189.803 65.0019 189.569 64.7679C189.335 64.5338 189.044 64.4168 188.695 64.4168C188.316 64.4168 187.983 64.539 187.697 64.7835C187.416 65.0227 187.242 65.3607 187.174 65.7976ZM193.778 67.6386C193.393 67.2589 193.201 66.7675 193.201 66.1642C193.201 65.561 193.396 65.0695 193.786 64.6899C194.181 64.305 194.657 64.1126 195.213 64.1126C195.473 64.1126 195.728 64.1594 195.978 64.253C196.233 64.3466 196.443 64.4844 196.61 64.6665L196.407 64.9317C196.266 64.7809 196.087 64.6613 195.869 64.5728C195.655 64.4792 195.437 64.4324 195.213 64.4324C194.745 64.4324 194.35 64.5936 194.028 64.9161C193.705 65.2333 193.544 65.6494 193.544 66.1642C193.544 66.6739 193.705 67.0873 194.028 67.4046C194.35 67.7218 194.745 67.8804 195.213 67.8804C195.458 67.8804 195.697 67.831 195.931 67.7322C196.165 67.6334 196.36 67.4956 196.516 67.3187L196.688 67.5918C196.521 67.779 196.305 67.9272 196.04 68.0364C195.78 68.1456 195.505 68.2002 195.213 68.2002C194.646 68.2002 194.168 68.013 193.778 67.6386ZM200.797 68.1066V64.5104H199.315V64.2062H202.607V64.5104H201.125V68.1066H200.797ZM205.59 68.1066V64.2062H206.815C207.215 64.2062 207.527 64.292 207.751 64.4636C207.98 64.6301 208.094 64.8745 208.094 65.1969C208.094 65.6286 207.886 65.9146 207.47 66.055V66.0706C207.725 66.1174 207.928 66.2292 208.078 66.406C208.229 66.5777 208.305 66.7857 208.305 67.0301C208.305 67.3525 208.182 67.6126 207.938 67.8102C207.693 68.0078 207.353 68.1066 206.916 68.1066H205.59ZM205.917 65.938H206.83C207.439 65.938 207.743 65.691 207.743 65.1969C207.743 64.7341 207.428 64.5026 206.799 64.5026H205.917V65.938ZM205.917 67.8024H206.885C207.602 67.8024 207.961 67.545 207.961 67.0301C207.961 66.7701 207.868 66.5751 207.68 66.445C207.493 66.3098 207.225 66.2422 206.877 66.2422H205.917V67.8024ZM211.222 66.133C211.222 65.5662 211.417 65.0877 211.807 64.6977C212.203 64.3076 212.681 64.1126 213.243 64.1126C213.804 64.1126 214.28 64.3076 214.67 64.6977C215.066 65.0877 215.263 65.5662 215.263 66.133C215.263 66.7103 215.066 67.1991 214.67 67.5996C214.28 68 213.804 68.2002 213.243 68.2002C212.681 68.2002 212.203 68 211.807 67.5996C211.417 67.1991 211.222 66.7103 211.222 66.133ZM211.566 66.133C211.566 66.6271 211.727 67.0431 212.049 67.3811C212.377 67.714 212.775 67.8804 213.243 67.8804C213.711 67.8804 214.106 67.714 214.428 67.3811C214.756 67.0431 214.92 66.6271 214.92 66.133C214.92 65.6546 214.756 65.2515 214.428 64.9239C214.106 64.5962 213.711 64.4324 213.243 64.4324C212.775 64.4324 212.377 64.5962 212.049 64.9239C211.727 65.2515 211.566 65.6546 211.566 66.133Z" fill="white"/>
<path d="M26.9553 37.2401C26.9705 37.2249 26.9909 37.2164 27.0123 37.2162L48.9182 37.0552C49.0081 37.0545 49.0813 37.1272 49.0813 37.2171C49.0813 37.3065 49.0088 37.379 48.9194 37.379H27.0129C26.9404 37.379 26.9041 37.2913 26.9553 37.2401Z" fill="white"/>
</svg>
