<svg width="132" height="35" viewBox="0 0 132 35" fill="none" xmlns="http://www.w3.org/2000/svg">
<path d="M16.715 21.8611V16.2984H31.0834V29.4507C29.6871 30.802 27.6602 31.9956 25.0028 33.0316C22.3603 34.0525 19.6803 34.563 16.9627 34.563C13.5095 34.563 10.4992 33.8424 7.93179 32.401C5.36439 30.9446 3.43508 28.8727 2.14388 26.1852C0.852669 23.4827 0.207065 20.5474 0.207065 17.3795C0.207065 13.9412 0.927739 10.8859 2.36909 8.21338C3.81044 5.54088 5.91991 3.49146 8.69751 2.06513C10.8145 0.969101 13.4495 0.421088 16.6024 0.421088C20.7012 0.421088 23.8992 1.2844 26.1964 3.01101C28.5085 4.72261 29.9949 7.09483 30.6555 10.1277L24.0344 11.3663C23.5689 9.74481 22.6906 8.46862 21.3994 7.53775C20.1232 6.59186 18.5242 6.11892 16.6024 6.11892C13.6897 6.11892 11.37 7.04228 9.64339 8.88901C7.93179 10.7357 7.07599 13.4758 7.07599 17.1092C7.07599 21.0279 7.9468 23.9706 9.68843 25.9375C11.4301 27.8893 13.7122 28.8652 16.5348 28.8652C17.9311 28.8652 19.3275 28.5949 20.7238 28.0544C22.1351 27.4989 23.3437 26.8308 24.3496 26.0501V21.8611H16.715ZM37.2767 34V0.984115H51.3074C54.8357 0.984115 57.3956 1.2844 58.9871 1.88496C60.5936 2.47051 61.8773 3.52149 62.8382 5.03791C63.7991 6.55433 64.2795 8.28845 64.2795 10.2403C64.2795 12.7176 63.5513 14.767 62.095 16.3885C60.6386 17.995 58.4616 19.0085 55.5638 19.4289C57.0052 20.2697 58.1913 21.193 59.1222 22.199C60.0681 23.2049 61.3367 24.9916 62.9282 27.559L66.9595 34H58.9871L54.1675 26.8158C52.4559 24.2484 51.2848 22.6344 50.6543 21.9738C50.0237 21.2981 49.3555 20.8402 48.6499 20.6C47.9442 20.3447 46.8257 20.2171 45.2942 20.2171H43.943V34H37.2767ZM43.943 14.9472H48.8751C52.0731 14.9472 54.07 14.8121 54.8657 14.5418C55.6614 14.2715 56.2845 13.8061 56.7349 13.1455C57.1854 12.4849 57.4106 11.6591 57.4106 10.6682C57.4106 9.55713 57.1103 8.6638 56.5097 7.98817C55.9242 7.29752 55.0909 6.86211 54.0099 6.68195C53.4694 6.60688 51.8479 6.56934 49.1453 6.56934H43.943V14.9472ZM70.5629 0.984115H82.7468C85.4944 0.984115 87.5888 1.19431 89.0302 1.61471C90.967 2.18524 92.626 3.19869 94.0073 4.65505C95.3886 6.11141 96.4396 7.89808 97.1603 10.0151C97.8809 12.117 98.2413 14.7145 98.2413 17.8074C98.2413 20.5249 97.9035 22.8671 97.2278 24.8339C96.4021 27.2362 95.2235 29.1805 93.692 30.6669C92.5359 31.7929 90.9745 32.6713 89.0076 33.3018C87.5363 33.7673 85.5694 34 83.1071 34H70.5629V0.984115ZM77.2291 6.56934V28.4373H82.2063C84.068 28.4373 85.4118 28.3322 86.2375 28.122C87.3186 27.8517 88.2119 27.3938 88.9176 26.7482C89.6382 26.1026 90.2238 25.0441 90.6742 23.5727C91.1246 22.0864 91.3498 20.067 91.3498 17.5146C91.3498 14.9622 91.1246 13.0029 90.6742 11.6366C90.2238 10.2703 89.5932 9.2043 88.7824 8.43859C87.9717 7.67287 86.9432 7.15489 85.697 6.88463C84.7662 6.67444 82.942 6.56934 80.2244 6.56934H77.2291ZM125.041 21.8611L131.505 23.9106C130.514 27.5139 128.862 30.1939 126.55 31.9506C124.253 33.6922 121.333 34.563 117.79 34.563C113.405 34.563 109.802 33.0691 106.979 30.0813C104.157 27.0785 102.745 22.9797 102.745 17.7848C102.745 12.2897 104.164 8.0257 107.002 4.99287C109.84 1.94501 113.571 0.421088 118.195 0.421088C122.234 0.421088 125.514 1.61471 128.037 4.00194C129.538 5.41326 130.664 7.44015 131.415 10.0826L124.816 11.6591C124.426 9.9475 123.608 8.59624 122.361 7.60531C121.13 6.61438 119.629 6.11892 117.857 6.11892C115.41 6.11892 113.42 6.99724 111.889 8.75388C110.373 10.5105 109.614 13.3557 109.614 17.2894C109.614 21.4633 110.365 24.4361 111.867 26.2077C113.368 27.9794 115.32 28.8652 117.722 28.8652C119.494 28.8652 121.018 28.3022 122.294 27.1761C123.57 26.0501 124.486 24.2784 125.041 21.8611Z" fill="white"/>
</svg>
