<svg width="15" height="14" viewBox="0 0 15 14" fill="none" xmlns="http://www.w3.org/2000/svg">
<ellipse cx="7.01285" cy="7" rx="7.01285" ry="7" fill="#C4C4C4"/>
<path d="M7.01702 3C7.29384 3 7.52938 3.09697 7.72364 3.29091C7.9179 3.48485 8.01503 3.72 8.01503 3.99636C8.01503 4.27273 7.9179 4.5103 7.72364 4.70909C7.52938 4.90303 7.29384 5 7.01702 5C6.7402 5 6.50223 4.90303 6.30311 4.70909C6.10885 4.5103 6.01172 4.27273 6.01172 3.99636C6.01172 3.72 6.10885 3.48485 6.30311 3.29091C6.50223 3.09697 6.7402 3 7.01702 3Z" fill="#FAFAFA"/>
<path d="M5.61032 9.5452C5.58681 9.70068 5.58095 9.81247 5.59273 9.88054C5.62617 10.0739 5.74087 10.2027 5.93682 10.2671C6.13638 10.328 6.35036 10.3388 6.57877 10.2994C6.98256 10.2298 7.34209 10.05 7.65737 9.76011C7.84951 9.58396 8.11489 9.26058 8.45351 8.78996L8.15771 8.71897C8.04228 8.90153 7.90324 9.08114 7.74059 9.25781C7.57793 9.43449 7.43339 9.53372 7.30695 9.55552C7.258 9.56396 7.21172 9.56353 7.16811 9.55422C7.12403 9.54219 7.0968 9.50623 7.08644 9.44632C7.07607 9.38641 7.09017 9.24938 7.12873 9.03521C7.14362 8.95132 7.17418 8.80022 7.22043 8.58193L7.78123 6.03287L7.25486 6.19514C7.07148 6.252 6.75649 6.33716 6.30987 6.45062C5.86687 6.56066 5.52803 6.64152 5.29335 6.6932L5.33151 6.91377C5.61435 6.87341 5.81115 6.85771 5.92191 6.86665C6.03266 6.8756 6.0977 6.93589 6.11701 7.04754C6.12031 7.0666 6.11977 7.08773 6.11538 7.11092C6.11507 7.13341 6.11272 7.15625 6.10833 7.17944L5.68086 9.18811C5.64778 9.33683 5.62427 9.45586 5.61032 9.5452Z" fill="#FAFAFA"/>
</svg>
