<svg width="106" height="20" viewBox="0 0 106 20" fill="none" xmlns="http://www.w3.org/2000/svg">
<path fill-rule="evenodd" clip-rule="evenodd" d="M11.6628 7.41009C11.4636 7.97516 11.174 8.50499 10.8049 8.9794L10.8028 8.98358L12.1108 10.0402L10.8197 11.4097L9.44706 10.2443C8.41712 10.9235 7.20401 11.2808 5.96564 11.2695C5.1376 11.279 4.31572 11.1279 3.54655 10.8249C2.85278 10.5564 2.22052 10.1533 1.68714 9.63941C1.15376 9.12548 0.73008 8.51117 0.441134 7.83276C0.149932 7.14296 0 6.40299 0 5.65562C0 4.90824 0.149932 4.16828 0.441134 3.47847C0.728857 2.80301 1.15139 2.19173 1.68351 1.6811C2.84216 0.58259 4.39378 -0.0184365 5.99953 0.00926799C6.82714 -0.00149803 7.6488 0.148879 8.41756 0.451811C9.11137 0.720221 9.74366 1.12331 10.277 1.63723C10.8104 2.15116 11.2341 2.76551 11.523 3.44395C11.8195 4.13444 11.9678 4.87515 11.9646 5.62109C11.9671 6.22999 11.865 6.8349 11.6628 7.41009ZM7.61156 9.16562C7.7323 9.1096 7.85001 9.04744 7.96425 8.9794L6.00377 7.39336L7.29381 5.98726L9.27124 7.6978C9.47036 7.40173 9.61864 7.0795 9.7129 6.74053C9.81246 6.38377 9.86118 6.01446 9.86118 5.64515C9.86421 5.13124 9.76712 4.62154 9.57521 4.14386C9.39214 3.6842 9.12017 3.26417 8.7745 2.90725C8.42377 2.54952 8.00475 2.26399 7.54165 2.06715C6.53927 1.65737 5.4132 1.65737 4.41081 2.06715C3.95327 2.25851 3.5394 2.53888 3.19386 2.89155C2.84963 3.24935 2.58061 3.66574 2.40161 4.11979C2.02042 5.08452 2.02042 6.15557 2.40161 7.1203C2.58273 7.57749 2.85493 7.99702 3.20233 8.35691C3.54973 8.71262 3.97021 8.99823 4.43624 9.19701C4.9298 9.40625 5.46466 9.51296 6.00589 9.50773C6.36278 9.50991 6.71822 9.46272 7.06186 9.36754C7.25066 9.31503 7.43379 9.2475 7.61156 9.16562ZM28.4767 0.194446H30.4754V6.36912C30.4901 7.09417 30.3717 7.81586 30.1258 8.49919C29.9143 9.07545 29.5765 9.59845 29.1366 10.0308C28.7023 10.4451 28.1738 10.759 27.5924 10.9473C26.9358 11.1572 26.2489 11.2597 25.5588 11.2507C24.8756 11.2599 24.1957 11.1574 23.5464 10.9473C22.9725 10.7601 22.4479 10.4492 22.0107 10.0371C21.5745 9.61534 21.2397 9.10231 21.0309 8.53581C20.7903 7.86981 20.6743 7.16611 20.6888 6.4591V0.192353H22.7002V6.38273C22.7012 7.39859 22.9586 8.17173 23.4712 8.70006C23.9838 9.22944 24.6914 9.49517 25.5959 9.49517C26.4919 9.49517 27.1952 9.24199 27.7089 8.73145C28.2215 8.22299 28.4778 7.46554 28.4778 6.46119L28.4767 0.194446ZM30.4754 0.194446H30.4881L30.4754 0.192353V0.194446ZM43.3736 0.115981H45.2367L45.2452 0.113888L50.2782 11.0781H48.1536L46.9938 8.44897H41.5689L40.3932 11.0781H38.3321L43.3736 0.115981ZM42.3103 6.7489H46.2482L44.2707 2.39461L42.3103 6.7489ZM60.5742 0.186076L66.7003 7.71349L66.7088 7.71977V0.192353H68.6862V11.0781H66.9958L60.6886 3.3341V11.0718H58.7101V0.186076H60.5742ZM86.5635 1.95834H82.9349V11.0718H80.9087V1.95939H77.279V0.18503H86.5635V1.95834ZM105.558 3.43662C105.854 4.12712 106.004 4.86678 106 5.61272V5.61481C106.004 6.35489 105.856 7.08813 105.567 7.7708C105.278 8.45347 104.852 9.07159 104.316 9.58829C103.158 10.6874 101.607 11.2889 100.001 11.2612C99.1729 11.2707 98.3509 11.1197 97.5818 10.8165C96.888 10.5481 96.2557 10.145 95.7223 9.6311C95.189 9.11717 94.7653 8.50283 94.4764 7.82439C94.1852 7.13457 94.0354 6.39461 94.0354 5.64725C94.0354 4.89988 94.1852 4.15992 94.4764 3.4701C94.7642 2.79499 95.1867 2.18406 95.7188 1.67377C96.8773 0.574884 98.4289 -0.0265258 100.035 0.000898368C100.862 -0.00932219 101.684 0.141035 102.453 0.443442C103.147 0.711697 103.779 1.11472 104.312 1.62867C104.846 2.14262 105.27 2.75809 105.558 3.43662ZM103.602 7.14436C103.794 6.66668 103.891 6.15693 103.887 5.64306L103.893 5.65143C103.896 5.13502 103.797 4.62302 103.602 4.14386C103.419 3.68414 103.147 3.26409 102.801 2.90725C102.451 2.54937 102.032 2.26382 101.568 2.06715C100.566 1.65748 99.44 1.65748 98.4376 2.06715C97.9799 2.25828 97.566 2.53868 97.2206 2.89155C96.8764 3.24935 96.6074 3.66574 96.4284 4.11979C96.0472 5.08452 96.0472 6.15557 96.4284 7.1203C96.6095 7.57749 96.8817 7.99702 97.2291 8.35691C97.5776 8.71262 97.997 8.99823 98.463 9.19701C99.4654 9.60667 100.591 9.60667 101.594 9.19701C102.051 9.00557 102.465 8.7252 102.81 8.3726C103.154 8.0148 103.423 7.59841 103.602 7.14436Z" fill="#111111"/>
<path d="M0 18.865C0.387009 19.5404 1.08514 19.9729 1.93505 19.9729C2.93672 19.9729 3.68797 19.3886 3.68797 18.4704C3.68797 17.7951 3.29337 17.3777 2.45106 17.0059L1.88193 16.7554C1.45698 16.5657 1.29762 16.4443 1.29762 16.1787C1.29762 15.8676 1.56321 15.6931 1.91987 15.6931C2.29929 15.6931 2.618 15.8828 2.87601 16.2698L3.57414 15.731C3.26302 15.1543 2.6863 14.7825 1.91987 14.7825C0.971318 14.7825 0.258006 15.344 0.258006 16.2015C0.258006 16.8693 0.705724 17.3018 1.47215 17.6433L2.01093 17.8861C2.489 18.1062 2.64836 18.2124 2.64836 18.5084C2.64836 18.8499 2.38276 19.0623 1.93505 19.0623C1.38868 19.0623 1.03203 18.7816 0.705723 18.3338L0 18.865Z" fill="#111111"/>
<path d="M8.08885 19.8819H11.5492V18.9561H9.11329V17.6888H10.8359V16.8162H9.11329V15.7993H11.4581V14.8735H8.08885V19.8819Z" fill="#111111"/>
<path d="M20.1665 19.8819L18.7475 17.9165C19.2939 17.6433 19.6278 17.1273 19.6278 16.4899C19.6278 15.5261 18.8689 14.8735 17.8217 14.8735H15.9398V19.8819H16.9642V18.1138H17.7155L19.0131 19.8819H20.1665ZM16.9642 15.7765H17.8217C18.2846 15.7765 18.5806 16.0649 18.5806 16.4899C18.5806 16.9224 18.2998 17.2108 17.8217 17.2108H16.9642V15.7765Z" fill="#111111"/>
<path d="M27.2074 14.8735L25.9629 17.9089L24.7108 14.8735H23.5498L25.7884 19.9729H26.1299L28.3608 14.8735H27.2074Z" fill="#111111"/>
<path d="M32.5458 19.8819H33.5702V14.8735H32.5458V19.8819Z" fill="#111111"/>
<path d="M37.9296 17.3777C37.8993 18.8119 39.1286 20.0033 40.5932 19.9729C41.5569 19.9729 42.3764 19.51 42.809 18.7284L42.035 18.1821C41.6783 18.7436 41.2002 19.0244 40.6008 19.0244C39.6674 19.0244 38.9844 18.3414 38.9844 17.3853C38.9844 16.4291 39.6674 15.731 40.6008 15.731C41.2002 15.731 41.6783 16.0118 42.035 16.5733L42.809 16.027C42.3613 15.2454 41.5493 14.7825 40.6008 14.7825C39.1438 14.7521 37.9069 15.9435 37.9296 17.3777Z" fill="#111111"/>
<path d="M47.1805 19.8819H48.205V14.8735H47.1805V19.8819Z" fill="#111111"/>
<path d="M56.093 14.8735V17.8634L53.1866 14.7825H52.8527V19.8819H53.8772V16.8769L56.776 19.9729H57.1174V14.8735H56.093Z" fill="#111111"/>
<path d="M61.475 17.3777C61.4523 18.8119 62.6816 20.0033 64.1538 19.9729C64.6774 19.9729 65.1478 19.8515 65.5652 19.6011C65.9902 19.3507 66.3165 19.0168 66.5441 18.6146V17.1349H64.1386V18.0227H65.5197V18.4325C65.2389 18.8195 64.776 19.0547 64.1993 19.0547C63.2052 19.0547 62.5298 18.349 62.5298 17.3777C62.5298 16.4216 63.1824 15.731 64.1386 15.731C64.7153 15.731 65.1782 15.9738 65.5349 16.4671L66.2633 15.8676C65.7777 15.1771 65.034 14.7825 64.1538 14.7825C62.674 14.7597 61.4447 15.9359 61.475 17.3777Z" fill="#111111"/>
</svg>
