<svg width="116" height="21" viewBox="0 0 116 21" fill="none" xmlns="http://www.w3.org/2000/svg">
<path fill-rule="evenodd" clip-rule="evenodd" d="M12.7458 8.09822C12.5282 8.71576 12.2116 9.2948 11.8083 9.81326L11.8059 9.81783L13.2355 10.9726L11.8245 12.4693L10.3243 11.1956C9.19876 11.9379 7.873 12.3284 6.51964 12.3161C5.6147 12.3264 4.71649 12.1613 3.8759 11.8301C3.1177 11.5367 2.42672 11.0962 1.84381 10.5346C1.2609 9.97291 0.797878 9.30155 0.4821 8.56014C0.163856 7.80628 0 6.9976 0 6.18082C0 5.36404 0.163856 4.55536 0.4821 3.8015C0.796542 3.06331 1.25831 2.39526 1.83985 1.83721C3.1061 0.636692 4.8018 -0.0201486 6.55667 0.0101287C7.46114 -0.00163714 8.35909 0.162704 9.19925 0.493768C9.95749 0.787104 10.6485 1.22762 11.2314 1.78927C11.8143 2.35093 12.2773 3.02232 12.5931 3.76376C12.9172 4.51838 13.0792 5.32788 13.0757 6.14309C13.0784 6.80853 12.9669 7.46961 12.7458 8.09822ZM8.3184 10.0168C8.45035 9.95555 8.579 9.88762 8.70384 9.81326L6.5613 8.07993L7.97114 6.54326L10.1322 8.41265C10.3498 8.08908 10.5119 7.73693 10.6149 7.36648C10.7237 6.97659 10.7769 6.57299 10.7769 6.16938C10.7802 5.60774 10.6741 5.05072 10.4644 4.52867C10.2643 4.02633 9.96711 3.5673 9.58933 3.17722C9.20603 2.78628 8.7481 2.47423 8.242 2.25911C7.14653 1.81128 5.91589 1.81128 4.82042 2.25911C4.32039 2.46825 3.86809 2.77465 3.49045 3.16007C3.11426 3.5511 2.82025 4.00616 2.62464 4.50237C2.20804 5.55669 2.20804 6.7272 2.62464 7.78152C2.82257 8.28116 3.12005 8.73965 3.49971 9.13296C3.87937 9.5217 4.3389 9.83384 4.8482 10.0511C5.3876 10.2797 5.97213 10.3964 6.56362 10.3907C6.95365 10.393 7.3421 10.3415 7.71765 10.2374C7.92399 10.1801 8.12412 10.1063 8.3184 10.0168ZM31.1212 0.212503H33.3054V6.96059C33.3215 7.75297 33.1921 8.54167 32.9234 9.28846C32.6922 9.91823 32.3231 10.4898 31.8423 10.9623C31.3678 11.4151 30.7902 11.7581 30.1547 11.9639C29.4371 12.1933 28.6864 12.3053 27.9323 12.2955C27.1857 12.3056 26.4426 12.1935 25.733 11.9639C25.1058 11.7594 24.5325 11.4196 24.0546 10.9692C23.578 10.5083 23.2122 9.94759 22.984 9.32847C22.7209 8.60064 22.5942 7.83158 22.6101 7.05892V0.210216H24.8082V6.97545C24.8093 8.08565 25.0906 8.93059 25.6508 9.50798C26.2111 10.0865 26.9843 10.3769 27.9728 10.3769C28.952 10.3769 29.7206 10.1002 30.282 9.54228C30.8422 8.98661 31.1224 8.15882 31.1224 7.0612L31.1212 0.212503ZM33.3054 0.212503H33.3193L33.3054 0.210216V0.212503ZM47.4015 0.126751H49.4375L49.4468 0.124464L54.9472 12.1068H52.6253L51.3578 9.23358H45.4291L44.1443 12.1068H41.8918L47.4015 0.126751ZM46.2394 7.37562H50.5429L48.3819 2.61698L46.2394 7.37562ZM66.1993 0.203356L72.8943 8.4298L72.9036 8.43666V0.210216H75.0647V12.1068H73.2173L66.3243 3.64371V12.1H64.1621V0.203356H66.1993ZM94.6021 2.1402H90.6365V12.1H88.4222V2.14134H84.4555V0.202212H94.6021V2.1402ZM115.361 3.75576C115.684 4.51038 115.848 5.31873 115.843 6.13394V6.13623C115.848 6.94502 115.687 7.74636 115.371 8.49242C115.054 9.23849 114.589 9.91401 114.003 10.4787C112.738 11.6799 111.042 12.3372 109.287 12.3069C108.382 12.3174 107.484 12.1523 106.644 11.821C105.885 11.5277 105.194 11.0871 104.611 10.5255C104.029 9.96383 103.566 9.29244 103.25 8.55099C102.932 7.79712 102.768 6.98844 102.768 6.17167C102.768 5.3549 102.932 4.54623 103.25 3.79235C103.564 3.05454 104.026 2.38688 104.608 1.82921C105.874 0.62827 107.569 -0.0289891 109.324 0.000981794C110.229 -0.0101879 111.127 0.154133 111.967 0.484621C112.725 0.777787 113.416 1.21824 113.999 1.77992C114.582 2.34159 115.045 3.01422 115.361 3.75576ZM113.223 7.80781C113.433 7.28577 113.538 6.72869 113.534 6.1671L113.541 6.17624C113.544 5.61188 113.436 5.05233 113.223 4.52867C113.023 4.02626 112.726 3.5672 112.348 3.17722C111.965 2.78612 111.507 2.47405 111 2.25911C109.905 1.8114 108.674 1.8114 107.579 2.25911C107.079 2.468 106.626 2.77444 106.249 3.16007C105.873 3.5511 105.579 4.00616 105.383 4.50237C104.967 5.55669 104.967 6.7272 105.383 7.78152C105.581 8.28116 105.879 8.73965 106.258 9.13296C106.639 9.5217 107.097 9.83384 107.607 10.0511C108.702 10.4988 109.933 10.4988 111.028 10.0511C111.528 9.84186 111.98 9.53545 112.357 9.15011C112.733 8.75908 113.027 8.30403 113.223 7.80781Z" fill="white"/>
<path d="M21.2488 18.8887C21.6717 19.6268 22.4347 20.0995 23.3635 20.0995C24.4582 20.0995 25.2792 19.4609 25.2792 18.4575C25.2792 17.7194 24.848 17.2633 23.9275 16.8569L23.3055 16.5832C22.8411 16.3759 22.6669 16.2432 22.6669 15.953C22.6669 15.6129 22.9572 15.4222 23.3469 15.4222C23.7616 15.4222 24.1099 15.6295 24.3919 16.0525L25.1548 15.4637C24.8148 14.8334 24.1846 14.427 23.3469 14.427C22.3103 14.427 21.5308 15.0407 21.5308 15.9778C21.5308 16.7076 22.0201 17.1803 22.8577 17.5535L23.4465 17.8189C23.9689 18.0594 24.1431 18.1755 24.1431 18.4989C24.1431 18.8721 23.8528 19.1043 23.3635 19.1043C22.7664 19.1043 22.3767 18.7975 22.0201 18.3082L21.2488 18.8887Z" fill="white"/>
<path d="M30.0888 20H33.8705V18.9882H31.2084V17.6033H33.0909V16.6496H31.2084V15.5383H33.7709V14.5266H30.0888V20Z" fill="white"/>
<path d="M43.2881 20L41.7373 17.8521C42.3344 17.5535 42.6993 16.9896 42.6993 16.293C42.6993 15.2398 41.8699 14.5266 40.7255 14.5266H38.6688V20H39.7884V18.0677H40.6094L42.0275 20H43.2881ZM39.7884 15.5134H40.7255C41.2314 15.5134 41.5548 15.8286 41.5548 16.293C41.5548 16.7657 41.248 17.0808 40.7255 17.0808H39.7884V15.5134Z" fill="white"/>
<path d="M50.9828 14.5266L49.6227 17.8438L48.2544 14.5266H46.9855L49.432 20.0995H49.8052L52.2433 14.5266H50.9828Z" fill="white"/>
<path d="M56.8169 20H57.9364V14.5266H56.8169V20Z" fill="white"/>
<path d="M62.7007 17.2633C62.6675 18.8307 64.011 20.1327 65.6116 20.0995C66.6648 20.0995 67.5605 19.5936 68.0332 18.7394L67.1873 18.1423C66.7975 18.756 66.275 19.0629 65.6199 19.0629C64.5998 19.0629 63.8535 18.3165 63.8535 17.2716C63.8535 16.2266 64.5998 15.4637 65.6199 15.4637C66.275 15.4637 66.7975 15.7705 67.1873 16.3842L68.0332 15.7871C67.5439 14.9329 66.6565 14.427 65.6199 14.427C64.0276 14.3939 62.6758 15.6959 62.7007 17.2633Z" fill="white"/>
<path d="M72.8107 20H73.9302V14.5266H72.8107V20Z" fill="white"/>
<path d="M82.5508 14.5266V17.794L79.3745 14.427H79.0097V20H80.1292V16.7159L83.2972 20.0995H83.6704V14.5266H82.5508Z" fill="white"/>
<path d="M88.4326 17.2633C88.4078 18.8307 89.7513 20.1327 91.3601 20.0995C91.9323 20.0995 92.4465 19.9668 92.9026 19.6932C93.3671 19.4195 93.7236 19.0546 93.9724 18.6151V16.9979H91.3435V17.9682H92.8529V18.416C92.546 18.839 92.0402 19.0961 91.4099 19.0961C90.3235 19.0961 89.5854 18.3248 89.5854 17.2633C89.5854 16.2183 90.2986 15.4637 91.3435 15.4637C91.9738 15.4637 92.4797 15.7291 92.8695 16.2681L93.6656 15.6129C93.1348 14.8583 92.3221 14.427 91.3601 14.427C89.743 14.4022 88.3995 15.6876 88.4326 17.2633Z" fill="white"/>
</svg>
