<svg width="161" height="32" viewBox="0 0 161 32" fill="none" xmlns="http://www.w3.org/2000/svg">
<path fill-rule="evenodd" clip-rule="evenodd" d="M53.7129 14.7168C53.4864 15.3594 53.157 15.9619 52.7372 16.5015L52.7348 16.5062L54.2224 17.7079L52.7541 19.2654L51.193 17.9399C50.0217 18.7125 48.6421 19.1188 47.2337 19.106C46.292 19.1167 45.3573 18.9449 44.4826 18.6003C43.6936 18.295 42.9745 17.8365 42.3679 17.2521C41.7613 16.6676 41.2795 15.969 40.9509 15.1974C40.6197 14.413 40.4492 13.5714 40.4492 12.7215C40.4492 11.8715 40.6197 11.03 40.9509 10.2455C41.2781 9.47731 41.7586 8.78212 42.3638 8.2014C43.6815 6.95211 45.4461 6.26858 47.2723 6.30009C48.2135 6.28785 49.1479 6.45887 50.0222 6.80338C50.8112 7.10863 51.5303 7.56704 52.1369 8.15151C52.7435 8.73599 53.2253 9.43466 53.5539 10.2062C53.8911 10.9915 54.0598 11.8339 54.0562 12.6822C54.059 13.3747 53.9429 14.0626 53.7129 14.7168ZM49.1055 16.7133C49.2429 16.6495 49.3767 16.5789 49.5067 16.5015L47.2771 14.6977L48.7442 13.0986L50.993 15.044C51.2195 14.7072 51.3881 14.3408 51.4953 13.9553C51.6086 13.5496 51.664 13.1296 51.664 12.7096C51.6674 12.1251 51.557 11.5455 51.3387 11.0022C51.1305 10.4794 50.8212 10.0018 50.4281 9.59585C50.0292 9.18902 49.5527 8.8643 49.026 8.64044C47.8861 8.17441 46.6054 8.17441 45.4655 8.64044C44.9451 8.85807 44.4744 9.17692 44.0815 9.578C43.69 9.98491 43.384 10.4585 43.1805 10.9748C42.747 12.072 42.747 13.29 43.1805 14.3872C43.3865 14.9071 43.696 15.3842 44.0911 15.7935C44.4862 16.1981 44.9644 16.5229 45.4944 16.749C46.0557 16.9869 46.664 17.1083 47.2795 17.1023C47.6854 17.1048 48.0896 17.0511 48.4804 16.9429C48.6951 16.8832 48.9034 16.8064 49.1055 16.7133ZM72.8347 6.51069H75.1077V13.5329C75.1244 14.3575 74.9897 15.1782 74.7102 15.9554C74.4696 16.6107 74.0854 17.2055 73.5851 17.6972C73.0913 18.1684 72.4902 18.5253 71.8289 18.7395C71.0822 18.9782 70.301 19.0947 69.5163 19.0845C68.7393 19.095 67.966 18.9784 67.2276 18.7395C66.575 18.5266 65.9784 18.1731 65.4811 17.7044C64.9851 17.2247 64.6044 16.6413 64.3669 15.997C64.0932 15.2396 63.9613 14.4393 63.9778 13.6352V6.50831H66.2652V13.5484C66.2664 14.7037 66.5591 15.5829 67.1421 16.1838C67.7251 16.7858 68.5297 17.088 69.5584 17.088C70.5774 17.088 71.3772 16.8001 71.9614 16.2195C72.5444 15.6412 72.8359 14.7798 72.8359 13.6376L72.8347 6.51069ZM75.1077 6.51069H75.1221L75.1077 6.50831V6.51069ZM89.7764 6.42145H91.8951L91.9048 6.41907L97.6287 18.8882H95.2124L93.8935 15.8982H87.7239L86.3868 18.8882H84.0428L89.7764 6.42145ZM88.567 13.9648H93.0455L90.7966 9.01284L88.567 13.9648ZM109.338 6.50117L116.305 15.0618L116.315 15.0689V6.50831H118.563V18.8882H116.641L109.468 10.0813V18.8811H107.218V6.50117H109.338ZM138.895 8.5167H134.768V18.8811H132.464V8.51789H128.336V6.49998H138.895V8.5167ZM160.497 10.1979C160.833 10.9832 161.004 11.8244 160.999 12.6727V12.6751C161.003 13.5167 160.836 14.3506 160.507 15.127C160.178 15.9034 159.694 16.6063 159.084 17.1939C157.767 18.4439 156.002 19.128 154.176 19.0964C153.235 19.1073 152.3 18.9355 151.425 18.5908C150.636 18.2855 149.917 17.8271 149.311 17.2426C148.704 16.6582 148.222 15.9595 147.894 15.1879C147.562 14.4034 147.392 13.5619 147.392 12.7119C147.392 11.862 147.562 11.0205 147.894 10.236C148.221 9.46818 148.701 8.7734 149.306 8.19307C150.624 6.94334 152.389 6.25938 154.215 6.29057C155.156 6.27895 156.09 6.44994 156.965 6.79386C157.754 7.09894 158.473 7.55728 159.08 8.14178C159.686 8.72627 160.168 9.42622 160.497 10.1979ZM158.272 14.4146C158.49 13.8713 158.6 13.2916 158.596 12.7072L158.603 12.7167C158.606 12.1294 158.494 11.5471 158.272 11.0022C158.064 10.4794 157.754 10.0017 157.361 9.59585C156.962 9.18885 156.486 8.8641 155.959 8.64044C154.819 8.17454 153.539 8.17454 152.399 8.64044C151.878 8.85781 151.407 9.1767 151.015 9.578C150.623 9.98491 150.317 10.4585 150.114 10.9748C149.68 12.072 149.68 13.29 150.114 14.3872C150.319 14.9071 150.629 15.3842 151.024 15.7935C151.42 16.1981 151.897 16.5229 152.427 16.749C153.567 17.2148 154.848 17.2148 155.988 16.749C156.508 16.5312 156.978 16.2124 157.371 15.8114C157.762 15.4045 158.068 14.9309 158.272 14.4146Z" fill="white"/>
<path d="M40.7081 25.9456C41.1482 26.7137 41.9422 27.2056 42.9088 27.2056C44.0479 27.2056 44.9023 26.5411 44.9023 25.4969C44.9023 24.7288 44.4535 24.2541 43.4956 23.8313L42.8484 23.5465C42.3651 23.3307 42.1839 23.1927 42.1839 22.8906C42.1839 22.5368 42.4859 22.3383 42.8915 22.3383C43.323 22.3383 43.6855 22.554 43.9789 22.9942L44.7729 22.3814C44.419 21.7256 43.7631 21.3027 42.8915 21.3027C41.8128 21.3027 41.0015 21.9413 41.0015 22.9165C41.0015 23.6759 41.5107 24.1678 42.3823 24.5562L42.9951 24.8324C43.5388 25.0826 43.72 25.2034 43.72 25.54C43.72 25.9284 43.4179 26.17 42.9088 26.17C42.2874 26.17 41.8818 25.8507 41.5107 25.3415L40.7081 25.9456Z" fill="white"/>
<path d="M49.9073 27.102H53.8425V26.0492H51.0723V24.608H53.0313V23.6155H51.0723V22.4591H53.739V21.4062H49.9073V27.102Z" fill="white"/>
<path d="M63.6427 27.102L62.0289 24.8669C62.6503 24.5562 63.03 23.9694 63.03 23.2444C63.03 22.1484 62.167 21.4062 60.9761 21.4062H58.8358V27.102H60.0009V25.0913H60.8552L62.331 27.102H63.6427ZM60.0009 22.4332H60.9761C61.5025 22.4332 61.8391 22.7612 61.8391 23.2444C61.8391 23.7363 61.5198 24.0643 60.9761 24.0643H60.0009V22.4332Z" fill="white"/>
<path d="M71.6501 21.4062L70.2347 24.8582L68.8108 21.4062H67.4904L70.0362 27.2056H70.4246L72.9618 21.4062H71.6501Z" fill="white"/>
<path d="M77.7211 27.102H78.8862V21.4062H77.7211V27.102Z" fill="white"/>
<path d="M83.844 24.2541C83.8095 25.8852 85.2076 27.2401 86.8732 27.2056C87.9692 27.2056 88.9012 26.6792 89.3931 25.7903L88.5129 25.1689C88.1073 25.8075 87.5636 26.1269 86.8818 26.1269C85.8203 26.1269 85.0436 25.3502 85.0436 24.2628C85.0436 23.1754 85.8203 22.3814 86.8818 22.3814C87.5636 22.3814 88.1073 22.7007 88.5129 23.3394L89.3931 22.718C88.8839 21.8291 87.9605 21.3027 86.8818 21.3027C85.2248 21.2682 83.8181 22.6231 83.844 24.2541Z" fill="white"/>
<path d="M94.3647 27.102H95.5298V21.4062H94.3647V27.102Z" fill="white"/>
<path d="M104.501 21.4062V24.8065L101.195 21.3027H100.816V27.102H101.981V23.6846L105.277 27.2056H105.666V21.4062H104.501Z" fill="white"/>
<path d="M110.621 24.2541C110.595 25.8852 111.993 27.2401 113.668 27.2056C114.263 27.2056 114.798 27.0675 115.273 26.7827C115.756 26.4979 116.127 26.1182 116.386 25.6608V23.978H113.65V24.9877H115.221V25.4537C114.902 25.8938 114.375 26.1614 113.719 26.1614C112.589 26.1614 111.821 25.3588 111.821 24.2541C111.821 23.1668 112.563 22.3814 113.65 22.3814C114.306 22.3814 114.833 22.6576 115.238 23.2185L116.067 22.5368C115.515 21.7514 114.669 21.3027 113.668 21.3027C111.985 21.2768 110.587 22.6144 110.621 24.2541Z" fill="white"/>
<path fill-rule="evenodd" clip-rule="evenodd" d="M15.5525 31.2816C14.655 31.7997 13.5493 31.7997 12.6518 31.2816L9.19308 29.2846L15.203 25.8007C15.326 25.7507 15.4464 25.6921 15.5633 25.6246L21.6377 22.1175C22.0812 21.9714 22.5681 22.2956 22.5727 22.7914L22.6135 27.2049L15.5525 31.2816ZM23.3518 26.7786L23.3335 16.3928L23.3241 16.4119V12.4576C23.4578 12.0467 23.9495 11.8283 24.3571 12.0601L28.2043 14.2484V22.3023C28.2043 23.3386 27.6514 24.2962 26.754 24.8144L23.3518 26.7786ZM28.2043 13.3946L22.3251 9.99207C22.1867 9.87194 22.0359 9.76403 21.8738 9.67045L15.9763 6.26552C15.6001 5.95914 15.6316 5.35141 16.0714 5.09566L19.8743 2.88396L26.754 6.85592C27.6514 7.37407 28.2043 8.33165 28.2043 9.36794V13.3946ZM19.1333 2.4561L13.4184 5.7228C13.1569 5.78726 12.9024 5.88869 12.6627 6.02709L8.14508 8.63531L8.16082 8.60317L6.76195 9.41913C6.28806 9.69556 5.69233 9.35703 5.68726 8.80843L5.6468 4.43308L12.6518 0.388725C13.5493 -0.129423 14.655 -0.129425 15.5525 0.388725L19.1333 2.4561ZM4.90817 4.85953L4.92053 11.8534C4.90816 11.9619 4.90185 12.0717 4.90185 12.1825V19.1956C4.77194 19.6159 4.27026 19.8383 3.85958 19.5992L0 17.3525V9.36794C0 8.33165 0.552858 7.37407 1.45032 6.85592L4.90817 4.85953ZM0 18.211L6.14751 21.8514C6.21354 21.8973 6.2818 21.9406 6.35217 21.9812L6.93421 22.3173L8.97063 23.5232L8.93895 23.4747L10.8471 24.5763L10.8421 24.5767L11.3881 24.8887L12.3192 25.4263C12.7237 25.7231 12.7044 26.3522 12.2566 26.6162L8.45473 28.8584L1.45032 24.8144C0.552858 24.2962 0 23.3386 0 22.3023V18.211Z" fill="white"/>
</svg>
