<svg width="167" height="32" viewBox="0 0 167 32" fill="none" xmlns="http://www.w3.org/2000/svg">
<path fill-rule="evenodd" clip-rule="evenodd" d="M18.3744 11.6744C18.0606 12.5646 17.6043 13.3994 17.0228 14.1468L17.0194 14.1534L19.0802 15.8181L17.0462 17.9757L14.8836 16.1395C13.2609 17.2097 11.3497 17.7726 9.3987 17.7548C8.09414 17.7698 6.79929 17.5318 5.58749 17.0543C4.49447 16.6314 3.49836 15.9963 2.65804 15.1866C1.81771 14.3769 1.15022 13.4091 0.694995 12.3403C0.236214 11.2535 0 10.0877 0 8.91026C0 7.7328 0.236214 6.567 0.694995 5.48023C1.14829 4.41606 1.81398 3.453 2.65233 2.64852C4.47775 0.917854 6.92227 -0.0290462 9.45209 0.0146015C10.756 -0.0023601 12.0505 0.234555 13.2616 0.711816C14.3547 1.13469 15.3509 1.76974 16.1912 2.57942C17.0315 3.3891 17.699 4.35698 18.1541 5.42584C18.6214 6.51369 18.855 7.68066 18.85 8.85587C18.8538 9.81518 18.693 10.7682 18.3744 11.6744ZM11.9918 14.4402C12.182 14.3519 12.3675 14.254 12.5474 14.1468L9.45877 11.648L11.4912 9.43276L14.6066 12.1277C14.9203 11.6612 15.1539 11.1535 15.3024 10.6195C15.4593 10.0575 15.536 9.47562 15.536 8.89378C15.5408 8.08412 15.3878 7.28111 15.0855 6.52853C14.7971 5.80435 14.3686 5.14261 13.824 4.58028C13.2714 4.0167 12.6112 3.56685 11.8817 3.25673C10.3024 2.61113 8.52834 2.61113 6.94911 3.25673C6.22827 3.55822 5.57623 3.99994 5.03183 4.55556C4.48952 5.11926 4.06568 5.77527 3.78367 6.49062C3.18311 8.01052 3.18311 9.69792 3.78367 11.2178C4.06901 11.9381 4.49786 12.5991 5.04518 13.1661C5.5925 13.7265 6.25495 14.1765 6.98916 14.4896C7.76676 14.8193 8.60942 14.9874 9.46211 14.9792C10.0244 14.9826 10.5844 14.9082 11.1258 14.7583C11.4232 14.6756 11.7117 14.5692 11.9918 14.4402ZM44.8643 0.306344H48.0131V10.0344C48.0362 11.1767 47.8497 12.3137 47.4624 13.3902C47.1291 14.2981 46.5969 15.1221 45.9039 15.8033C45.2197 16.456 44.3871 16.9505 43.471 17.2472C42.4365 17.5778 41.3543 17.7393 40.2672 17.7252C39.1909 17.7397 38.1196 17.5782 37.0967 17.2472C36.1925 16.9523 35.3661 16.4625 34.6772 15.8132C33.9901 15.1487 33.4626 14.3404 33.1336 13.4479C32.7545 12.3987 32.5718 11.29 32.5947 10.1761V0.303047H35.7635V10.0558C35.7651 11.6563 36.1706 12.8743 36.9782 13.7067C37.7859 14.5407 38.9005 14.9594 40.3256 14.9594C41.7372 14.9594 42.8452 14.5605 43.6545 13.7561C44.4621 12.9551 44.866 11.7618 44.866 10.1794L44.8643 0.306344ZM48.0131 0.306344H48.0331L48.0131 0.303047V0.306344ZM68.3339 0.182724H71.2691L71.2825 0.179428L79.2119 17.4532H75.8646L74.0374 13.3111H65.4906L63.6383 17.4532H60.3911L68.3339 0.182724ZM66.6586 10.6327H72.8627L69.7473 3.77264L66.6586 10.6327ZM95.4329 0.293157L105.084 12.1524L105.098 12.1623V0.303047H108.213V17.4532H105.55L95.6131 5.25277V17.4433H92.4961V0.293157H95.4329ZM136.378 3.08531H130.662V17.4433H127.469V3.08696H121.751V0.291509H136.378V3.08531ZM166.304 5.4143C166.77 6.50215 167.007 7.66747 167 8.84268V8.84598C167.006 10.0119 166.774 11.1671 166.318 12.2427C165.862 13.3182 165.192 14.292 164.347 15.1061C162.522 16.8377 160.078 17.7853 157.549 17.7416C156.244 17.7567 154.949 17.5187 153.737 17.0411C152.644 16.6183 151.648 15.9832 150.808 15.1735C149.967 14.3638 149.3 13.396 148.845 12.3271C148.386 11.2403 148.15 10.0745 148.15 8.89708C148.15 7.71962 148.386 6.55384 148.845 5.46705C149.298 4.40342 149.964 3.44092 150.802 2.63698C152.627 0.905714 155.072 -0.0417907 157.602 0.00141535C158.906 -0.0146868 160.2 0.222197 161.412 0.69863C162.505 1.12126 163.501 1.75622 164.341 2.56593C165.182 3.37564 165.849 4.34529 166.304 5.4143ZM163.222 11.2557C163.524 10.5032 163.677 9.70008 163.671 8.89048L163.681 8.90367C163.685 8.09008 163.529 7.28344 163.222 6.52853C162.934 5.80425 162.505 5.14248 161.961 4.58028C161.408 4.01646 160.748 3.56658 160.018 3.25673C158.439 2.61132 156.665 2.61132 155.086 3.25673C154.365 3.55786 153.712 3.99962 153.168 4.55556C152.626 5.11926 152.202 5.77527 151.92 6.49062C151.32 8.01052 151.32 9.69792 151.92 11.2178C152.206 11.9381 152.634 12.5991 153.182 13.1661C153.731 13.7265 154.391 14.1765 155.126 14.4896C156.705 15.135 158.479 15.135 160.058 14.4896C160.779 14.188 161.43 13.7463 161.974 13.1908C162.516 12.6271 162.94 11.9711 163.222 11.2557Z" fill="white"/>
<path d="M0 29.7213C0.609722 30.7853 1.70961 31.4668 3.04861 31.4668C4.62671 31.4668 5.81029 30.5462 5.81029 29.0996C5.81029 28.0356 5.18861 27.3781 3.86157 26.7923L2.96492 26.3977C2.29543 26.0989 2.04436 25.9076 2.04436 25.4891C2.04436 24.999 2.4628 24.724 3.0247 24.724C3.62247 24.724 4.12459 25.0229 4.53107 25.6326L5.63096 24.7838C5.14079 23.8752 4.23219 23.2893 3.0247 23.2893C1.53028 23.2893 0.406481 24.174 0.406481 25.525C0.406481 26.5771 1.11185 27.2585 2.31934 27.7965L3.16816 28.1791C3.92135 28.5258 4.17241 28.6932 4.17241 29.1594C4.17241 29.6974 3.75397 30.0322 3.04861 30.0322C2.18783 30.0322 1.62593 29.5898 1.11185 28.8844L0 29.7213Z" fill="white"/>
<path d="M12.7438 31.3233H18.1954V29.8648H14.3577V27.8682H17.0716V26.4934H14.3577V24.8914H18.0519V23.4328H12.7438V31.3233Z" fill="white"/>
<path d="M31.7718 31.3233L29.5362 28.2269C30.3969 27.7965 30.923 26.9835 30.923 25.9793C30.923 24.461 29.7274 23.4328 28.0776 23.4328H25.1127V31.3233H26.7267V28.5377H27.9102L29.9546 31.3233H31.7718ZM26.7267 24.8555H28.0776C28.8069 24.8555 29.2731 25.3098 29.2731 25.9793C29.2731 26.6608 28.8308 27.1151 28.0776 27.1151H26.7267V24.8555Z" fill="white"/>
<path d="M42.8645 23.4328L40.9038 28.2149L38.9312 23.4328H37.102L40.6289 31.4668H41.1668L44.6817 23.4328H42.8645Z" fill="white"/>
<path d="M51.2749 31.3233H52.8889V23.4328H51.2749V31.3233Z" fill="white"/>
<path d="M59.7571 27.3781C59.7092 29.6376 61.646 31.5146 63.9534 31.4668C65.4717 31.4668 66.7629 30.7375 67.4443 29.5061L66.2249 28.6453C65.663 29.53 64.9098 29.9724 63.9653 29.9724C62.4948 29.9724 61.4188 28.8964 61.4188 27.39C61.4188 25.8837 62.4948 24.7838 63.9653 24.7838C64.9098 24.7838 65.663 25.2261 66.2249 26.1108L67.4443 25.25C66.739 24.0186 65.4597 23.2893 63.9653 23.2893C61.6699 23.2415 59.7212 25.1185 59.7571 27.3781Z" fill="white"/>
<path d="M74.3316 31.3233H75.9455V23.4328H74.3316V31.3233Z" fill="white"/>
<path d="M88.3729 23.4328V28.1432L83.794 23.2893H83.268V31.3233H84.882V26.589L89.4489 31.4668H89.9869V23.4328H88.3729Z" fill="white"/>
<path d="M96.8522 27.3781C96.8163 29.6376 98.7531 31.5146 101.072 31.4668C101.897 31.4668 102.639 31.2755 103.296 30.881C103.966 30.4865 104.48 29.9604 104.838 29.3268V26.9955H101.049V28.3943H103.224V29.0399C102.782 29.6496 102.053 30.0202 101.144 30.0202C99.578 30.0202 98.514 28.9084 98.514 27.3781C98.514 25.8717 99.5421 24.7838 101.049 24.7838C101.957 24.7838 102.686 25.1663 103.248 25.9434L104.396 24.999C103.631 23.911 102.459 23.2893 101.072 23.2893C98.7411 23.2535 96.8044 25.1066 96.8522 27.3781Z" fill="white"/>
</svg>
