<svg width="40" height="44" viewBox="0 0 40 44" fill="none" xmlns="http://www.w3.org/2000/svg">
<path fill-rule="evenodd" clip-rule="evenodd" d="M16.7604 17.7356C18.0121 16.4558 18.0121 14.381 16.7604 13.1012C14.9876 11.2887 14.6937 7.70818 16.7604 5.59321C18.0121 4.3144 18.0121 2.23861 16.7604 0.959794C15.5097 -0.319931 13.4794 -0.319931 12.2287 0.959794C10.977 2.23861 10.977 4.3144 12.2287 5.59321C14.2955 7.70727 14.0015 11.2887 12.2287 13.1012C10.2038 15.1716 7.19182 14.861 5.47159 13.1012C4.21995 11.8224 2.18971 11.8224 0.938063 13.1012C-0.312688 14.381 -0.312688 16.4558 0.938063 17.7356C2.18971 19.0153 4.21995 19.0153 5.47159 17.7356C7.19182 15.9767 10.2038 15.6652 12.2287 17.7356C13.4794 19.0153 15.5097 19.0153 16.7604 17.7356ZM22.6888 17.7356C21.4381 16.4558 21.4381 14.381 22.6888 13.1012C24.4625 11.2887 24.7565 7.70818 22.6888 5.59321C21.4381 4.3144 21.4381 2.23861 22.6888 0.959794C23.9405 -0.319931 25.9707 -0.319931 27.2215 0.959794C28.4731 2.23861 28.4731 4.3144 27.2215 5.59321C25.1547 7.70727 25.4487 11.2887 27.2215 13.1012C29.2464 15.1716 32.2583 14.861 33.9795 13.1012C35.2302 11.8224 37.2605 11.8224 38.5112 13.1012C39.7628 14.381 39.7628 16.4558 38.5112 17.7356C37.2605 19.0153 35.2302 19.0153 33.9795 17.7356C32.2583 15.9767 29.2464 15.6652 27.2215 17.7356C25.9707 19.0153 23.9405 19.0153 22.6888 17.7356ZM11.7284 9.40234C11.7284 7.5913 10.2959 6.12246 8.52972 6.12246C6.76353 6.12246 5.33107 7.5913 5.33107 9.40234C5.33107 11.2134 6.76353 12.6822 8.52972 12.6822C10.2959 12.6822 11.7284 11.2134 11.7284 9.40234ZM33.9056 9.40234C33.9056 7.5913 32.4732 6.12246 30.707 6.12246C28.9408 6.12246 27.5083 7.5913 27.5083 9.40234C27.5083 11.2134 28.9408 12.6822 30.707 12.6822C32.4732 12.6822 33.9056 11.2134 33.9056 9.40234ZM16.7604 30.3026C18.0121 29.0229 18.0121 26.9471 16.7604 25.6683C15.5097 24.3886 13.4794 24.3886 12.2287 25.6683C10.2038 27.7377 7.19182 27.4271 5.47159 25.6683C4.21995 24.3886 2.18971 24.3886 0.938063 25.6683C-0.312688 26.9471 -0.312688 29.0229 0.938063 30.3026C2.18971 31.5814 4.21995 31.5814 5.47159 30.3026C7.19182 28.5429 10.2038 28.2323 12.2287 30.3026C14.0015 32.1152 14.2955 35.6966 12.2287 37.8106C10.977 39.0894 10.977 41.1652 12.2287 42.4441C13.4794 43.7238 15.5097 43.7238 16.7604 42.4441C18.0121 41.1652 18.0121 39.0894 16.7604 37.8106C14.6937 35.6957 14.9876 32.1152 16.7604 30.3026ZM22.6888 30.3026C21.4381 29.0229 21.4381 26.9471 22.6888 25.6683C23.9405 24.3886 25.9707 24.3886 27.2215 25.6683C29.2464 27.7377 32.2583 27.4271 33.9795 25.6683C35.2302 24.3886 37.2605 24.3886 38.5112 25.6683C39.7628 26.9471 39.7628 29.0229 38.5112 30.3026C37.2605 31.5814 35.2302 31.5814 33.9795 30.3026C32.2583 28.5429 29.2464 28.2323 27.2215 30.3026C25.4487 32.1152 25.1547 35.6966 27.2215 37.8106C28.4731 39.0894 28.4731 41.1652 27.2215 42.4441C25.9707 43.7238 23.9405 43.7238 22.6888 42.4441C21.4381 41.1652 21.4381 39.0894 22.6888 37.8106C24.7565 35.6957 24.4625 32.1152 22.6888 30.3026ZM8.52972 30.7216C10.2959 30.7216 11.7284 32.1897 11.7284 34.001C11.7284 35.8123 10.2959 37.2814 8.52972 37.2814C6.76353 37.2814 5.33107 35.8123 5.33107 34.001C5.33107 32.1897 6.76353 30.7216 8.52972 30.7216ZM33.9056 34.001C33.9056 32.1897 32.4732 30.7216 30.707 30.7216C28.9408 30.7216 27.5083 32.1897 27.5083 34.001C27.5083 35.8123 28.9408 37.2814 30.707 37.2814C32.4732 37.2814 33.9056 35.8123 33.9056 34.001Z" fill="#494949"/>
</svg>
