<svg width="56" height="57" viewBox="0 0 56 57" fill="none" xmlns="http://www.w3.org/2000/svg">
<path d="M54.9053 13.7858L42.466 1.32422L35.7281 8.07422C37.7906 8.82422 41.2992 11.7867 38.1493 17.6367C34.2118 24.9492 24.627 21.5742 24.4983 19.3242L1.00195 42.8627L13.4412 55.3242L17.3147 51.4437C15.2522 50.6937 11.9147 47.7312 15.0647 41.8812C19.0022 34.5687 29.1269 37.9238 28.5644 40.1738L54.9053 13.7858Z" fill="#A4A4A4"/>
<path d="M42.466 1.32422L54.9053 13.7858M42.466 1.32422L1.00195 42.8627M42.466 1.32422L35.7281 8.07422C37.7906 8.82422 41.2992 11.7867 38.1493 17.6367C34.2118 24.9492 24.627 21.5742 24.4983 19.3242L1.00195 42.8627M54.9053 13.7858L13.4412 55.3242M54.9053 13.7858L28.5644 40.1738M13.4412 55.3242L1.00195 42.8627M13.4412 55.3242L17.3147 51.4437M17.3147 51.4437C15.2522 50.6937 11.9147 47.7312 15.0647 41.8812C19.0022 34.5687 29.1269 37.9238 28.5644 40.1738M17.3147 51.4437L28.5644 40.1738" stroke="#BFBFBF"/>
</svg>
