<svg width="820" height="204" viewBox="0 0 820 204" fill="none" xmlns="http://www.w3.org/2000/svg">
<path d="M261.087 203.065L21.8369 0.993408" stroke="black" stroke-opacity="0.08"/>
<path d="M240.439 203.065L0.673828 0.993408" stroke="black" stroke-opacity="0.08"/>
<line x1="232.253" y1="0.913086" x2="232.253" y2="203.039" stroke="black" stroke-opacity="0.08"/>
<line x1="284.862" y1="0.913086" x2="284.862" y2="203.039" stroke="black" stroke-opacity="0.08"/>
<line x1="352.062" y1="0.913086" x2="352.062" y2="203.039" stroke="black" stroke-opacity="0.08"/>
<line x1="419.263" y1="0.913086" x2="419.263" y2="203.039" stroke="black" stroke-opacity="0.08"/>
<line x1="246.845" y1="0.939453" x2="246.845" y2="203.065" stroke="black" stroke-opacity="0.08"/>
<line x1="299.454" y1="0.939453" x2="299.454" y2="203.065" stroke="black" stroke-opacity="0.08"/>
<line x1="366.654" y1="0.939453" x2="366.654" y2="203.065" stroke="black" stroke-opacity="0.08"/>
<line x1="433.855" y1="0.939453" x2="433.855" y2="203.065" stroke="black" stroke-opacity="0.08"/>
<path d="M366.234 138.288L374.057 120.717M351.186 138.288L414.034 1.08594L321.09 203.496M337.023 203.496L379.641 107.955M417.869 138.288L357.382 1.08594L446.785 203.496M433.507 138.288L370.955 1.08594L463.013 203.496M379.641 107.955L427.312 1.08594L374.057 120.717M379.641 107.955H0.717773M379.641 107.955H810.784M374.057 120.717H0.717773H810.784M489.088 138.009V203.496V1.08594M503.439 87.1004V1.08594V202.969M543.148 1.08594V203.496M557.707 1.08594V202.969M0.717773 63.6174H819.349M0.717773 76.3792H819.349M639.024 1.08594V203.496M653.583 1.08594V202.969M728.447 1.08594V203.496M743.007 1.08594V202.969M794.365 1.08594V203.496M808.924 1.08594V202.969M159.204 1.08594V203.496M173.763 1.08594V202.969M93.2859 1.08594V203.496M107.846 1.08594V202.969" stroke="black" stroke-opacity="0.08"/>
<mask id="path-12-outside-1_726_3675" maskUnits="userSpaceOnUse" x="92" y="62" width="719" height="80" fill="black">
<rect fill="white" x="92" y="62" width="719" height="80"/>
<path fill-rule="evenodd" clip-rule="evenodd" d="M171.784 113.05C170.438 116.867 168.482 120.445 165.988 123.65L165.974 123.678L174.81 130.815L166.089 140.065L156.816 132.193C149.859 136.781 141.664 139.194 133.299 139.118C127.705 139.182 122.153 138.162 116.957 136.115C112.271 134.301 108 131.579 104.397 128.107C100.794 124.636 97.9318 120.487 95.9799 115.905C94.0128 111.246 93 106.248 93 101.2C93 96.1518 94.0128 91.1538 95.9799 86.4946C97.9235 81.9324 100.778 77.8036 104.372 74.3546C112.199 66.935 122.681 62.8755 133.528 63.0626C139.118 62.9899 144.669 64.0056 149.862 66.0517C154.548 67.8646 158.82 70.5871 162.423 74.0584C166.026 77.5296 168.888 81.6791 170.839 86.2615C172.843 90.9253 173.844 95.9282 173.823 100.967C173.839 105.079 173.15 109.165 171.784 113.05ZM144.417 124.907C145.233 124.529 146.028 124.109 146.8 123.65L133.556 112.937L142.271 103.44L155.628 114.993C156.973 112.994 157.975 110.817 158.612 108.528C159.284 106.118 159.614 103.624 159.614 101.129C159.634 97.6579 158.978 94.2153 157.682 90.9889C156.445 87.8842 154.608 85.0472 152.273 82.6364C149.904 80.2202 147.073 78.2917 143.945 76.9621C137.174 74.1944 129.567 74.1944 122.796 76.9621C119.705 78.2547 116.909 80.1484 114.575 82.5304C112.25 84.9471 110.432 87.7595 109.223 90.8263C106.648 97.3424 106.648 104.577 109.223 111.093C110.447 114.181 112.285 117.014 114.632 119.445C116.979 121.848 119.819 123.777 122.967 125.119C126.301 126.533 129.915 127.253 133.571 127.218C135.981 127.233 138.382 126.914 140.704 126.271C141.979 125.917 143.216 125.46 144.417 124.907ZM285.364 64.3133H298.951L298.865 106.019C298.964 110.916 298.164 115.791 296.504 120.406C295.075 124.298 292.793 127.831 289.821 130.751C286.888 133.55 283.318 135.669 279.39 136.941C274.955 138.359 270.314 139.051 265.653 138.991C261.038 139.053 256.445 138.361 252.059 136.941C248.182 135.677 244.639 133.577 241.685 130.794C238.739 127.945 236.477 124.48 235.067 120.653C233.441 116.155 232.658 111.402 232.756 106.627V64.2992H246.342V106.111C246.35 112.972 248.088 118.194 251.551 121.763C255.014 125.338 259.793 127.133 265.903 127.133C271.956 127.133 276.707 125.423 280.177 121.975C283.64 118.541 285.371 113.425 285.371 106.641L285.364 64.3133ZM385.994 63.7834H398.58L398.637 63.7692L432.636 137.825H418.284L410.449 120.067H373.803L365.861 137.825H351.938L385.994 63.7834ZM378.811 108.584H405.412L392.055 79.1739L378.811 108.584ZM502.186 64.2568L543.569 115.099L543.626 115.142V64.2992H556.984V137.825H545.565L502.959 85.5195V137.782H489.594V64.2568H502.186ZM677.748 76.2272H653.236V137.782H639.549V76.2343H615.03V64.2497H677.748V76.2272ZM806.06 86.212C808.056 90.8758 809.072 95.8717 809.043 100.91V100.924C809.068 105.923 808.074 110.875 806.12 115.486C804.165 120.097 801.291 124.272 797.667 127.762C789.845 135.186 779.365 139.249 768.519 139.061C762.925 139.126 757.373 138.106 752.178 136.058C747.491 134.245 743.22 131.523 739.617 128.051C736.014 124.58 733.152 120.431 731.2 115.848C729.233 111.189 728.221 106.191 728.221 101.143C728.221 96.0953 729.233 91.0974 731.2 86.4381C733.144 81.8782 735.998 77.7518 739.593 74.3052C747.418 66.8829 757.9 62.8208 768.748 63.0061C774.338 62.937 779.888 63.9526 785.082 65.9951C789.769 67.807 794.041 70.5292 797.644 74.0006C801.247 77.4719 804.109 81.629 806.06 86.212ZM792.845 111.255C794.14 108.029 794.794 104.586 794.769 101.115L794.812 101.171C794.83 97.6835 794.162 94.2253 792.845 90.9889C791.609 87.8838 789.772 85.0466 787.436 82.6364C785.067 80.2192 782.237 78.2905 779.108 76.9621C772.336 74.1951 764.73 74.1951 757.959 76.9621C754.867 78.2531 752.071 80.147 749.738 82.5304C747.413 84.9471 745.595 87.7595 744.386 90.8263C741.811 97.3424 741.811 104.577 744.386 111.093C745.61 114.181 747.448 117.014 749.795 119.445C752.149 121.848 754.982 123.777 758.13 125.119C764.902 127.886 772.508 127.886 779.28 125.119C782.368 123.826 785.161 121.933 787.493 119.551C789.818 117.134 791.636 114.322 792.845 111.255Z"/>
</mask>
<path fill-rule="evenodd" clip-rule="evenodd" d="M171.784 113.05C170.438 116.867 168.482 120.445 165.988 123.65L165.974 123.678L174.81 130.815L166.089 140.065L156.816 132.193C149.859 136.781 141.664 139.194 133.299 139.118C127.705 139.182 122.153 138.162 116.957 136.115C112.271 134.301 108 131.579 104.397 128.107C100.794 124.636 97.9318 120.487 95.9799 115.905C94.0128 111.246 93 106.248 93 101.2C93 96.1518 94.0128 91.1538 95.9799 86.4946C97.9235 81.9324 100.778 77.8036 104.372 74.3546C112.199 66.935 122.681 62.8755 133.528 63.0626C139.118 62.9899 144.669 64.0056 149.862 66.0517C154.548 67.8646 158.82 70.5871 162.423 74.0584C166.026 77.5296 168.888 81.6791 170.839 86.2615C172.843 90.9253 173.844 95.9282 173.823 100.967C173.839 105.079 173.15 109.165 171.784 113.05ZM144.417 124.907C145.233 124.529 146.028 124.109 146.8 123.65L133.556 112.937L142.271 103.44L155.628 114.993C156.973 112.994 157.975 110.817 158.612 108.528C159.284 106.118 159.614 103.624 159.614 101.129C159.634 97.6579 158.978 94.2153 157.682 90.9889C156.445 87.8842 154.608 85.0472 152.273 82.6364C149.904 80.2202 147.073 78.2917 143.945 76.9621C137.174 74.1944 129.567 74.1944 122.796 76.9621C119.705 78.2547 116.909 80.1484 114.575 82.5304C112.25 84.9471 110.432 87.7595 109.223 90.8263C106.648 97.3424 106.648 104.577 109.223 111.093C110.447 114.181 112.285 117.014 114.632 119.445C116.979 121.848 119.819 123.777 122.967 125.119C126.301 126.533 129.915 127.253 133.571 127.218C135.981 127.233 138.382 126.914 140.704 126.271C141.979 125.917 143.216 125.46 144.417 124.907ZM285.364 64.3133H298.951L298.865 106.019C298.964 110.916 298.164 115.791 296.504 120.406C295.075 124.298 292.793 127.831 289.821 130.751C286.888 133.55 283.318 135.669 279.39 136.941C274.955 138.359 270.314 139.051 265.653 138.991C261.038 139.053 256.445 138.361 252.059 136.941C248.182 135.677 244.639 133.577 241.685 130.794C238.739 127.945 236.477 124.48 235.067 120.653C233.441 116.155 232.658 111.402 232.756 106.627V64.2992H246.342V106.111C246.35 112.972 248.088 118.194 251.551 121.763C255.014 125.338 259.793 127.133 265.903 127.133C271.956 127.133 276.707 125.423 280.177 121.975C283.64 118.541 285.371 113.425 285.371 106.641L285.364 64.3133ZM385.994 63.7834H398.58L398.637 63.7692L432.636 137.825H418.284L410.449 120.067H373.803L365.861 137.825H351.938L385.994 63.7834ZM378.811 108.584H405.412L392.055 79.1739L378.811 108.584ZM502.186 64.2568L543.569 115.099L543.626 115.142V64.2992H556.984V137.825H545.565L502.959 85.5195V137.782H489.594V64.2568H502.186ZM677.748 76.2272H653.236V137.782H639.549V76.2343H615.03V64.2497H677.748V76.2272ZM806.06 86.212C808.056 90.8758 809.072 95.8717 809.043 100.91V100.924C809.068 105.923 808.074 110.875 806.12 115.486C804.165 120.097 801.291 124.272 797.667 127.762C789.845 135.186 779.365 139.249 768.519 139.061C762.925 139.126 757.373 138.106 752.178 136.058C747.491 134.245 743.22 131.523 739.617 128.051C736.014 124.58 733.152 120.431 731.2 115.848C729.233 111.189 728.221 106.191 728.221 101.143C728.221 96.0953 729.233 91.0974 731.2 86.4381C733.144 81.8782 735.998 77.7518 739.593 74.3052C747.418 66.8829 757.9 62.8208 768.748 63.0061C774.338 62.937 779.888 63.9526 785.082 65.9951C789.769 67.807 794.041 70.5292 797.644 74.0006C801.247 77.4719 804.109 81.629 806.06 86.212ZM792.845 111.255C794.14 108.029 794.794 104.586 794.769 101.115L794.812 101.171C794.83 97.6835 794.162 94.2253 792.845 90.9889C791.609 87.8838 789.772 85.0466 787.436 82.6364C785.067 80.2192 782.237 78.2905 779.108 76.9621C772.336 74.1951 764.73 74.1951 757.959 76.9621C754.867 78.2531 752.071 80.147 749.738 82.5304C747.413 84.9471 745.595 87.7595 744.386 90.8263C741.811 97.3424 741.811 104.577 744.386 111.093C745.61 114.181 747.448 117.014 749.795 119.445C752.149 121.848 754.982 123.777 758.13 125.119C764.902 127.886 772.508 127.886 779.28 125.119C782.368 123.826 785.161 121.933 787.493 119.551C789.818 117.134 791.636 114.322 792.845 111.255Z" stroke="black" stroke-width="2" mask="url(#path-12-outside-1_726_3675)"/>
</svg>
