<svg width="137" height="83" viewBox="0 0 137 83" fill="none" xmlns="http://www.w3.org/2000/svg">
<path d="M1.88579 37.8443L9.22507 37.1308C9.66679 39.5942 10.5587 41.4035 11.9009 42.5588C13.26 43.714 15.0863 44.2917 17.3798 44.2917C19.8093 44.2917 21.6356 43.782 22.8588 42.7626C24.099 41.7263 24.7191 40.5201 24.7191 39.144C24.7191 38.2605 24.4558 37.513 23.9291 36.9014C23.4195 36.2728 22.519 35.7292 21.2279 35.2705C20.3444 34.9647 18.3312 34.421 15.1882 33.6395C11.1448 32.6372 8.30766 31.4054 6.67671 29.9444C4.38318 27.8887 3.23642 25.3828 3.23642 22.4267C3.23642 20.5239 3.77158 18.7486 4.84189 17.1006C5.92919 15.4357 7.48369 14.17 9.50539 13.3036C11.5441 12.4371 13.999 12.0039 16.8702 12.0039C21.5592 12.0039 25.0844 13.0317 27.4459 15.0874C29.8243 17.1431 31.073 19.8868 31.192 23.3186L23.6488 23.6499C23.326 21.7302 22.6295 20.354 21.5592 19.5216C20.5058 18.6721 18.9173 18.2474 16.7937 18.2474C14.6021 18.2474 12.8862 18.6976 11.646 19.598C10.8475 20.1757 10.4483 20.9487 10.4483 21.917C10.4483 22.8005 10.822 23.5565 11.5696 24.1851C12.521 24.9836 14.8315 25.816 18.5011 26.6825C22.1708 27.5489 24.8805 28.4493 26.6304 29.3837C28.3973 30.3012 29.7734 31.5668 30.7587 33.1808C31.7611 34.7778 32.2623 36.757 32.2623 39.1185C32.2623 41.2591 31.6677 43.2638 30.4784 45.1326C29.2892 47.0014 27.6073 48.3945 25.4327 49.3119C23.2581 50.2124 20.5483 50.6626 17.3034 50.6626C12.5804 50.6626 8.95325 49.5753 6.42187 47.4007C3.8905 45.2091 2.37847 42.0236 1.88579 37.8443ZM45.7981 50V12.641H73.4988V18.9609H53.3412V27.2431H72.0972V33.5376H53.3412V43.7055H74.2123V50H45.7981ZM105.179 36.2643V29.9699H121.437V44.8523C119.857 46.3813 117.564 47.732 114.557 48.9042C111.567 50.0595 108.534 50.6371 105.459 50.6371C101.552 50.6371 98.1454 49.8216 95.2403 48.1907C92.3351 46.5427 90.152 44.1982 88.691 41.1572C87.2299 38.0991 86.4994 34.7778 86.4994 31.1931C86.4994 27.3026 87.3149 23.8453 88.9458 20.8212C90.5768 17.7972 92.9637 15.4782 96.1067 13.8642C98.5022 12.624 101.484 12.0039 105.051 12.0039C109.689 12.0039 113.308 12.9808 115.908 14.9345C118.524 16.8713 120.206 19.5556 120.953 22.9874L113.461 24.389C112.934 22.5541 111.941 21.1101 110.479 20.0567C109.035 18.9864 107.226 18.4513 105.051 18.4513C101.756 18.4513 99.1308 19.4961 97.177 21.5858C95.2403 23.6754 94.2719 26.7759 94.2719 30.8873C94.2719 35.3214 95.2573 38.6513 97.228 40.8769C99.1987 43.0854 101.781 44.1897 104.975 44.1897C106.555 44.1897 108.135 43.8839 109.715 43.2723C111.312 42.6437 112.68 41.8877 113.818 41.0043V36.2643H105.179Z" fill="white"/>
<rect x="2.7334" y="60.0743" width="121.812" height="3.71725" fill="white"/>
<path d="M3.20508 77.4522L4.14331 77.3702C4.18774 77.7462 4.29028 78.0555 4.45093 78.2982C4.61499 78.5374 4.86792 78.7322 5.20972 78.8826C5.55151 79.0296 5.93604 79.1031 6.36328 79.1031C6.74268 79.1031 7.07764 79.0467 7.36816 78.9339C7.65869 78.8211 7.87402 78.6673 8.01416 78.4725C8.15771 78.2742 8.22949 78.0589 8.22949 77.8265C8.22949 77.5906 8.16113 77.3856 8.02441 77.2112C7.8877 77.0335 7.66211 76.8848 7.34766 76.7652C7.146 76.6866 6.69995 76.5652 6.00952 76.4012C5.31909 76.2337 4.83545 76.0765 4.55859 75.9295C4.19971 75.7415 3.9314 75.5091 3.75366 75.2322C3.57935 74.952 3.49219 74.6392 3.49219 74.294C3.49219 73.9146 3.59985 73.5609 3.81519 73.2327C4.03052 72.9012 4.34497 72.65 4.75854 72.4791C5.17212 72.3082 5.63184 72.2227 6.1377 72.2227C6.69482 72.2227 7.1853 72.3133 7.60913 72.4944C8.03638 72.6722 8.3645 72.9354 8.59351 73.284C8.82251 73.6326 8.94556 74.0274 8.96265 74.4683L8.00903 74.5401C7.95776 74.065 7.78345 73.7061 7.48608 73.4634C7.19214 73.2208 6.75635 73.0994 6.17871 73.0994C5.57715 73.0994 5.13794 73.2105 4.86108 73.4327C4.58765 73.6514 4.45093 73.9163 4.45093 74.2274C4.45093 74.4974 4.54834 74.7195 4.74316 74.8939C4.93457 75.0682 5.43359 75.2476 6.24023 75.4322C7.05029 75.6133 7.60571 75.7723 7.90649 75.909C8.34399 76.1107 8.66699 76.367 8.87549 76.678C9.08398 76.9857 9.18823 77.3411 9.18823 77.7444C9.18823 78.1443 9.07373 78.522 8.84473 78.8775C8.61572 79.2296 8.28589 79.5047 7.85522 79.7029C7.42798 79.8978 6.94604 79.9952 6.40942 79.9952C5.72925 79.9952 5.15845 79.8961 4.69702 79.6978C4.23901 79.4996 3.87842 79.2022 3.61523 78.8057C3.35547 78.4058 3.21875 77.9547 3.20508 77.4522ZM13.9819 79.1954C13.6401 79.4859 13.3103 79.691 12.9924 79.8106C12.678 79.9302 12.3396 79.9901 11.9773 79.9901C11.3792 79.9901 10.9194 79.8448 10.5981 79.5543C10.2769 79.2603 10.1162 78.886 10.1162 78.4315C10.1162 78.1649 10.176 77.9222 10.2957 77.7034C10.4187 77.4813 10.5776 77.3035 10.7725 77.1702C10.9707 77.0369 11.1929 76.9361 11.439 76.8677C11.6201 76.8199 11.8936 76.7737 12.2593 76.7293C13.0044 76.6404 13.553 76.5345 13.905 76.4114C13.9084 76.285 13.9102 76.2047 13.9102 76.1705C13.9102 75.7945 13.823 75.5296 13.6487 75.3758C13.4128 75.1673 13.0625 75.063 12.5977 75.063C12.1636 75.063 11.8423 75.14 11.6338 75.2938C11.4287 75.4442 11.2766 75.7125 11.1775 76.0987L10.2751 75.9756C10.3572 75.5894 10.4922 75.2784 10.6802 75.0425C10.8682 74.8033 11.1399 74.6204 11.4954 74.494C11.8508 74.3641 12.2627 74.2991 12.731 74.2991C13.1958 74.2991 13.5735 74.3538 13.864 74.4632C14.1545 74.5726 14.3682 74.711 14.5049 74.8785C14.6416 75.0425 14.7373 75.251 14.792 75.504C14.8228 75.6612 14.8381 75.9449 14.8381 76.355V77.5855C14.8381 78.4434 14.8569 78.9869 14.8945 79.2159C14.9355 79.4415 15.0142 79.6585 15.1304 79.867H14.1665C14.0708 79.6756 14.0093 79.4517 13.9819 79.1954ZM13.905 77.1343C13.5701 77.2711 13.0676 77.3873 12.3977 77.483C12.0183 77.5377 11.75 77.5992 11.5928 77.6675C11.4355 77.7359 11.3142 77.8367 11.2288 77.97C11.1433 78.0999 11.1006 78.2452 11.1006 78.4058C11.1006 78.6519 11.1929 78.857 11.3774 79.0211C11.5654 79.1851 11.8389 79.2672 12.1978 79.2672C12.5532 79.2672 12.8694 79.1902 13.1462 79.0364C13.4231 78.8792 13.6265 78.6656 13.7563 78.3956C13.8555 78.1871 13.905 77.8795 13.905 77.4727V77.1343ZM16.2737 79.867V74.4222H17.1042V75.1964C17.5042 74.5982 18.0818 74.2991 18.8372 74.2991C19.1653 74.2991 19.4661 74.3589 19.7395 74.4786C20.0164 74.5948 20.2231 74.7486 20.3599 74.94C20.4966 75.1314 20.5923 75.3587 20.647 75.6219C20.6812 75.7928 20.6982 76.0919 20.6982 76.5191V79.867H19.7754V76.555C19.7754 76.179 19.7395 75.8987 19.6677 75.7142C19.5959 75.5262 19.4678 75.3775 19.2832 75.2681C19.1021 75.1553 18.8884 75.0989 18.6423 75.0989C18.2493 75.0989 17.9092 75.2237 17.6221 75.4732C17.3384 75.7227 17.1965 76.1961 17.1965 76.8934V79.867H16.2737ZM21.7749 77.1446C21.7749 76.1363 22.0552 75.3895 22.6157 74.9041C23.084 74.5008 23.6548 74.2991 24.3281 74.2991C25.0767 74.2991 25.6885 74.5452 26.1636 75.0374C26.6387 75.5262 26.8762 76.2029 26.8762 77.0677C26.8762 77.7684 26.7703 78.3204 26.5583 78.7237C26.3499 79.1236 26.0439 79.4346 25.6406 79.6568C25.2407 79.879 24.8032 79.9901 24.3281 79.9901C23.5659 79.9901 22.949 79.7457 22.4773 79.2569C22.009 78.7681 21.7749 78.064 21.7749 77.1446ZM22.7234 77.1446C22.7234 77.8419 22.8755 78.3648 23.1797 78.7134C23.4839 79.0587 23.8667 79.2313 24.3281 79.2313C24.7861 79.2313 25.1672 79.0569 25.4714 78.7083C25.7756 78.3597 25.9277 77.8282 25.9277 77.1138C25.9277 76.4405 25.7739 75.9312 25.4663 75.586C25.1621 75.2374 24.7827 75.063 24.3281 75.063C23.8667 75.063 23.4839 75.2357 23.1797 75.5809C22.8755 75.9261 22.7234 76.4473 22.7234 77.1446ZM31.5161 79.1954C31.1743 79.4859 30.8445 79.691 30.5266 79.8106C30.2122 79.9302 29.8738 79.9901 29.5115 79.9901C28.9133 79.9901 28.4536 79.8448 28.1323 79.5543C27.811 79.2603 27.6504 78.886 27.6504 78.4315C27.6504 78.1649 27.7102 77.9222 27.8298 77.7034C27.9529 77.4813 28.1118 77.3035 28.3066 77.1702C28.5049 77.0369 28.7271 76.9361 28.9731 76.8677C29.1543 76.8199 29.4277 76.7737 29.7935 76.7293C30.5386 76.6404 31.0872 76.5345 31.4392 76.4114C31.4426 76.285 31.4443 76.2047 31.4443 76.1705C31.4443 75.7945 31.3572 75.5296 31.1829 75.3758C30.947 75.1673 30.5967 75.063 30.1318 75.063C29.6978 75.063 29.3765 75.14 29.168 75.2938C28.9629 75.4442 28.8108 75.7125 28.7117 76.0987L27.8093 75.9756C27.8914 75.5894 28.0264 75.2784 28.2144 75.0425C28.4023 74.8033 28.6741 74.6204 29.0295 74.494C29.385 74.3641 29.7969 74.2991 30.2651 74.2991C30.73 74.2991 31.1077 74.3538 31.3982 74.4632C31.6887 74.5726 31.9023 74.711 32.0391 74.8785C32.1758 75.0425 32.2715 75.251 32.3262 75.504C32.3569 75.6612 32.3723 75.9449 32.3723 76.355V77.5855C32.3723 78.4434 32.3911 78.9869 32.4287 79.2159C32.4697 79.4415 32.5483 79.6585 32.6646 79.867H31.7007C31.605 79.6756 31.5435 79.4517 31.5161 79.1954ZM31.4392 77.1343C31.1042 77.2711 30.6018 77.3873 29.9319 77.483C29.5525 77.5377 29.2842 77.5992 29.127 77.6675C28.9697 77.7359 28.8484 77.8367 28.7629 77.97C28.6775 78.0999 28.6348 78.2452 28.6348 78.4058C28.6348 78.6519 28.7271 78.857 28.9116 79.0211C29.0996 79.1851 29.373 79.2672 29.7319 79.2672C30.0874 79.2672 30.4036 79.1902 30.6804 79.0364C30.9573 78.8792 31.1606 78.6656 31.2905 78.3956C31.3896 78.1871 31.4392 77.8795 31.4392 77.4727V77.1343ZM35.8228 79.0416L35.9561 79.8568C35.6963 79.9114 35.4639 79.9388 35.2588 79.9388C34.9238 79.9388 34.6641 79.8858 34.4795 79.7798C34.2949 79.6739 34.165 79.5355 34.0898 79.3646C34.0146 79.1902 33.9771 78.8262 33.9771 78.2725V75.14H33.3003V74.4222H33.9771V73.0738L34.8948 72.5201V74.4222H35.8228V75.14H34.8948V78.3238C34.8948 78.587 34.9102 78.7562 34.9409 78.8314C34.9751 78.9066 35.0281 78.9664 35.0999 79.0108C35.175 79.0552 35.281 79.0775 35.4177 79.0775C35.5203 79.0775 35.6553 79.0655 35.8228 79.0416ZM39.791 79.867V72.3509H45.2256V73.2379H40.7856V75.5399H44.9436V76.4217H40.7856V78.98H45.3999V79.867H39.791ZM46.656 79.867V74.4222H47.4866V75.1964C47.8865 74.5982 48.4641 74.2991 49.2195 74.2991C49.5476 74.2991 49.8484 74.3589 50.1218 74.4786C50.3987 74.5948 50.6055 74.7486 50.7422 74.94C50.8789 75.1314 50.9746 75.3587 51.0293 75.6219C51.0635 75.7928 51.0806 76.0919 51.0806 76.5191V79.867H50.1577V76.555C50.1577 76.179 50.1218 75.8987 50.05 75.7142C49.9783 75.5262 49.8501 75.3775 49.6655 75.2681C49.4844 75.1553 49.2708 75.0989 49.0247 75.0989C48.6316 75.0989 48.2915 75.2237 48.0044 75.4732C47.7207 75.7227 47.5789 76.1961 47.5789 76.8934V79.867H46.656ZM56.228 78.1136L57.1816 78.2315C57.0312 78.7886 56.7527 79.221 56.3459 79.5286C55.9392 79.8362 55.4197 79.9901 54.7874 79.9901C53.991 79.9901 53.3586 79.7457 52.8904 79.2569C52.4255 78.7647 52.1931 78.076 52.1931 77.1907C52.1931 76.2747 52.429 75.5638 52.9006 75.0579C53.3723 74.5521 53.9841 74.2991 54.7361 74.2991C55.4641 74.2991 56.0588 74.5469 56.5203 75.0425C56.9817 75.5381 57.2124 76.2354 57.2124 77.1343C57.2124 77.189 57.2107 77.2711 57.2073 77.3804H53.1467C53.1809 77.9786 53.3501 78.4366 53.6543 78.7545C53.9585 79.0723 54.3379 79.2313 54.7925 79.2313C55.1309 79.2313 55.4197 79.1424 55.6589 78.9647C55.8982 78.7869 56.0879 78.5032 56.228 78.1136ZM53.198 76.6216H56.2383C56.1973 76.1636 56.0811 75.8201 55.8896 75.5911C55.5957 75.2357 55.2146 75.0579 54.7463 75.0579C54.3225 75.0579 53.9653 75.1998 53.6748 75.4835C53.3877 75.7672 53.2288 76.1465 53.198 76.6216ZM58.3352 79.867V74.4222H59.1658V75.2476C59.3777 74.8614 59.5725 74.6068 59.7502 74.4837C59.9314 74.3607 60.1296 74.2991 60.345 74.2991C60.656 74.2991 60.9722 74.3983 61.2935 74.5965L60.9756 75.4527C60.75 75.3194 60.5244 75.2527 60.2988 75.2527C60.0972 75.2527 59.916 75.3143 59.7554 75.4373C59.5947 75.5569 59.4802 75.7244 59.4119 75.9398C59.3093 76.2679 59.2581 76.6268 59.2581 77.0164V79.867H58.3352ZM61.6729 80.3182L62.5701 80.4515C62.6077 80.7283 62.7119 80.93 62.8828 81.0565C63.1118 81.2274 63.4246 81.3128 63.821 81.3128C64.2483 81.3128 64.5781 81.2274 64.8105 81.0565C65.043 80.8856 65.2002 80.6463 65.2822 80.3387C65.3301 80.1507 65.3523 79.7559 65.3489 79.1544C64.9456 79.6295 64.4431 79.867 63.8416 79.867C63.093 79.867 62.5137 79.597 62.1035 79.0569C61.6934 78.5169 61.4883 77.8692 61.4883 77.1138C61.4883 76.5943 61.5823 76.1158 61.7703 75.6783C61.9583 75.2374 62.23 74.8973 62.5854 74.658C62.9443 74.4188 63.3647 74.2991 63.8467 74.2991C64.4893 74.2991 65.019 74.5589 65.436 75.0784V74.4222H66.2871V79.1287C66.2871 79.9764 66.2 80.5762 66.0256 80.9283C65.8547 81.2838 65.5813 81.564 65.2053 81.7691C64.8328 81.9742 64.373 82.0767 63.8262 82.0767C63.1768 82.0767 62.6521 81.9297 62.2522 81.6358C61.8523 81.3453 61.6592 80.9061 61.6729 80.3182ZM62.4368 77.0472C62.4368 77.7615 62.5786 78.2828 62.8623 78.6109C63.146 78.939 63.5015 79.1031 63.9287 79.1031C64.3525 79.1031 64.708 78.9407 64.9951 78.616C65.2822 78.2879 65.4258 77.7752 65.4258 77.0779C65.4258 76.4114 65.2771 75.909 64.9797 75.5706C64.6858 75.2322 64.3303 75.063 63.9133 75.063C63.5032 75.063 63.1545 75.2305 62.8674 75.5655C62.5803 75.897 62.4368 76.3909 62.4368 77.0472ZM71.4141 78.1136L72.3677 78.2315C72.2173 78.7886 71.9387 79.221 71.532 79.5286C71.1252 79.8362 70.6057 79.9901 69.9734 79.9901C69.177 79.9901 68.5447 79.7457 68.0764 79.2569C67.6116 78.7647 67.3792 78.076 67.3792 77.1907C67.3792 76.2747 67.615 75.5638 68.0867 75.0579C68.5583 74.5521 69.1702 74.2991 69.9221 74.2991C70.6501 74.2991 71.2449 74.5469 71.7063 75.0425C72.1677 75.5381 72.3984 76.2354 72.3984 77.1343C72.3984 77.189 72.3967 77.2711 72.3933 77.3804H68.3328C68.3669 77.9786 68.5361 78.4366 68.8403 78.7545C69.1445 79.0723 69.5239 79.2313 69.9785 79.2313C70.3169 79.2313 70.6057 79.1424 70.845 78.9647C71.0842 78.7869 71.2739 78.5032 71.4141 78.1136ZM68.384 76.6216H71.4243C71.3833 76.1636 71.2671 75.8201 71.0757 75.5911C70.7817 75.2357 70.4006 75.0579 69.9324 75.0579C69.5085 75.0579 69.1514 75.1998 68.8608 75.4835C68.5737 75.7672 68.4148 76.1465 68.384 76.6216ZM75.5464 79.0416L75.6797 79.8568C75.4199 79.9114 75.1875 79.9388 74.9824 79.9388C74.6475 79.9388 74.3877 79.8858 74.2031 79.7798C74.0186 79.6739 73.8887 79.5355 73.8135 79.3646C73.7383 79.1902 73.7007 78.8262 73.7007 78.2725V75.14H73.0239V74.4222H73.7007V73.0738L74.6184 72.5201V74.4222H75.5464V75.14H74.6184V78.3238C74.6184 78.587 74.6338 78.7562 74.6646 78.8314C74.6987 78.9066 74.7517 78.9664 74.8235 79.0108C74.8987 79.0552 75.0046 79.0775 75.1414 79.0775C75.2439 79.0775 75.3789 79.0655 75.5464 79.0416ZM76.459 73.4122V72.3509H77.3818V73.4122H76.459ZM76.459 79.867V74.4222H77.3818V79.867H76.459ZM78.7969 79.867V72.3509H79.7197V76.637L81.9038 74.4222H83.0984L81.0168 76.4422L83.3086 79.867H82.1704L80.3708 77.0831L79.7197 77.7086V79.867H78.7969ZM87.5947 79.1954C87.2529 79.4859 86.9231 79.691 86.6052 79.8106C86.2908 79.9302 85.9524 79.9901 85.5901 79.9901C84.9919 79.9901 84.5322 79.8448 84.2109 79.5543C83.8896 79.2603 83.729 78.886 83.729 78.4315C83.729 78.1649 83.7888 77.9222 83.9084 77.7034C84.0315 77.4813 84.1904 77.3035 84.3853 77.1702C84.5835 77.0369 84.8057 76.9361 85.0518 76.8677C85.2329 76.8199 85.5063 76.7737 85.8721 76.7293C86.6172 76.6404 87.1658 76.5345 87.5178 76.4114C87.5212 76.285 87.5229 76.2047 87.5229 76.1705C87.5229 75.7945 87.4358 75.5296 87.2615 75.3758C87.0256 75.1673 86.6753 75.063 86.2104 75.063C85.7764 75.063 85.4551 75.14 85.2466 75.2938C85.0415 75.4442 84.8894 75.7125 84.7903 76.0987L83.8879 75.9756C83.97 75.5894 84.105 75.2784 84.293 75.0425C84.481 74.8033 84.7527 74.6204 85.1082 74.494C85.4636 74.3641 85.8755 74.2991 86.3438 74.2991C86.8086 74.2991 87.1863 74.3538 87.4768 74.4632C87.7673 74.5726 87.981 74.711 88.1177 74.8785C88.2544 75.0425 88.3501 75.251 88.4048 75.504C88.4355 75.6612 88.4509 75.9449 88.4509 76.355V77.5855C88.4509 78.4434 88.4697 78.9869 88.5073 79.2159C88.5483 79.4415 88.627 79.6585 88.7432 79.867H87.7793C87.6836 79.6756 87.6221 79.4517 87.5947 79.1954ZM87.5178 77.1343C87.1829 77.2711 86.6804 77.3873 86.0105 77.483C85.6311 77.5377 85.3628 77.5992 85.2056 77.6675C85.0483 77.7359 84.927 77.8367 84.8416 77.97C84.7561 78.0999 84.7134 78.2452 84.7134 78.4058C84.7134 78.6519 84.8057 78.857 84.9902 79.0211C85.1782 79.1851 85.4517 79.2672 85.8105 79.2672C86.166 79.2672 86.4822 79.1902 86.759 79.0364C87.0359 78.8792 87.2393 78.6656 87.3691 78.3956C87.4683 78.1871 87.5178 77.8795 87.5178 77.4727V77.1343ZM96.4438 76.919V76.0372L99.6277 76.032V78.8211C99.1389 79.2108 98.6348 79.5047 98.1152 79.7029C97.5957 79.8978 97.0625 79.9952 96.5156 79.9952C95.7773 79.9952 95.1057 79.838 94.5007 79.5235C93.8992 79.2056 93.4446 78.7476 93.137 78.1495C92.8293 77.5513 92.6755 76.8831 92.6755 76.1448C92.6755 75.4134 92.8276 74.7315 93.1318 74.0992C93.4395 73.4634 93.8804 72.9918 94.4546 72.6841C95.0288 72.3765 95.6902 72.2227 96.4387 72.2227C96.9822 72.2227 97.4727 72.3116 97.9102 72.4893C98.3511 72.6636 98.6963 72.908 98.9458 73.2225C99.1953 73.5369 99.385 73.9471 99.5149 74.4529L98.6177 74.699C98.5049 74.3162 98.3647 74.0154 98.1973 73.7967C98.0298 73.5779 97.7905 73.4036 97.4795 73.2737C97.1685 73.1404 96.8232 73.0738 96.4438 73.0738C95.9893 73.0738 95.5962 73.1439 95.2646 73.284C94.9331 73.4207 94.6648 73.6019 94.4597 73.8275C94.2581 74.053 94.1008 74.3008 93.988 74.5709C93.7966 75.0357 93.7009 75.5399 93.7009 76.0833C93.7009 76.7532 93.8154 77.3138 94.0444 77.765C94.2769 78.2161 94.6135 78.5511 95.0544 78.7698C95.4954 78.9886 95.9636 79.098 96.4592 79.098C96.8899 79.098 97.3103 79.0159 97.7205 78.8519C98.1306 78.6844 98.4417 78.5067 98.6536 78.3187V76.919H96.4438ZM104.55 79.867V79.0672C104.126 79.6824 103.55 79.9901 102.822 79.9901C102.5 79.9901 102.2 79.9285 101.919 79.8055C101.643 79.6824 101.436 79.5286 101.299 79.3441C101.166 79.1561 101.072 78.9271 101.017 78.657C100.979 78.4759 100.961 78.1888 100.961 77.7957V74.4222H101.884V77.442C101.884 77.9239 101.902 78.2486 101.94 78.4161C101.998 78.6588 102.121 78.8502 102.309 78.9903C102.497 79.127 102.729 79.1954 103.006 79.1954C103.283 79.1954 103.543 79.1253 103.786 78.9852C104.028 78.8416 104.199 78.6485 104.298 78.4058C104.401 78.1597 104.452 77.8043 104.452 77.3394V74.4222H105.375V79.867H104.55ZM106.816 79.867V74.4222H107.646V75.2476C107.858 74.8614 108.053 74.6068 108.231 74.4837C108.412 74.3607 108.61 74.2991 108.825 74.2991C109.136 74.2991 109.453 74.3983 109.774 74.5965L109.456 75.4527C109.23 75.3194 109.005 75.2527 108.779 75.2527C108.578 75.2527 108.396 75.3143 108.236 75.4373C108.075 75.5569 107.961 75.7244 107.892 75.9398C107.79 76.2679 107.739 76.6268 107.739 77.0164V79.867H106.816ZM113.891 79.867V79.0672C113.467 79.6824 112.891 79.9901 112.163 79.9901C111.842 79.9901 111.541 79.9285 111.261 79.8055C110.984 79.6824 110.777 79.5286 110.64 79.3441C110.507 79.1561 110.413 78.9271 110.358 78.657C110.321 78.4759 110.302 78.1888 110.302 77.7957V74.4222H111.225V77.442C111.225 77.9239 111.244 78.2486 111.281 78.4161C111.339 78.6588 111.462 78.8502 111.65 78.9903C111.838 79.127 112.071 79.1954 112.348 79.1954C112.625 79.1954 112.884 79.1253 113.127 78.9852C113.37 78.8416 113.541 78.6485 113.64 78.4058C113.742 78.1597 113.793 77.8043 113.793 77.3394V74.4222H114.716V79.867H113.891ZM116.167 79.867V72.3509H117.09V75.0477C117.521 74.5486 118.064 74.2991 118.72 74.2991C119.124 74.2991 119.474 74.3795 119.771 74.5401C120.069 74.6973 120.281 74.9161 120.407 75.1964C120.537 75.4766 120.602 75.8834 120.602 76.4166V79.867H119.679V76.4166C119.679 75.9551 119.578 75.6202 119.377 75.4117C119.178 75.1998 118.896 75.0938 118.531 75.0938C118.257 75.0938 117.999 75.1656 117.757 75.3091C117.517 75.4493 117.346 75.6407 117.244 75.8834C117.141 76.126 117.09 76.461 117.09 76.8882V79.867H116.167ZM122.017 73.4122V72.3509H122.94V73.4122H122.017ZM122.017 79.867V74.4222H122.94V79.867H122.017Z" fill="white"/>
</svg>
